<svg xmlns="http://www.w3.org/2000/svg" viewBox="0 0 461.68 348.34"><defs><style>.cls-1{fill:#ddd3ba;}.cls-2{fill:#4b597f;}.cls-3{fill:#6b7ca0;}.cls-4{fill:#bfc5e2;}.cls-5{fill:#fff;}.cls-6{fill:#5c6893;}.cls-7{fill:#e29d2d;}.cls-8{fill:#a55a0f;}.cls-9{fill:#e8e0cd;}.cls-10{fill:#c1b399;}.cls-11{fill:#f2bc44;}.cls-12{fill:#707217;}.cls-13{fill:#474509;}.cls-14{fill:#e2ab69;}.cls-15{fill:#f7d4aa;}.cls-16{fill:#ddb68c;}.cls-17{fill:#fce9d4;}.cls-18{fill:#c69b71;}.cls-19{fill:#892828;}.cls-20{fill:#6b1515;}.cls-21{fill:#a54242;}.cls-22{fill:#591010;}.cls-23{fill:#685d4e;}.cls-24{fill:#8c8676;}.cls-25{fill:#a8a398;}.cls-26{fill:#e2a54d;}</style></defs><g id="Layer_2" data-name="Layer 2"><g id="OBJECTS"><path class="cls-1" d="M253.73,103.63s-24.64-8.53-21.46-23.08,11.89-22.12,3.54-41.12c0,0,10.95,9,13.79,21S241,91.74,253.73,103.63Z"/><path class="cls-1" d="M255,50.49s-12.88-12.29-8.42-22S258.06,14.81,255.46,0c0,0,6,8.19,6,17.15S248.27,40,255,50.49Z"/><path class="cls-1" d="M253.89,91.84s-2.69-14.5,2.68-23.09,3.76-22,3.76-22,7,12.89,4.84,22.56S253.35,87,255,94"/><path class="cls-2" d="M176.39,55.39s0,.54-.07,1.54c0,.64-.06,1.46-.1,2.45h0c-.2,4.39-.57,12.07-1.08,21.38,0,1.08-.11,2.18-.18,3.31-1.73,31.37-4.91,77.93-8.66,83.15-1.25,1.74-5.19,3.47-10.05,4.91a78.74,78.74,0,0,1-41.63.69c-6.46-1.65-12.33-3.63-13.62-5.6-2.3-3.51-5.83-49-8-80.89,0-.7-.1-1.39-.14-2.08C92,73.11,91.44,63.85,91.13,59c-.14-2.33-.22-3.63-.22-3.63H91l.88-.06,10.6-.69,27.58-1.78v-.46a38.49,38.49,0,0,0,7.12,0v.46l27.87,1.8,10.58.69Z"/><path class="cls-3" d="M176.52,55.39c0,2.89-2,5.6-5.61,8-7.36,4.84-21.23,8.1-37.13,8.1S104,68.18,96.65,63.34C93.08,61,91,58.28,91,55.39c0-8.87,19.14-16.06,42.74-16.06S176.52,46.52,176.52,55.39Z"/><path class="cls-4" d="M171,62.46a5.22,5.22,0,0,1-.07.88c-7.36,4.84-21.23,8.1-37.13,8.1S104,68.18,96.65,63.34a5.22,5.22,0,0,1-.07-.88c0-8,16.66-14.42,37.2-14.42S171,54.49,171,62.46Z"/><path d="M133.78,38.43c-24.45,0-43.61,7.45-43.61,17a7.56,7.56,0,0,0,1,3.63,14.82,14.82,0,0,0,5.05,5.07c7.73,5.09,22.14,8.25,37.6,8.25s29.87-3.16,37.6-8.25a15.36,15.36,0,0,0,4.84-4.7h0a7.73,7.73,0,0,0,1.17-4C177.39,45.88,158.24,38.43,133.78,38.43Zm41.87,17c0,2.89-2.43,5.26-4.67,6.83l-.53.36c-7.47,4.91-21.52,8-36.67,8s-29.2-3.05-36.66-8a6.18,6.18,0,0,1-.53-.36c-2.25-1.57-4.68-3.94-4.68-6.83a.15.15,0,0,1,0-.07c.09-8.19,19.23-15.09,41.86-15.09s41.79,6.91,41.87,15.11Z"/><path class="cls-4" d="M132.71,82.66c.06,1.4-.54,2.58-1.36,2.62s-1.53-1.07-1.6-2.48.54-2.58,1.36-2.62S132.64,81.25,132.71,82.66Z"/><path class="cls-4" d="M169.5,78.5c.07,1.41-.54,2.58-1.36,2.62s-1.53-1.07-1.59-2.48.54-2.58,1.35-2.62S169.43,77.09,169.5,78.5Z"/><path class="cls-4" d="M96.72,73.93c.07,1.4-.54,2.58-1.36,2.61s-1.53-1.07-1.59-2.47.54-2.58,1.35-2.62S96.65,72.52,96.72,73.93Z"/><path class="cls-4" d="M155.67,89.91c.06,1.41-.54,2.58-1.36,2.62s-1.53-1.07-1.59-2.48.53-2.58,1.35-2.62S155.6,88.5,155.67,89.91Z"/><path class="cls-4" d="M108.8,84.4c.07,1.41-.54,2.58-1.35,2.62s-1.53-1.07-1.6-2.48.54-2.58,1.36-2.62S108.74,83,108.8,84.4Z"/><path d="M175.14,80.77c0,1.08-.11,2.18-.18,3.31a10.82,10.82,0,0,1-15.7-.58A9,9,0,0,0,147,82.34c-.92.68-1.86,1.47-2.85,2.3-5.08,4.22-11.4,9.48-18.17,4.78-9.68-6.79-14.5-10.06-18.28-10.56s-6.8,1.76-13,6.22L93,86.34c0-.7-.1-1.39-.14-2.08l.85-.62c13.1-9.47,13.72-9.39,33.29,4.32,5.66,3.93,11.16-.65,16-4.69,1-.84,2-1.64,2.91-2.34a10.83,10.83,0,0,1,14.74,1.43,8.77,8.77,0,0,0,7.68,3,8.37,8.37,0,0,0,6.63-4.19Z"/><path class="cls-5" d="M107.63,56.23c.5-3.52,10.35-4.32,5-1.86C111.84,54.62,107.9,57.18,107.63,56.23Z"/><path class="cls-5" d="M116.51,57c1.33-3.08,11.52-1.67,5.51-.5C121.19,56.54,116.53,58,116.51,57Z"/><path class="cls-5" d="M125.16,51.07c2.82-1.51,7.49-1.55,9.82.51C133.79,51.84,125,52.19,125.16,51.07Z"/><path class="cls-5" d="M157.23,55.85c7.77.39,6.7,9.53,2.42,7.84,2.81-1.14,1.85-4.34-.29-5.75C159.08,57.48,156.54,56.37,157.23,55.85Z"/><path class="cls-6" d="M361,152.75s-.28,14.65-9.66,31.78c-.49.89-1,1.79-1.54,2.7-13.15,22.05-41.68,48.62-103.84,50.16-1.43,0-4.28,0-5.7,0-63.7-1.57-92.09-29.37-104.79-51.8-.19-.34-.38-.67-.56-1-9.41-17.15-9.69-31.83-9.69-31.83l115-1.53v-.08l2.85,0,2.85,0v.08Z"/><path class="cls-4" d="M361.51,153c0,4.7-3.29,9.17-9.23,13.24-16.85,11.53-55,19.83-100.28,20.77-1.61,0-3.23.06-4.86.07-1.26,0-2.52,0-3.79,0-50.8,0-94.12-9.25-110.81-22.23-4.76-3.7-7.35-7.7-7.35-11.87,0-18.84,52.9-34.1,118.16-34.1S361.51,134.18,361.51,153Z"/><path class="cls-7" d="M352.28,166.26a77.84,77.84,0,0,1-18.42,8.68l-.5.17a174.28,174.28,0,0,1-18,5l-.87.19c-6.16,1.34-12.79,2.51-19.8,3.49l-.71.1A368.41,368.41,0,0,1,252,187c-1.61,0-3.23.06-4.86.07.14-1.35.79-6,3.37-8.39,0,0-8.6-7-9.13-9.84s5.91-15.76,5.91-15.76-7.16-6.09-8.42-8.59-4.47-9.67-3.22-12,17.72-8.24,24.17-8.77c6-.5,10.26,7.79,10.85,9a1.15,1.15,0,0,0,.07.15l.14-.11c1-.77,7.06-5.32,11.32-6,4.54-.7,22.43,11.08,24.08,13.62a1,1,0,0,1,.09.17l.15-.13c1-.85,6.45-5.34,11.48-4.53,5.52.89,25.71,11.15,25.26,19.54v.16l.2.06c1,.32,5,1.72,6.42,3C350.89,159.57,351.77,163.5,352.28,166.26Z"/><path class="cls-8" d="M270.91,132.81c.8,1.54,1.52,3.11,2.22,4.7s1.34,3.18,1.95,4.81c.15.41.29.82.43,1.24l.1.31a1.67,1.67,0,0,1,.06.2,2,2,0,0,1,.05.24,3,3,0,0,1,0,.89,5.89,5.89,0,0,1-1.33,2.68,18.27,18.27,0,0,1-4.05,3.58,30.8,30.8,0,0,1-4.63,2.57,31.3,31.3,0,0,1-5,1.78,26.19,26.19,0,0,1-5.2.89,18.79,18.79,0,0,1-5.24-.35.2.2,0,0,1-.15-.24.19.19,0,0,1,.21-.15,26.81,26.81,0,0,0,10-1.49c.8-.27,1.59-.56,2.37-.89s1.55-.66,2.3-1a36.81,36.81,0,0,0,4.35-2.53c.68-.48,1.34-1,2-1.52a13.9,13.9,0,0,0,1.72-1.71,7.18,7.18,0,0,0,.65-.94,3,3,0,0,0,.38-.92,1.36,1.36,0,0,0,0-.39.24.24,0,0,0,0-.09.28.28,0,0,0,0-.11L274,144l-.37-1.23c-1-3.27-2.08-6.54-3-9.86a.19.19,0,0,1,.12-.23A.18.18,0,0,1,270.91,132.81Z"/><path class="cls-8" d="M294.91,182.84c-.08.3-.16.61-.25.91l-.71.1c.08-.39.16-.78.23-1.17a14.17,14.17,0,0,0,.22-3.66,5.07,5.07,0,0,0-.43-1.65,2.54,2.54,0,0,0-.44-.63,6.37,6.37,0,0,0-.65-.59c-.95-.75-2-1.44-3.06-2.12a76.42,76.42,0,0,0-13.39-6.76,24.22,24.22,0,0,0-3.53-1,8.79,8.79,0,0,0-.87-.15c-.29,0-.57-.05-.86-.07a4.57,4.57,0,0,0-1.53.21l-.77.38-.2.1-.19.11-.39.24c-.53.3-1,.66-1.55,1s-1,.73-1.51,1.1l-1.48,1.16c-3.93,3.14-7.68,6.55-11.48,9.92a.18.18,0,0,1-.12,0,.19.19,0,0,1-.14-.31c1.66-1.93,3.4-3.78,5.19-5.6s3.63-3.57,5.57-5.25c.49-.41,1-.83,1.48-1.23s1-.81,1.53-1.19,1-.77,1.62-1.11l.42-.26a4.6,4.6,0,0,1,.44-.25l.93-.46a6.09,6.09,0,0,1,2.21-.36c.35,0,.7,0,1,.08s.67.09,1,.15a24.59,24.59,0,0,1,3.78,1.1,51.4,51.4,0,0,1,6.09,2.74l.49.26.44.23a74.57,74.57,0,0,1,6.56,4,31.08,31.08,0,0,1,3.08,2.36,7.25,7.25,0,0,1,.74.73,3.78,3.78,0,0,1,.58,1,5.5,5.5,0,0,1,.41,2A14.31,14.31,0,0,1,294.91,182.84Z"/><path class="cls-8" d="M273.2,148.32a58.36,58.36,0,0,1,4.89,3.93c1.56,1.4,3.07,2.84,4.51,4.37.36.38.72.77,1.07,1.19.1.11.18.21.27.33a2.52,2.52,0,0,1,.3.48,3.94,3.94,0,0,1,.3.92,11.36,11.36,0,0,1,.14,3.32,29.51,29.51,0,0,1-1.21,6.22.19.19,0,0,1-.25.13.19.19,0,0,1-.14-.2h0c.11-2.08.24-4.16.2-6.19,0-.5,0-1-.09-1.49a8.51,8.51,0,0,0-.24-1.4,3.16,3.16,0,0,0-.21-.55c0-.08-.09-.12-.12-.18l-.24-.26c-.33-.36-.69-.73-1.05-1.1-1.44-1.47-2.91-3-4.32-4.48s-2.8-3.09-4.07-4.77a.18.18,0,0,1,0-.26A.2.2,0,0,1,273.2,148.32Z"/><path class="cls-8" d="M284.13,158.84c2.9-1,5.83-1.85,8.78-2.67s5.9-1.55,8.85-2.27c.74-.18,1.48-.37,2.2-.57.37-.1.71-.19,1.05-.3.12-.06.25-.09.37-.16a2.62,2.62,0,0,0,.34-.24,4,4,0,0,0,1-1.57,13.56,13.56,0,0,0,.61-2.08l.46-2.23.13-.57c0-.16.06-.32.07-.49a4.37,4.37,0,0,0,0-1,9.28,9.28,0,0,0-1.77-4h0a.21.21,0,0,1,.05-.28.18.18,0,0,1,.25,0,9.69,9.69,0,0,1,1.5,1.82,7.66,7.66,0,0,1,1,2.22,6.17,6.17,0,0,1,.11.62c0,.21,0,.43,0,.64s0,.43,0,.65L309,147c-.1.75-.17,1.51-.3,2.29a14.66,14.66,0,0,1-.53,2.35,5.44,5.44,0,0,1-1.39,2.26,3.54,3.54,0,0,1-.58.44,4.52,4.52,0,0,1-.66.33c-.39.13-.77.27-1.14.36-.75.22-1.49.42-2.23.61-3,.8-5.94,1.46-8.94,2.09s-6,1.15-9.05,1.52A.19.19,0,0,1,284,159,.2.2,0,0,1,284.13,158.84Z"/><path class="cls-8" d="M317.68,170.36c-.19,1.41-.46,2.79-.77,4.16-.45,1.88-1,3.73-1.58,5.55l-.87.19c.38-2,.76-4,1.07-6,.1-.68.2-1.36.28-2s.17-1.36.24-2,.1-1.35.12-2a14.1,14.1,0,0,0-.05-2,4.82,4.82,0,0,0-.42-1.69c0-.12-.12-.17-.17-.27l-.32-.39-.67-.77c-.92-1-1.84-2.05-2.78-3.06-1.77-1.94-3.56-3.89-5.25-5.92l-.27-.32a.17.17,0,0,1,0-.26.18.18,0,0,1,.23,0l.37.29a77.25,77.25,0,0,1,6,5.14c1,1,2,1.94,3,3,.24.26.48.51.71.79l.35.4a4,4,0,0,1,.38.6,4.71,4.71,0,0,1,.29.72c.06.18.1.35.14.52a10.62,10.62,0,0,1,.16,1.09A20,20,0,0,1,317.68,170.36Z"/><path class="cls-8" d="M333.86,174.94l-.5.17c-.81-1.55-1.58-3.11-2.42-4.6a26.24,26.24,0,0,0-1.43-2.35,7.74,7.74,0,0,0-1.68-1.88,6.41,6.41,0,0,0-2.3-.87,20.22,20.22,0,0,0-2.72-.35c-1.68-.12-3.39-.12-5.11-.12h-.57a.19.19,0,0,1-.2-.19.2.2,0,0,1,.15-.2l.48-.13a25.1,25.1,0,0,1,5.27-.76c.49,0,1,0,1.48,0s1,.06,1.5.13a7.08,7.08,0,0,1,3,1.06A8.23,8.23,0,0,1,331,167.2c.22.34.42.69.62,1.05l.23.44c.19.38.36.76.52,1.15a23.1,23.1,0,0,1,1,2.75A21.61,21.61,0,0,1,333.86,174.94Z"/><path class="cls-8" d="M343.43,155.6a8.11,8.11,0,0,1,.24,2.5,10.23,10.23,0,0,1-.43,2.51,10.48,10.48,0,0,1-2.64,4.4,12.45,12.45,0,0,1-2,1.61,13.34,13.34,0,0,1-2.27,1.13,14.57,14.57,0,0,1-4.85.95.2.2,0,0,1-.21-.2.21.21,0,0,1,.14-.19,28.06,28.06,0,0,0,4.33-1.85,14,14,0,0,0,3.61-2.68,14.78,14.78,0,0,0,3.72-8.14v0a.19.19,0,0,1,.21-.16A.21.21,0,0,1,343.43,155.6Z"/><path class="cls-9" d="M252,187q-4.29.09-8.65.09c-50.8,0-94.12-9.25-110.81-22.23a6.28,6.28,0,0,1,4.18-4.76c2.71-3,3.31-10.29,8.9-9.09,1-4.64,6.52-4.89,10.4-4.55,3.68-.6,1.91-5.08,8.75-3.37a5.21,5.21,0,0,1,7.92-4.94c3.55-1.8,5.3-6,9.7-3,4.41-2.36,5-5.56,10.9-3.78,2.47-.57,3.16-4,5.81-4.36a5.18,5.18,0,0,1,3.33.92c3.6,2.26,7.32-.83,10.94-1.41,6.61-1.15,5.35,3.57,8.61,3.29,3.16-.65,7.3-3,9.81.28.75.75.27,2.09,1,2.77,2.82.21,6.9-1.55,8.44,1.92.44,1.06.29,2.23.66,3.3,2.2,2.88,5.17,2.41,4.07,7.44-.31,1.73-1,3.78.38,5.22,9.33,6.24,1.06,6.75,2.33,10.52,1.49,2,4.59,3.15,4.49,6.09s-3.42,5-2.52,8c.71,1.85,2.46,3.14,3,5.06C254.7,182.74,252.21,184.9,252,187Z"/><path class="cls-5" d="M176.9,173.09c.15,1.47-1.54,3.94-3,3.63C173.78,175.42,175.52,172.31,176.9,173.09Z"/><path class="cls-5" d="M152.19,154.79c1.39.4,6.33,6.66,5.07,7.39C155.65,161.1,151.21,156.41,152.19,154.79Z"/><path class="cls-5" d="M157.27,151.5c1.23-2.23,3.89-4.72,6.33-4.9C163.11,148.17,158.64,152.51,157.27,151.5Z"/><path class="cls-5" d="M171.42,136.65c1.45-.5,9.09,1.3,8.67,2.71C178.12,139.49,171.69,138.55,171.42,136.65Z"/><path class="cls-5" d="M177.91,148.75c.26,1.51-2.79,8.73-4.11,8.08C174,154.87,176,148.7,177.91,148.75Z"/><path class="cls-5" d="M177,165c1.63.05,4.18,1.89,4,3.5C179.68,168.53,176.19,166.35,177,165Z"/><path class="cls-5" d="M186.3,159.76c.54-1.48,7.24-6.86,8.08-5.64C193.22,155.78,188,160.71,186.3,159.76Z"/><path class="cls-5" d="M189.54,143.63c1.66-2,4.75-4,7.23-3.75C196.06,141.31,190.63,144.9,189.54,143.63Z"/><path class="cls-5" d="M193,127c2.06,1,4.09,4,3.42,6.15C195.31,132.48,191.94,128,193,127Z"/><path class="cls-5" d="M205.69,134.67c.16-1.2,2.68-1.91,3-.71C208.3,135.06,206.2,136,205.69,134.67Z"/><path class="cls-5" d="M210,125.32c1.44,1,1.21,4.45-.48,4.73C209.2,129.06,208.8,125.54,210,125.32Z"/><path class="cls-5" d="M217.37,132.16c.84-1.07,3.72-1.32,4.2,0C220.71,133.07,217.66,133.7,217.37,132.16Z"/><path class="cls-5" d="M224.58,140.6c1.62-.77,4.76,0,5.22,1.69C228.52,142.65,224.52,142.13,224.58,140.6Z"/><path class="cls-5" d="M218.86,150.66c.42,2.06-.26,5.27-2,6.32C216.33,155.56,217.19,150.56,218.86,150.66Z"/><path class="cls-5" d="M209.8,143.89c-.22,1.73-2.2,4.28-3.9,4.15C206,146.62,208.4,143,209.8,143.89Z"/><path class="cls-5" d="M201.76,165.13c1.39-.15,3.69,1.66,3.2,3C203.65,168.18,200.92,166.48,201.76,165.13Z"/><path class="cls-5" d="M191.77,173.78c-.18,2.66-2.72,6-5.31,6.22C186.94,178.87,190.77,173.13,191.77,173.78Z"/><path class="cls-5" d="M154.65,174.66c1.12-1.94,3.78-4,5.93-3.84C160.08,172.26,155.85,175.82,154.65,174.66Z"/><path class="cls-5" d="M140.47,166.06c.11-1.69,2.91-3.44,4.15-2.33C144.06,164.7,141.41,167,140.47,166.06Z"/><path class="cls-5" d="M210.17,175.13c.92,2.56,1.14,6.34-.29,8.54C209,182.24,208.51,175.55,210.17,175.13Z"/><path class="cls-5" d="M217.11,168.18c1.88-2.52,5.63-4.83,8.66-4.52C224.86,164.8,218,169.27,217.11,168.18Z"/><path class="cls-5" d="M227.67,174.83c2,.18,4.87,1.77,5.29,3.72C231.48,178.65,227,176.37,227.67,174.83Z"/><path class="cls-5" d="M243.7,160.45c-1,2.28-3.41,5-5.79,5.3C238.25,164.17,242.28,159.53,243.7,160.45Z"/><path class="cls-5" d="M230.92,153c.83-1.66,3.36-3.42,5.07-2.84C235.49,151.5,232,154.22,230.92,153Z"/><path class="cls-5" d="M240.69,129.17c.26,2.69-.47,6.38-2.39,8.13C237.81,135.61,238.93,129.26,240.69,129.17Z"/><path class="cls-5" d="M248.56,166.64c2-.52,5.14,0,6.17,1.7C253.29,168.91,248.58,168.35,248.56,166.64Z"/><path class="cls-5" d="M245.23,179.83c2.33.44,5.34,2.22,6,4.4C249.65,184.22,244.64,181.43,245.23,179.83Z"/><path class="cls-5" d="M242.74,150.46c1.53-1.85,4.55-3.66,6.83-3.25C248.85,148.59,243.77,151.77,242.74,150.46Z"/><path class="cls-5" d="M166.35,162.53c1.48,1.21,3.19,3.77,2.87,5.58C167.64,167.7,164.88,163.6,166.35,162.53Z"/><path class="cls-5" d="M161.75,141.46c1.91-.6,5.09-.16,6.15,1.47C166.5,143.56,161.81,143.16,161.75,141.46Z"/><path class="cls-5" d="M142.21,158c1-2.38,3.35-5.18,5.79-5.67C147.67,153.93,143.71,158.8,142.21,158Z"/><path class="cls-10" d="M249.31,173.54c1.9-.48,5,1,5.19,2.93C253.31,176.49,248.88,174.84,249.31,173.54Z"/><path class="cls-10" d="M186,136.68c.38,2.29-.29,5.69-2.09,7C183.4,142.21,184.33,136.63,186,136.68Z"/><path class="cls-10" d="M185.38,131.8c2.07-.67,5.57.58,6.09,2.65C190.23,134.47,185.15,133.12,185.38,131.8Z"/><path class="cls-10" d="M203.34,141c.26,2.23-.6,5.52-2.45,6.65C200.46,146.11,201.62,140.92,203.34,141Z"/><path class="cls-10" d="M199.16,132.94c.78-2.57,3.43-5.55,6-5.81C204.7,128.49,200.39,133.72,199.16,132.94Z"/><path class="cls-10" d="M213.17,136.29c2.27,0,5.48,1.16,6.45,3.13C218,139.68,212.92,138,213.17,136.29Z"/><path class="cls-10" d="M222.51,124.6c-1.11,2.15-3.69,4.57-6,4.67C216.91,127.76,221.22,123.54,222.51,124.6Z"/><path class="cls-10" d="M226.57,133.87c.78-1.32,8.36-5.21,8.91-3.84C234,131.44,228.08,135.12,226.57,133.87Z"/><path class="cls-10" d="M234.29,142.22c2.5.11,5.79,2.3,6.1,4.7C239.05,146.54,233.8,143.51,234.29,142.22Z"/><path class="cls-10" d="M227.39,151.54c.25,2.93-1,6.94-3.42,8.5C223.92,158.48,225.92,151.41,227.39,151.54Z"/><path class="cls-10" d="M206.69,159.1a11.61,11.61,0,0,1,4.44-6.14l.53.45c-1,.77-.8-.81-.06-.62C212.44,153.76,207.62,160.25,206.69,159.1Z"/><path class="cls-10" d="M193,163.21c1.57.89,6,6.52,5.28,8.1-.88,0-1.42-1.18,0-.74l-.47.56C196.35,169.82,192,164.75,193,163.21Z"/><path class="cls-10" d="M179.76,160.32a15.32,15.32,0,0,1,4.5-7.53l.34.53c-1.36,0-.19-1.1.29-.52C184.7,154.51,181.37,160.85,179.76,160.32Z"/><path class="cls-10" d="M166.92,151.37c1.82,1,3.81,3.59,3.46,5.57C169,156.43,165.75,152.55,166.92,151.37Z"/><path class="cls-10" d="M150.5,151.26c.37-2.67,1.93-6.09,4.21-7.34C154.79,145.67,152.24,151.59,150.5,151.26Z"/><path class="cls-10" d="M138.24,149.38c1.79-1.17,5.33-1.18,6.57.49C143.55,150.43,138.57,150.83,138.24,149.38Z"/><path class="cls-10" d="M148.87,161.07c1.28.77,4.75,8.09,3.37,8.58C150.89,168.16,147.57,162.5,148.87,161.07Z"/><path class="cls-10" d="M166.44,173.51c.46-1.36,3.05-2.82,4.15-1.89C170.17,172.84,167.31,174.82,166.44,173.51Z"/><path class="cls-10" d="M197.09,178.56c2,.31,4.78,2.07,5.11,4.05C200.7,182.62,196.38,180.07,197.09,178.56Z"/><path class="cls-10" d="M218.46,181.81c2.31-.93,5.89-1.14,7.82.28C224.94,183,218.83,183.46,218.46,181.81Z"/><path class="cls-10" d="M229.19,169.61c.43-2.14,2.29-4.92,4.37-5.32C233.48,165.86,230.75,170.3,229.19,169.61Z"/><path class="cls-10" d="M242.59,172.55c2,1.55,3.43,5.17,2.39,7.35C244.07,179,241.39,173.21,242.59,172.55Z"/><path class="cls-10" d="M215.28,166c.8,1.74.67,4.88-.83,6C213.68,170.74,213.62,166.19,215.28,166Z"/><path class="cls-10" d="M247.36,155.85c.2-1.66,2.59-2,3.56-.85a.27.27,0,0,1-.08.4C249.92,155.85,248.1,156.79,247.36,155.85Z"/><path class="cls-11" d="M346.05,159.86c1.1-.54,2.49,1.12,1.63,1.91C346.6,162.1,345.14,160.81,346.05,159.86Z"/><path class="cls-11" d="M245.69,129.49c.27-1.23,2.83-2.18,3.39-1C248.63,129.61,246.36,130.83,245.69,129.49Z"/><path class="cls-11" d="M249.73,131.84c.66-1.2,3.46-2,4.17-.76C253.2,132.16,250.29,133.31,249.73,131.84Z"/><path class="cls-11" d="M257.58,127.32c1.31-1.14,4.59-.56,4.87,1.14C261.34,128.78,257.64,128.69,257.58,127.32Z"/><path class="cls-11" d="M274.4,134.05c.38-1.35,2.92-2.83,4-1.89C278,133.4,275.35,135.32,274.4,134.05Z"/><path class="cls-11" d="M283.89,130.55c1.44-1.21,3.78-.27,4.43,1.36a.24.24,0,0,1-.25.32C287,132.1,283.94,131.79,283.89,130.55Z"/><path class="cls-11" d="M283.13,134.58c1.18-.78,4.07-.27,4.29,1.13C286.29,136.38,283,136.17,283.13,134.58Z"/><path class="cls-11" d="M311.49,144.52c.26-1.22,2.82-2.17,3.38-1C314.43,144.65,312.16,145.87,311.49,144.52Z"/><path class="cls-11" d="M316.15,139.62c1.37-.82,4.25-.58,4.87.87C319.82,141.23,316.27,141.27,316.15,139.62Z"/><path class="cls-11" d="M319.36,144.2c1.41-.9,4.35-.85,5.17.57C323.4,145.59,319.53,145.82,319.36,144.2Z"/><path class="cls-11" d="M296,161.43c.63-.68,3.2-1.12,3.56-.21C299.2,162.68,295.92,163.17,296,161.43Z"/><path class="cls-11" d="M303.84,158.22c1.3-.54,4,.52,4,1.94C306.56,160.6,303.43,159.76,303.84,158.22Z"/><path class="cls-11" d="M307.91,163.62c1.42-.16,3.77,1.61,3.34,3C309.93,166.67,307.11,165,307.91,163.62Z"/><path class="cls-11" d="M264.86,173.5c-.36-1.19,1.44-3.22,2.46-2.46C267.48,172.25,266.07,174.37,264.86,173.5Z"/><path class="cls-11" d="M271.59,170.3c.9-.86,3.46-.06,3.15,1.16C273.74,172.13,271.3,171.74,271.59,170.3Z"/><path class="cls-11" d="M281.87,174.9c1.05-.64,2.19.91,1.36,1.64C282.2,177,281,175.77,281.87,174.9Z"/><path class="cls-11" d="M273.25,154.74c1.07-.6,3.21.92,2.5,1.94C274.63,157.05,272.54,156,273.25,154.74Z"/><path class="cls-11" d="M323.28,168.52c1.22-.1,1.51,1.77.45,2C322.6,170.49,322.1,168.89,323.28,168.52Z"/><path d="M243.35,188c-24.66,0-48.31-2.17-68.38-6.27-19.7-4-34.56-9.61-43-16.15-5.1-4-7.69-8.2-7.69-12.57,0-9.54,12.52-18.41,35.25-25,22.39-6.46,52.16-10,83.8-10s61.4,3.56,83.8,10c22.73,6.56,35.24,15.43,35.24,25,0,4.9-3.23,9.6-9.61,14-17.5,12-56.11,20-100.76,20.93-1.71,0-3.31.06-4.87.07Zm0-68.21c-31.48,0-61.07,3.54-83.31,10-21.59,6.23-34,14.71-34,23.26,0,3.79,2.36,7.55,7,11.17,17,13.19,61.27,22.05,110.27,22.05l3.78,0c1.56,0,3.15,0,4.85-.07,21.9-.46,42.87-2.67,60.63-6.4,17.35-3.64,30.9-8.56,39.16-14.22,5.88-4,8.85-8.23,8.85-12.51,0-8.55-12.38-17-34-23.26C304.42,123.34,274.83,119.8,243.35,119.8Z"/><path class="cls-12" d="M245.52,145.12s-6.6,1.48-7.61,2.61,3.16,1.79,3.16,1.79-5.61,4.39-3.63,5.71,5.4-4.14,5.4-4.14-1,2.69.89,2.73S245.52,145.12,245.52,145.12Z"/><path class="cls-12" d="M246.29,144.67s-.2,9.08.85,10.7,3.1-3.69,3.1-3.69,3.6,8.53,5.77,6.27-3.36-8.19-3.36-8.19,2.94,2,3.55-.46S246.29,144.67,246.29,144.67Z"/><path class="cls-12" d="M247,144.18s6.28,2.38,7.68,2-1.8-3.3-1.8-3.3,6.86-.71,5.83-2.94-6.56.6-6.56.6,2.13-1.8.57-2.87S247,144.18,247,144.18Z"/><path class="cls-13" d="M246.51,144.87a5.64,5.64,0,0,0,4.32-2.16c-1.41,0-3.44,1.33-5.2.88-1.33-1.15-3.19-7.3-4.42-6.64-1.52,1.21,2.12,5.71,2.87,7.09a27.24,27.24,0,0,1-1.28,5.76c.88.23,2-3.47,2.25-4.51C248.43,148.79,251.08,150.52,246.51,144.87Z"/><path class="cls-12" d="M308.09,156.4s-6.6,1.48-7.61,2.61,3.16,1.79,3.16,1.79-5.61,4.39-3.63,5.71,5.4-4.14,5.4-4.14-1,2.69.89,2.73S308.09,156.4,308.09,156.4Z"/><path class="cls-12" d="M308.86,156s-.2,9.08.85,10.7,3.1-3.69,3.1-3.69,3.6,8.53,5.77,6.27-3.36-8.19-3.36-8.19,2.94,2,3.55-.46S308.86,156,308.86,156Z"/><path class="cls-12" d="M309.6,155.46s6.28,2.37,7.68,2-1.8-3.3-1.8-3.3,6.86-.71,5.83-2.94-6.56.59-6.56.59,2.13-1.79.57-2.86S309.6,155.46,309.6,155.46Z"/><path class="cls-13" d="M309.09,156.15A5.6,5.6,0,0,0,313.4,154c-1.4,0-3.44,1.34-5.2.89-1.33-1.15-3.19-7.31-4.42-6.64-1.52,1.21,2.12,5.71,2.88,7.09a27.89,27.89,0,0,1-1.29,5.76c.88.23,2-3.48,2.25-4.52C311,160.07,313.65,161.8,309.09,156.15Z"/><path class="cls-12" d="M244.76,131.07s3.8,5.75,5.19,6.3.44-3.69.44-3.69,6.05,3.72,6.5,1.34-5.75-3.61-5.75-3.61,2.8-.07,2.13-1.87S244.76,131.07,244.76,131.07Z"/><path class="cls-12" d="M244.08,130.5s8.25-3.19,9.32-4.8-4.48-1.58-4.48-1.58,6.35-6.62,3.5-7.85-6.13,6.25-6.13,6.25.7-3.55-1.73-3.21S244.08,130.5,244.08,130.5Z"/><path class="cls-12" d="M243.36,130s-.2-6.89-1.1-8.07-2.31,3-2.31,3-3.19-6.3-4.82-4.48,3,6.05,3,6.05-2.41-1.37-2.8.52S243.36,130,243.36,130Z"/><path class="cls-13" d="M244.17,130.21a5.71,5.71,0,0,0-3.56-3.31c.56,1.32,2.49,2.78,2.73,4.63-.54,1.7-5.39,5.77-4.33,6.7,1.65,1,4.35-4.15,5.32-5.39a25.72,25.72,0,0,1,5.67-.92c-.13-.93-3.88-.61-4.91-.47C247,126.92,247.56,123.74,244.17,130.21Z"/><path class="cls-12" d="M175.3,154.41s3-6.21,2.74-7.68-3.38,1.51-3.38,1.51.08-7.1-2.19-6.27-.15,6.79-.15,6.79-1.49-2.36-2.7-.87S175.3,154.41,175.3,154.41Z"/><path class="cls-12" d="M175.16,155.29s-7-5.44-8.9-5.54.94,4.66.94,4.66-8.94-2.06-8.54,1,8.52,2,8.52,2-3.41,1.22-1.87,3.14S175.16,155.29,175.16,155.29Z"/><path class="cls-12" d="M175.08,156.17s-5.81,3.71-6.36,5.09,3.71.47,3.71.47-3.76,6-1.36,6.43,3.66-5.66,3.66-5.66.06,2.77,1.88,2.13S175.08,156.17,175.08,156.17Z"/><path class="cls-13" d="M174.87,155.36a5.72,5.72,0,0,0-1,4.75c.85-1.15,1.11-3.56,2.57-4.72,1.74-.41,7.72,1.67,8,.29,0-1.94-5.8-1.61-7.36-1.81a26.07,26.07,0,0,1-3.7-4.39c-.73.58,1.47,3.64,2.12,4.45C170.6,154.62,167.58,155.77,174.87,155.36Z"/><path class="cls-12" d="M230.14,136.8s1.58-6.76,1-8.18-2.94,2.14-2.94,2.14-1.4-7.11-3.41-5.85,1.27,6.81,1.27,6.81-1.93-2.08-2.78-.37S230.14,136.8,230.14,136.8Z"/><path class="cls-12" d="M230.19,137.71s-7.85-4.14-9.72-3.87,1.87,4.48,1.87,4.48-9-.38-8,2.61,8.62.46,8.62.46-3,1.86-1.14,3.49S230.19,137.71,230.19,137.71Z"/><path class="cls-12" d="M230.3,138.61s-4.81,4.79-5.06,6.26,3.67-.22,3.67-.22-2.37,6.66,0,6.68,2.34-6.34,2.34-6.34.64,2.75,2.25,1.77S230.3,138.61,230.3,138.61Z"/><path class="cls-13" d="M229.92,137.83a6,6,0,0,0,0,4.94c.57-1.32.32-3.77,1.48-5.2,1.59-.73,7.78.23,7.74-1.2-.4-1.94-5.92-.53-7.45-.43a26.31,26.31,0,0,1-4.48-3.7c-.59.72,2.17,3.37,3,4.06C225.66,137.9,223,139.6,229.92,137.83Z"/><path class="cls-12" d="M242.73,137.69s-.9-4.93-7.48-7.08C235.25,130.61,233.76,138.61,242.73,137.69Z"/><path class="cls-12" d="M242.73,137.38a6.77,6.77,0,0,0-7.18,6.77S239.59,143,242.73,137.38Z"/><path d="M351.31,184.53c-.49.89-1,1.79-1.54,2.7-3.21,3.39-6.71,6.92-7.95,8.06-4.31,3.2-10.49,2.56-14.44-.91-4.79-3.25-11.09-1.41-14.48,2.89-6.25,6.32-11.68,13.18-21.2,7-3-2.2-6-5.45-9.3-7.26-4.92-2.65-10,.58-14.23,3l-7,3.83c-8.49,5-14.18,8.28-22.67.85L232,200c-2-1.48-4.1-3.15-6.65-3.43a10.42,10.42,0,0,0-7.11,1.58c-2.21,1.3-8.31,4.65-10.48,5.9-4.1,2.85-9.81,3.58-14.06.63-5-3.51-11.3-8.1-16.28-11.66-10.93-8.82-20.25,10.66-31.49,1.16-2.5-2.07-7.2-5.9-10.47-8.61-.19-.34-.38-.67-.56-1l5.24,4.09c3.81,2.62,8.34,7.92,13.47,7.22,7.72-1,14.71-10,22.88-5.08,5.75,3.77,12.42,8.68,18.1,12.57,3.8,2.59,8.74,1.76,12.32-.78,19.92-12,17.93-9.79,35.86,3,5.61,4.4,12.51-.47,17.56-3.23l7.05-3.81c9.55-5.81,14-5.81,22.24,2,1.91,1.58,3.85,3.56,6.34,4.2,7,2.31,11.66-4.27,16.06-8.38,3.55-4.34,10-6.36,15.08-3.43,3.29,2.42,6.44,4.33,10.76,3.24C342.06,195.37,347.12,189.06,351.31,184.53Z"/><path class="cls-4" d="M151.49,187.62c.17,1.4-.35,2.61-1.16,2.71s-1.6-1-1.77-2.36.35-2.61,1.16-2.71S151.33,186.22,151.49,187.62Z"/><path class="cls-4" d="M297.34,198.09c-.17,1.4.35,2.62,1.16,2.71s1.6-1,1.77-2.35-.35-2.62-1.16-2.71S297.51,196.69,297.34,198.09Z"/><path class="cls-4" d="M318.55,199.44c-.17,1.4.35,2.61,1.16,2.71s1.61-1,1.77-2.36-.35-2.61-1.16-2.71S318.72,198,318.55,199.44Z"/><path class="cls-4" d="M336,186.28c-.17,1.4.35,2.61,1.16,2.71s1.6-1,1.77-2.36-.35-2.61-1.16-2.71S336.18,184.88,336,186.28Z"/><path class="cls-4" d="M277.06,203.6c-.17,1.4.35,2.61,1.16,2.71s1.61-1,1.77-2.36-.35-2.61-1.16-2.71S277.23,202.2,277.06,203.6Z"/><path class="cls-4" d="M224.82,206.46c.17,1.4-.35,2.61-1.16,2.71s-1.61-1-1.77-2.36.35-2.61,1.16-2.71S224.65,205.06,224.82,206.46Z"/><path class="cls-4" d="M200.07,198.65c.16,1.4-.36,2.61-1.17,2.71s-1.6-1-1.77-2.36.35-2.61,1.16-2.71S199.9,197.25,200.07,198.65Z"/><path class="cls-4" d="M172.44,197.29c.17,1.4-.35,2.61-1.16,2.71s-1.6-1-1.77-2.36.35-2.61,1.16-2.71S172.27,195.89,172.44,197.29Z"/><path class="cls-4" d="M249,200.1c0,1.41-.58,2.57-1.39,2.6s-1.52-1.09-1.57-2.5.58-2.57,1.39-2.6S248.94,198.69,249,200.1Z"/><path class="cls-14" d="M460.67,208.53c1.19,7.4,1.64,20.8-.45,31.25-3,15.06-15.41,26.41-17.62,30.48s-24.46,24.19-47.19,29.48-29.45,4.63-39.36,5.68-27.23.57-45.73-18.21c0,0-4.08-2.73-4.7-4.39v0a.73.73,0,0,1,.11-.81,4,4,0,0,1,.48-.36c4.12-2.78,31.33-17.76,39.65-21.45,8.83-3.91,38.51-17.35,48.6-22.55S423,223.4,433.33,217.1c10.15-6.15,22.79-14.31,25.34-14.13a.76.76,0,0,1,.16,0c.27.07.55.5.82,1.2A23.17,23.17,0,0,1,460.67,208.53Z"/><path class="cls-15" d="M459.65,204.2c.18,8.91-1.41,22.48-2.8,26.5-1.91,5.56-8.83,18.86-16.56,28.2s-22,19-32.25,23.25-28.54,9.08-35.82,10.61-33.36.31-41.65-3.1c-6.71-2.76-20.08-5.8-25-6.86a.73.73,0,0,1,.11-.81,4,4,0,0,1,.48-.36c4.12-2.78,31.33-17.76,39.65-21.45,8.83-3.91,38.51-17.35,48.6-22.55S423,223.4,433.33,217.1c10.15-6.15,22.79-14.31,25.34-14.13a.76.76,0,0,1,.16,0C459.1,203.07,459.38,203.5,459.65,204.2Z"/><path class="cls-16" d="M402.61,264.92c.19,3.12-3.32,4-5.69,4.35-7.86,6.52-12.71-.52-3.32-4.38C395.14,261.85,401.75,261,402.61,264.92Z"/><path class="cls-16" d="M446.58,219c-.42,2.09-8,8.49-10,7.42-3.51-1,2.33-7.47,3.67-8.82C442.08,215.21,447.42,214.9,446.58,219Z"/><path class="cls-16" d="M445.52,234.61c2.29,3.46-2.49,5.53-3.19,8.52-.45,4.78-2.12,8.14-6.59,10.19-6.15,1.75-8.58,11.93-15,8.9-2.94-1.64-3.15-5.92-1-8.34,2.39-2.11,4.61-4.28,5-7.66.7-4.12,4.69-5.48,7.76-7.44C435.91,236,441.14,230.37,445.52,234.61Z"/><path class="cls-16" d="M372.31,264.56c6.36,7.25-6.44,12.2-12,13.34-4.83.65-15.3,6.78-18.37,1.46-1.4-2.91,1.53-5.3,3.9-6.33,2.75-1.29,4.7-3.67,6.8-5.81,6.57-6.76,8.21-3.14,15.65-3.06C369.66,263.84,371.17,263.59,372.31,264.56Z"/><path class="cls-16" d="M385.45,253.67c-1,2.55-5.39,2.81-7.68,5.42-2.89,2.87-8.37,0-5.07-3.74C374.74,253,386.22,247,385.45,253.67Z"/><path class="cls-16" d="M326.8,279.8c-.28-.88-1.13-.52-1.75-.42h0a1.34,1.34,0,0,0-.35,0c-1.56-.14-.37,1.8.63,1.71l-.21-.05C325.89,281.29,327.15,280.77,326.8,279.8Z"/><path class="cls-16" d="M329.77,276.9a7.21,7.21,0,0,0-2.26.18.82.82,0,0,0,.11,1.61,14.62,14.62,0,0,0,1.62.06A1,1,0,0,0,329.77,276.9Z"/><path class="cls-16" d="M334.19,283.28c-.75-.29-2.81-1.23-2.76.24a3.72,3.72,0,0,0,2.34,1.4A.9.9,0,0,0,334.19,283.28Z"/><path class="cls-16" d="M389.55,247.34c-.77-1.09-2.63.81-3,1.55,0,.68.72.74,1.16.41l-.16.06C388.35,249,390.22,248.57,389.55,247.34Z"/><path class="cls-16" d="M391.63,250.35c-.48-.7-1.24-.22-1.76.14-.32.12-.69,0-1,.26C387.66,252.77,392.73,252.19,391.63,250.35Z"/><path class="cls-16" d="M391,283.09c-.57-.38-1.27,0-1.91-.06h.19c-.73-.31-1.5.53-.79,1.1a3.68,3.68,0,0,0,1.57.54l-.22,0C390.8,285,392,283.86,391,283.09Z"/><path class="cls-16" d="M447.67,224c-.94-.7-1.7.83-2.11,1.51-.42.87.72,1.14,1.19.52l-.14.1C447.21,225.68,448.47,224.81,447.67,224Z"/><path class="cls-16" d="M450.61,226c-.46-1-1.48-.59-1.53.41a1.1,1.1,0,0,1-.29.59h0l0,0,0,0,0,0s0,0,.06-.06c-1.09.51-.27,1.66.67,1.16A1.75,1.75,0,0,0,450.61,226Z"/><polygon class="cls-16" points="448.79 227.01 448.79 227.01 448.78 227.01 448.79 227.01"/><path class="cls-16" d="M454.88,210.05c-1.19-1.7-3.06,2.58-1.1,2.11C454.36,211.67,455.44,210.91,454.88,210.05Z"/><path class="cls-17" d="M460.67,208.53a72.31,72.31,0,0,1-8.93,34.23,129,129,0,0,1-11,17.46A53.7,53.7,0,0,1,434,267.6a61,61,0,0,1-8.26,6.06c-12.11,7.56-25.07,13.88-38.92,17.29a111.39,111.39,0,0,1-41.67,2.19,164.7,164.7,0,0,1-20.47-4.3,169.27,169.27,0,0,1-19-6v0a.73.73,0,0,1,.11-.81,4,4,0,0,1,.48-.36c1.2.31,2.39.65,3.59.95,3.33.83,6.6,1.94,9.89,2.9s6.61,1.86,9.94,2.69a140.43,140.43,0,0,0,20.24,3.6A110.26,110.26,0,0,0,390.62,288a107.85,107.85,0,0,0,19.29-7.6c3.21-1.63,6.36-3.39,9.5-5.16,3-1.67,5.91-3.39,8.7-5.34a55.57,55.57,0,0,0,13.81-14.38,129.81,129.81,0,0,0,10.42-17.8A69,69,0,0,0,458.67,203a.76.76,0,0,1,.16,0c.27.07.55.5.82,1.2A23.17,23.17,0,0,1,460.67,208.53Z"/><path class="cls-18" d="M337.92,267.18c1.52-2.22,4.79-4.3,7.34-3.92C344.48,264.34,338.73,268.21,337.92,267.18Z"/><path class="cls-18" d="M345.91,266.66c1.14-1.83,3.68-3.77,5.72-3.56C351.09,264.47,347,267.77,345.91,266.66Z"/><path class="cls-18" d="M400.57,240.62c.68-1.34,7.92-6.1,8.59-4.87C407.79,237.26,402.12,241.62,400.57,240.62Z"/><path class="cls-18" d="M410.07,238.18c.69-.85,6.86-5,7.22-4C416.43,236,411.52,239.57,410.07,238.18Z"/><path class="cls-18" d="M423.81,227c.81-1.51,3.2-3.07,4.74-2.46C428.05,225.79,424.77,228.21,423.81,227Z"/><path class="cls-18" d="M401.74,273.54c.68-1,3.25-2.23,4.18-1.52C405.57,273.41,402.4,275.08,401.74,273.54Z"/><path class="cls-14" d="M414.37,267.41c-.33,8-2.73,22.06-7.21,32.5-6.44,15-22,24.18-25.24,27.94s-31.15,19.87-56.4,20.41-32.22-1.62-43-2.69-29-5.37-44.57-29c0,0-3.75-3.74-4-5.6a0,0,0,0,1,0,0,.76.76,0,0,1,.29-.81,4,4,0,0,1,.59-.27c5-2,37.05-11.67,46.67-13.7,10.21-2.14,44.58-9.66,56.4-12.88s33.3-8.6,45.65-12.89c12.09-4.21,27.25-9.95,29.92-9.19a.44.44,0,0,1,.16.06c.27.13.48.64.61,1.43A23.64,23.64,0,0,1,414.37,267.41Z"/><path class="cls-15" d="M414.22,262.68c-1.72,9.33-6.33,23.13-8.67,27-3.22,5.37-13.43,17.73-23.63,25.78s-27.39,15-39.21,17.19-32.22,3.22-40.28,3.22-35.45-7-43.51-12.35c-6.51-4.35-20-10.44-25-12.62a.76.76,0,0,1,.29-.81,4,4,0,0,1,.59-.27c5-2,37.05-11.67,46.67-13.7,10.21-2.14,44.58-9.66,56.4-12.88s33.3-8.6,45.65-12.89c12.09-4.21,27.25-9.95,29.92-9.19a.44.44,0,0,1,.16.06C413.88,261.38,414.09,261.89,414.22,262.68Z"/><path class="cls-16" d="M340.65,313.52c-.46,3.29-4.36,3.41-7,3.29-9.74,5.08-13.37-3.32-2.57-5.29C333.39,308.68,340.59,309.2,340.65,313.52Z"/><path class="cls-16" d="M397.18,275.26c-.9,2.09-10.31,7.1-12.19,5.55-3.5-1.81,4.08-7.28,5.8-8.4C393.22,270.32,398.94,271.16,397.18,275.26Z"/><path class="cls-16" d="M392.69,291.3c1.69,4.11-3.83,5.22-5.21,8.18-1.52,4.89-4,8-9.19,9.19-6.9.48-11.66,10.57-17.82,6-2.76-2.35-2.06-6.87.7-8.93,3-1.67,5.81-3.46,7-6.9,1.62-4.14,6.14-4.68,9.82-6.05C382.2,290.63,389,285.92,392.69,291.3Z"/><path class="cls-16" d="M308.6,306.51c5.18,9-9.45,11.32-15.56,11.3-5.26-.38-17.69,3.72-19.8-2.51-.85-3.33,2.77-5.19,5.5-5.74,3.2-.74,5.78-2.8,8.47-4.57,8.42-5.62,9.38-1.48,17.26.24C305.94,305.18,307.6,305.25,308.6,306.51Z"/><path class="cls-16" d="M324.88,298c-1.62,2.43-6.32,1.74-9.32,4-3.68,2.36-8.88-1.82-4.57-5C313.67,295,327.13,291.25,324.88,298Z"/><path class="cls-16" d="M257.05,312.44c-.1-1-1.09-.78-1.77-.81h0a1.15,1.15,0,0,0-.36-.11c-1.64-.49-.79,1.8.29,1.92l-.21-.09C255.77,313.8,257.21,313.53,257.05,312.44Z"/><path class="cls-16" d="M260.82,310.07a7.87,7.87,0,0,0-2.43-.31.87.87,0,0,0-.23,1.71,16.19,16.19,0,0,0,1.7.41A1,1,0,0,0,260.82,310.07Z"/><path class="cls-16" d="M264.14,317.69c-.74-.47-2.71-1.9-3-.35.07.62,1.56,1.84,2.18,2A1,1,0,0,0,264.14,317.69Z"/><path class="cls-16" d="M330.59,292.33c-.58-1.31-3,.26-3.53,1-.15.7.61.92,1.14.68l-.18,0C329,293.81,331,293.75,330.59,292.33Z"/><path class="cls-16" d="M332.15,295.92c-.36-.83-1.27-.5-1.9-.24-.36.06-.74-.13-1.07.07C327.41,297.57,332.92,298.08,332.15,295.92Z"/><path class="cls-16" d="M324.46,329.93c-.53-.52-1.35-.28-2-.48l.19,0c-.7-.47-1.7.22-1.07,1a4.11,4.11,0,0,0,1.54.92l-.21-.09C323.81,331.9,325.33,331,324.46,329.93Z"/><path class="cls-16" d="M397.25,280.71c-.85-.94-2,.49-2.56,1.11-.63.81.52,1.34,1.15.81l-.17.07C396.41,282.36,397.93,281.73,397.25,280.71Z"/><path class="cls-16" d="M399.94,283.44c-.26-1.18-1.44-.93-1.71.1a1.19,1.19,0,0,1-.44.55h0l-.05,0,0,0,0,0,.08-.05c-1.28.28-.65,1.67.45,1.35A1.87,1.87,0,0,0,399.94,283.44Z"/><polygon class="cls-16" points="397.79 284.09 397.79 284.09 397.78 284.09 397.79 284.09"/><path class="cls-16" d="M407.9,267.74c-.89-2-3.8,2-1.61,1.95C407,269.31,408.31,268.75,407.9,267.74Z"/><path class="cls-17" d="M414.37,267.41a76.19,76.19,0,0,1-16.83,33.76A138.07,138.07,0,0,1,382.08,317a57.68,57.68,0,0,1-8.76,6.22,64.79,64.79,0,0,1-10.06,4.51c-14.47,5.23-29.57,9-45,9.51a122.24,122.24,0,0,1-44.66-6.84,180,180,0,0,1-20.78-9A185.47,185.47,0,0,1,233.94,311a0,0,0,0,1,0,0,.76.76,0,0,1,.29-.81,4,4,0,0,1,.59-.27c1.2.58,2.39,1.19,3.6,1.77,3.35,1.6,6.58,3.47,9.87,5.19s6.6,3.39,10,5a153.58,153.58,0,0,0,20.7,8.19,121.46,121.46,0,0,0,44,4.95,118,118,0,0,0,22.09-3.71c3.76-1,7.48-2.14,11.19-3.3,3.5-1.09,7-2.24,10.38-3.67a59.45,59.45,0,0,0,17.74-12A137.32,137.32,0,0,0,399.26,296a72.57,72.57,0,0,0,14.19-34.81.44.44,0,0,1,.16.06c.27.13.48.64.61,1.43A23.64,23.64,0,0,1,414.37,267.41Z"/><path class="cls-18" d="M271.56,301.72c2.09-2,6-3.43,8.63-2.48C279.13,300.19,272.2,303,271.56,301.72Z"/><path class="cls-18" d="M280.14,302.93c1.61-1.66,4.72-3.14,6.84-2.47C286.11,301.77,281.09,304.32,280.14,302.93Z"/><path class="cls-18" d="M343.72,287.73c1-1.25,9.72-4.63,10.16-3.2C352.1,285.81,345.15,289.12,343.72,287.73Z"/><path class="cls-18" d="M354.33,287.27c.91-.74,8.36-3.75,8.52-2.59C361.55,286.34,355.57,289,354.33,287.27Z"/><path class="cls-18" d="M371.3,278.63c1.18-1.41,4.05-2.51,5.55-1.54C376.06,278.28,372.06,280.08,371.3,278.63Z"/><path class="cls-18" d="M337.87,322.32c.94-.86,3.93-1.61,4.77-.67C342,323,338.25,324.07,337.87,322.32Z"/><path class="cls-17" d="M312.59,288.59c27.85-6.63,56.52-14.74,83.69-23.67,5.8-1.38,11.7-4.31,17.65-4.27,2.68,4.17.91,12.66.55,17.56-.91,5.74-2,11.62-5,16.7a.2.2,0,0,1-.34-.2c4.21-9,6.2-23.27,4.06-32.89l.08,0c-16.1,3.74-33.82,10.56-49.7,15.19C347.14,281.49,328.45,286.47,312.59,288.59Z"/><path class="cls-19" d="M.37,179.79s-2.58,2.71,5.87,6.73,13.23,4.72,22.68,7.08,14.63.78,22.64-3S66.05,181,72.25,177.79s8.8-7.74,6.48-11.39-14.67.41-24.55,7.78-19,9.33-25.65,9.2S2.07,179,.37,179.79Z"/><path class="cls-13" d="M84,159.83c-.39-.33-.86.27-.57.64a1.9,1.9,0,0,1,.27,1.25,3,3,0,0,1-.45,1.24,4.53,4.53,0,0,1-1,1.18l-.27.23-.21.15,0,0a4.09,4.09,0,0,1-.46.25c-2.12-1.69-4.46-.29-5.25.28a11.39,11.39,0,0,1,2.57,4.1,6.4,6.4,0,0,1,.36,1.79c1.91-1.06,4.28-2.81,3.5-4.72l.22-.14a5.23,5.23,0,0,0,2.15-2.81,4.55,4.55,0,0,0,.14-1.91A2.46,2.46,0,0,0,84,159.83Z"/><path class="cls-20" d="M11.8,182.82c3.53.55,7.22,1.68,10.69,2.47,9.27,2-1.71,1.57-3.94.85C17.35,185.93,11.21,184,11.8,182.82Z"/><path class="cls-20" d="M32,185.43c1.16-1,9.79-3.43,5.26-.33C36.22,185.88,32.25,186.94,32,185.43Z"/><path class="cls-20" d="M53.15,185.84c.91-1.81,3.43-3.82,5.36-3.47C58.06,183.78,54.33,187,53.15,185.84Z"/><path class="cls-19" d="M30.39,170.21s-3.49,1.34,2.42,8.59,9.93,9.94,17.45,16.11,12.89,7,21.76,7,17.18-2.42,24.16-2.69,11.28-3.22,10.75-7.52-13.43-5.91-25.52-3.49-21.21.27-27.12-2.69S32.27,170.21,30.39,170.21Z"/><path class="cls-13" d="M114.49,188c-.22-.47-.89-.12-.79.33a1.88,1.88,0,0,1-.29,1.25,2.77,2.77,0,0,1-1,.92,4.49,4.49,0,0,1-1.42.64l-.34.09-.26,0h0l-.52,0c-1.19-2.44-3.91-2.18-4.86-2a11.28,11.28,0,0,1,.56,4.8,6,6,0,0,1-.44,1.77c2.18-.14,5.07-.71,5.19-2.76l.26,0a5.17,5.17,0,0,0,3.14-1.61,4.66,4.66,0,0,0,1-1.66A2.55,2.55,0,0,0,114.49,188Z"/><path class="cls-20" d="M39.42,177.84c2.95,2,5.8,4.61,8.6,6.81,7.53,5.75-2.22.69-3.92-.92C43.1,183,38.4,178.61,39.42,177.84Z"/><path class="cls-20" d="M56.51,188.83c1.47-.37,10.31,1.11,4.9,2C60.17,191.07,56.12,190.33,56.51,188.83Z"/><path class="cls-20" d="M75.49,198.3c1.59-1.25,4.73-2,6.32-.84C80.8,198.53,76.05,199.85,75.49,198.3Z"/><path class="cls-21" d="M45,179.19c4.52,2.22,8.86,5.29,13.2,7.46C55.15,187.77,45.06,181.83,45,179.19Z"/><path class="cls-22" d="M36.18,182.72c3.66,3,7.24,6.44,10.72,9.34-4.76-.57-8.89-4.94-11-9.12A.19.19,0,0,1,36.18,182.72Z"/><path class="cls-13" d="M175.18,277.82l3.48.38a1,1,0,0,0,1-1,1,1,0,0,0-1-1c-9.1-1-18.2-2-27.3-3.05-3-.34-5.91-.69-8.87-1.05l3.78-.26,14.14-1c4.71-.33,9.44-.58,14.14-1.05,1.16-.11,2.3-.27,3.45-.45.86-.14.62-1.47-.2-1.48-4.71-.1-9.44.43-14.14.76l-14.14,1-11.86.85c1.31-.48,2.62-.95,3.93-1.4,2.79-.95,5.58-1.88,8.4-2.72q8.4-2.5,17-4.25c1.6-.33,3.21-.63,4.82-.93l2.46-.43c.83-.15,1.61-.36,2.42-.58a.73.73,0,0,0-.19-1.42,20.83,20.83,0,0,0-2.23.12c-.74.1-1.49.21-2.23.33-1.45.23-2.9.49-4.35.76-2.9.55-5.77,1.19-8.63,1.9A169.66,169.66,0,0,0,142.13,267c-1.57.57-3.12,1.18-4.67,1.8l-1.21.48a1.23,1.23,0,0,0-.38.13l-.12.07a13.6,13.6,0,0,0-2.64,1.33l-.5,0-.23-.11a11,11,0,0,0-2.88-6.41,43.54,43.54,0,0,0-6.81-6.05,104,104,0,0,0-16-10.26c-3.19-1.65-6.47-3.1-9.79-4.43-.51-.21-.89.67-.38.9a123.14,123.14,0,0,1,16,9q3.84,2.52,7.49,5.31a63.25,63.25,0,0,1,6.82,5.73,14.48,14.48,0,0,1,2.71,3.61,6.6,6.6,0,0,1,.54,1.52c-3.92-1.84-7.88-3.6-11.85-5.31q-8.78-3.78-17.71-7.18l-1.09-.41a9.49,9.49,0,0,0-2.84-3.69,38.54,38.54,0,0,0-3.73-3,59.84,59.84,0,0,0-8.16-4.75c-4.17-2.06-8.42-3.93-12.74-5.65a0,0,0,0,0,0,0c.25-.74-.47-1.55-.86-2.13s-.86-1.18-1.32-1.74a22.93,22.93,0,0,0-6.46-5.37,32.21,32.21,0,0,0-3.84-1.73c-.44-.17-.76.58-.33.77A23.09,23.09,0,0,1,65.68,234a25,25,0,0,1,2.63,2.91c.39.51.76,1,1.12,1.58l.15.25q-2.2-.86-4.43-1.65c-3.8-1.36-7.65-2.58-11.53-3.7-.65-.19-.9.78-.28,1q10,3.38,19.76,7.64c3.17,1.4,6.32,2.84,9.43,4.38A71.58,71.58,0,0,1,90.64,251a39.23,39.23,0,0,1,4,3c.56.49,1.09,1,1.62,1.57q-6.81-2.5-13.72-4.79-9.06-3-18.26-5.55c-2.36-.66-4.72-1.29-7.09-1.91a1,1,0,0,0-.13-.55,14.13,14.13,0,0,0-4.42-4.9,15.74,15.74,0,0,0-6-2.39c-.76-.15-1.1,1-.33,1.18a13.77,13.77,0,0,1,8.3,6c-2.92-.73-5.85-1.42-8.79-2-.79-.17-1.58-.32-2.37-.47a.57.57,0,0,0-.3,1.1c6.1,1.69,12.23,3.28,18.32,5s12.15,3.63,18.16,5.62,12,4.1,17.92,6.34,11.76,4.56,17.56,7l1.7.74c-7.09-2-14.21-3.93-21.32-5.87Q81.28,256.26,67,252.77c-9.56-2.3-19.15-4.41-28.82-6.22-1.15-.22-2.3-.4-3.46-.53-.59-.07-.68.86-.14,1,4.7,1.29,9.54,2.15,14.28,3.26s9.51,2.25,14.26,3.43c9.53,2.37,19,4.9,28.5,7.49s18.83,5.2,28.23,7.85l1,.28q-12-1.65-24-3.6c-9.07-1.5-18.11-3.15-27.11-5s-17.85-4-26.73-6.13l-3.39-.85a.59.59,0,0,0-.32,1.13c6,1.81,12.13,3.43,18.25,4.91a27.24,27.24,0,0,1-3.5-.13,24.49,24.49,0,0,1-3.51-.59c-.59-.14-1.17-.3-1.75-.47s-1.17-.44-1.78-.59a.48.48,0,0,0-.36.87A13,13,0,0,0,50,260.42a21.91,21.91,0,0,0,3.74.9,22.45,22.45,0,0,0,3.84.24c.63,0,1.26-.06,1.88-.12.35,0,.69-.07,1-.13a1.18,1.18,0,0,0,1-.59c1.48.35,3,.68,4.44,1,9,2,18.08,3.73,27.17,5.3s18.16,2.93,27.26,4.19l.59.08c-4.49-.05-9-.43-13.43-.84q-7-.63-13.9-1.43-13.75-1.57-27.43-3.78c-10.31-1.65-20.57-3.63-30.82-5.56-.68-.13-1,.87-.29,1,9,2.25,18.17,4,27.34,5.63s18.37,3,27.6,4.12,18.69,2.33,28.07,2.71c1.85.07,3.7.08,5.54.05a51.46,51.46,0,0,1-7.89,1.56A109.06,109.06,0,0,1,97,274.73q-9.58-.62-19.13-1.68t-19-2.57c-6.33-1-12.64-2.16-18.94-3.32l-2.41-.47c-.7-.14-1,.91-.29,1.08,6.25,1.49,12.53,2.84,18.87,4q3.15.55,6.31,1c-.61.2-1.22.36-1.84.5a23,23,0,0,1-4.13.56c-.5,0-.68.85-.13.93a12.78,12.78,0,0,0,2.3.21,16.39,16.39,0,0,0,2.21-.23,13.86,13.86,0,0,0,2.11-.53c.37-.12.73-.25,1.09-.39a2,2,0,0,0,1-.64q5.14.79,10.3,1.43,9.59,1.2,19.21,1.94a130.2,130.2,0,0,0,18.94.49c1.57-.11,3.15-.28,4.71-.52a82.83,82.83,0,0,1-15.37,2.24c-6.14.35-12.32.32-18.48.1S72.08,278.18,66,277.5c-3-.35-6.08-.73-9.11-1.18s-6.09-1-9.13-1.53c-.75-.13-1.51-.23-2.26-.32s-.69.87-.14,1a78,78,0,0,0,9.1,2c3,.56,6.12,1.06,9.19,1.48q9.18,1.26,18.43,1.72a75.74,75.74,0,0,1-9.91,1.93,84.88,84.88,0,0,1-14.78.52c-2.79-.15-5.58-.41-8.35-.8-.61-.09-.89.81-.26.95a73,73,0,0,0,30,.08A69.42,69.42,0,0,0,87,281.21a.83.83,0,0,0,.45-.31c4.46.13,8.93.13,13.39,0a87.08,87.08,0,0,0,18.05-2.4q3-.75,5.86-1.75c-.65.58-1.31,1.13-2,1.66a40.38,40.38,0,0,1-6.52,4.1A71.29,71.29,0,0,1,100.09,288c-1.64.39-3.29.73-4.93,1.09s-3.39.76-5.09,1.1c-.59.11-.33,1,.25.89,1.53-.24,3.07-.41,4.6-.65s3-.51,4.57-.8a86.27,86.27,0,0,0,9-2.16,49.71,49.71,0,0,0,14.8-7.06,35.25,35.25,0,0,0,3.48-2.86,24.12,24.12,0,0,0,2.53-2.62l1.64-.72c.49.35,1,.66,1.52,1,.71.45,1.42.88,2.14,1.3,1.44.85,2.9,1.65,4.37,2.43q4.43,2.34,9,4.42a181.87,181.87,0,0,0,18.73,7.29,98.15,98.15,0,0,0,10.87,3.09.94.94,0,0,0,.5-1.82c-3.18-1-6.42-1.82-9.6-2.83s-6.28-2.09-9.37-3.26a188.79,188.79,0,0,1-18.07-8c-1.66-.84-3.3-1.7-4.94-2.57L133.62,274l-1-.56h0l.69.29c4.32,1.92,8.58,4,13,5.66a220.59,220.59,0,0,0,27.29,7.91c1.13.27,2.28.51,3.43.73a1,1,0,0,0,.51-1.87c-4.53-1.3-9.16-2.26-13.72-3.47s-9.17-2.56-13.66-4.13c-4.21-1.47-8.28-3.23-12.33-5.07,3.31.41,6.63.82,9.94,1.21Q161.46,276.33,175.18,277.82Z"/><path class="cls-7" d="M130.72,275.78a.89.89,0,0,1-.89-.86,11.31,11.31,0,0,1,1.57-6,.89.89,0,0,1,1.22-.3.88.88,0,0,1,.3,1.21,9.5,9.5,0,0,0-1.32,5.07.88.88,0,0,1-.86.91Z"/><path class="cls-7" d="M132.49,277h-.06a.89.89,0,0,1-.83-.94,22.56,22.56,0,0,1,1.34-6.34.89.89,0,1,1,1.66.62,20.77,20.77,0,0,0-1.23,5.83A.89.89,0,0,1,132.49,277Z"/><path class="cls-7" d="M134.17,271a7.08,7.08,0,0,0,.55,4.17,10.58,10.58,0,0,0,2.43,3.41,22.33,22.33,0,0,0,3.44,2.6c.62.4,1.25.78,1.9,1.17l1.92,1.2a21.39,21.39,0,0,1,3.65,2.91,12.93,12.93,0,0,1,1.52,1.84,10.67,10.67,0,0,1,1.09,2.16,7.81,7.81,0,0,1,.08,4.81,6.31,6.31,0,0,1-1.14,2.12,4.77,4.77,0,0,1-1.92,1.39.2.2,0,0,1-.26-.11.21.21,0,0,1,.09-.25,5,5,0,0,0,2.24-3.41,6.91,6.91,0,0,0-.4-4,10.42,10.42,0,0,0-2.45-3.35,24.21,24.21,0,0,0-3.45-2.61c-.62-.39-1.26-.77-1.9-1.16s-1.28-.8-1.91-1.23a18.77,18.77,0,0,1-3.6-3,10.64,10.64,0,0,1-2.38-4.11,7.93,7.93,0,0,1-.34-2.36,6,6,0,0,1,.49-2.3.19.19,0,0,1,.24-.1A.19.19,0,0,1,134.17,271Z"/><path class="cls-7" d="M133.46,272.7a20.39,20.39,0,0,0,1.75,8.81c.54,1.42,1.19,2.81,1.76,4.26.29.72.58,1.45.85,2.19s.5,1.51.71,2.28a17.93,17.93,0,0,1,.65,4.8,11.9,11.9,0,0,1-.24,2.45,10.84,10.84,0,0,1-.76,2.36,8.86,8.86,0,0,1-1.35,2.1,8.75,8.75,0,0,1-1.87,1.62,6.64,6.64,0,0,1-4.67,1.07.2.2,0,0,1,0-.4,6.45,6.45,0,0,0,4-1.5,8,8,0,0,0,2.51-3.44,10.89,10.89,0,0,0,.66-4.25,18.11,18.11,0,0,0-.7-4.35c-.2-.72-.43-1.43-.69-2.15s-.51-1.43-.79-2.14c-.56-1.43-1.11-2.89-1.6-4.39a23.42,23.42,0,0,1-1-4.64,12.8,12.8,0,0,1,.35-4.74.19.19,0,0,1,.23-.13A.2.2,0,0,1,133.46,272.7Z"/><path class="cls-12" d="M78.46,239.4s6.4-2.56,7.21-3.82-3.52-1.17-3.52-1.17,4.86-5.18,2.62-6.1-4.69,4.91-4.69,4.91.49-2.75-1.4-2.47S78.46,239.4,78.46,239.4Z"/><path class="cls-12" d="M77.77,240s-1.47-8.73-2.83-10.1-2.45,4.07-2.45,4.07-5.21-7.55-7-5,4.9,7.26,4.9,7.26-3.34-1.4-3.5,1.06S77.77,240,77.77,240Z"/><path class="cls-12" d="M77.11,240.55S70.32,239.37,69,240s2.42,2.85,2.42,2.85-6.81,1.86-5.35,3.82,6.52-1.7,6.52-1.7-1.82,2.08,0,2.84S77.11,240.55,77.11,240.55Z"/><path class="cls-13" d="M77.5,239.81a5.73,5.73,0,0,0-4,2.82c1.41-.28,3.23-1.88,5.09-1.75,1.56.87,4.57,6.45,5.69,5.6,1.31-1.43-3.19-5.1-4.21-6.3a26.3,26.3,0,0,1,.24-5.74c-.93-.06-1.38,3.68-1.44,4.72C74.85,236.38,71.85,235.18,77.5,239.81Z"/><path class="cls-12" d="M50.59,236.73s6.39-2.56,7.21-3.81-3.52-1.17-3.52-1.17,4.86-5.18,2.62-6.1-4.7,4.9-4.7,4.9.5-2.75-1.4-2.46S50.59,236.73,50.59,236.73Z"/><path class="cls-12" d="M49.89,237.29s-1.47-8.73-2.83-10.1-2.45,4.07-2.45,4.07-5.2-7.55-7-5,4.9,7.26,4.9,7.26-3.34-1.39-3.51,1.06S49.89,237.29,49.89,237.29Z"/><path class="cls-12" d="M49.24,237.89s-6.79-1.19-8.13-.55,2.43,2.85,2.43,2.85-6.81,1.86-5.35,3.83,6.52-1.71,6.52-1.71-1.83,2.08-.05,2.84S49.24,237.89,49.24,237.89Z"/><path class="cls-13" d="M49.63,237.14a5.69,5.69,0,0,0-4,2.82c1.41-.28,3.23-1.88,5.08-1.75,1.56.88,4.57,6.45,5.69,5.6,1.32-1.42-3.19-5.1-4.2-6.3a25.13,25.13,0,0,1,.24-5.74c-.94-.06-1.39,3.68-1.45,4.72C47,233.71,44,232.52,49.63,237.14Z"/><path class="cls-12" d="M36,247.17s3.34-6,3.19-7.51S35.73,241,35.73,241s.5-7.09-1.82-6.39-.55,6.77-.55,6.77-1.35-2.45-2.64-1S36,247.17,36,247.17Z"/><path class="cls-12" d="M35.82,248.05s-6.64-5.85-8.57-6.06.67,4.71.67,4.71-8.8-2.58-8.58.52,8.38,2.54,8.38,2.54-3.47,1-2,3S35.82,248.05,35.82,248.05Z"/><path class="cls-12" d="M35.69,248.92s-6,3.36-6.65,4.71,3.68.68,3.68.68S28.61,260,31,260.65s4-5.44,4-5.44-.1,2.77,1.76,2.24S35.69,248.92,35.69,248.92Z"/><path class="cls-13" d="M35.52,248.1a5.68,5.68,0,0,0-1.29,4.68c.91-1.1,1.32-3.49,2.84-4.56,1.76-.31,7.61,2.12,8,.75.12-1.93-5.7-1.94-7.24-2.23a26.09,26.09,0,0,1-3.44-4.61c-.76.55,1.25,3.73,1.86,4.58C31.3,247.11,28.22,248.08,35.52,248.1Z"/><path class="cls-12" d="M54.27,259s3.35-6,3.19-7.51S54,252.79,54,252.79s.5-7.08-1.82-6.38-.55,6.76-.55,6.76-1.35-2.44-2.64-1S54.27,259,54.27,259Z"/><path class="cls-12" d="M54.08,259.86s-6.64-5.84-8.57-6.05.67,4.7.67,4.7-8.8-2.57-8.58.52S46,261.58,46,261.58s-3.47,1-2,3S54.08,259.86,54.08,259.86Z"/><path class="cls-12" d="M54,260.74s-6,3.36-6.65,4.7,3.68.69,3.68.69-4.11,5.73-1.74,6.34,4-5.44,4-5.44-.1,2.77,1.76,2.23S54,260.74,54,260.74Z"/><path class="cls-13" d="M53.78,259.91a5.71,5.71,0,0,0-1.29,4.69c.91-1.11,1.32-3.49,2.84-4.56,1.76-.31,7.61,2.11,8,.75.12-1.94-5.7-2-7.24-2.23A25.92,25.92,0,0,1,52.61,254c-.77.54,1.24,3.73,1.85,4.57C49.56,258.93,46.48,259.89,53.78,259.91Z"/><path class="cls-12" d="M54.38,281.1s-.21-6.89-1.11-8.09-2.3,2.91-2.3,2.91-3.2-6.34-4.83-4.55,3,6.09,3,6.09-2.41-1.41-2.79.47S54.38,281.1,54.38,281.1Z"/><path class="cls-12" d="M54.67,281.94s-8.7-1.61-10.46-.81,3,3.7,3,3.7-8.88,2.3-7.1,4.85,8.5-2.12,8.5-2.12-2.46,2.66-.21,3.66S54.67,281.94,54.67,281.94Z"/><path class="cls-12" d="M55,282.76s-3.45,6-3.3,7.45,3.51-1.3,3.51-1.3-.59,7,1.76,6.33.63-6.71.63-6.71,1.33,2.43,2.65,1S55,282.76,55,282.76Z"/><path class="cls-13" d="M54.44,282.14a5.7,5.7,0,0,0,1.29,4.68c.22-1.42-.65-3.67.1-5.37,1.36-1.17,7.62-2.08,7.21-3.43-.88-1.72-5.88,1.25-7.35,1.79a25.59,25.59,0,0,1-5.32-2.19c-.38.86,3,2.56,3.94,3C50.31,283.45,48.16,285.86,54.44,282.14Z"/><path class="cls-12" d="M38.57,271.06s-.16-5.16-.84-6.06S36,267.18,36,267.18s-2.4-4.75-3.62-3.41,2.24,4.56,2.24,4.56-1.81-1.05-2.1.36S38.57,271.06,38.57,271.06Z"/><path class="cls-12" d="M38.78,271.69s-6.52-1.21-7.84-.6,2.24,2.77,2.24,2.77-6.65,1.72-5.32,3.63,6.37-1.58,6.37-1.58-1.84,2-.16,2.73S38.78,271.69,38.78,271.69Z"/><path class="cls-12" d="M39,272.31s-2.58,4.47-2.47,5.58,2.63-1,2.63-1-.44,5.27,1.32,4.75.47-5,.47-5,1,1.82,2,.77S39,272.31,39,272.31Z"/><path class="cls-13" d="M38.61,271.84a4.27,4.27,0,0,0,1,3.51c.17-1.06-.49-2.75.08-4,1-.87,5.71-1.56,5.4-2.57-.66-1.29-4.41.94-5.51,1.35a18.9,18.9,0,0,1-4-1.65c-.28.65,2.23,1.92,2.95,2.23C35.51,272.83,33.9,274.63,38.61,271.84Z"/><path class="cls-12" d="M102.87,241.67s5.12-.63,5.95-1.39-2.32-1.52-2.32-1.52,4.51-2.82,3.06-3.92-4.34,2.66-4.34,2.66.89-1.9-.54-2.06S102.87,241.67,102.87,241.67Z"/><path class="cls-12" d="M102.26,241.94s.61-6.6-.12-7.86-2.55,2.48-2.55,2.48-2.33-6.47-4.1-5,2.15,6.2,2.15,6.2-2.15-1.65-2.73.1S102.26,241.94,102.26,241.94Z"/><path class="cls-12" d="M101.67,242.25s-4.69-2.16-5.78-2,1.21,2.54,1.21,2.54-5.29,0-4.61,1.74,5.05,0,5.05,0-1.72,1.16-.58,2S101.67,242.25,101.67,242.25Z"/><path class="cls-13" d="M102.1,241.78a4.31,4.31,0,0,0-3.41,1.28c1.07.07,2.7-.74,4-.29,1,.93,2.07,5.55,3.05,5.15,1.22-.78-1.34-4.31-1.84-5.37a19,19,0,0,1,1.27-4.12c-.67-.22-1.71,2.4-2,3.15C100.83,238.79,98.89,237.35,102.1,241.78Z"/><path class="cls-12" d="M86.39,291.18s.87-5.08.39-6.1-2.12,1.79-2.12,1.79-1.41-5.13-2.87-4.06,1.29,4.92,1.29,4.92-1.56-1.4-2.13-.07S86.39,291.18,86.39,291.18Z"/><path class="cls-12" d="M86.47,291.85s-6.14-2.49-7.56-2.16,1.64,3.16,1.64,3.16-6.86.37-5.93,2.5,6.55-.28,6.55-.28-2.2,1.58-.7,2.65S86.47,291.85,86.47,291.85Z"/><path class="cls-12" d="M86.6,292.5s-3.42,3.87-3.54,5,2.78-.42,2.78-.42-1.49,5.07.34,4.91,1.47-4.83,1.47-4.83.61,2,1.79,1.14S86.6,292.5,86.6,292.5Z"/><path class="cls-13" d="M86.28,292a4.23,4.23,0,0,0,.24,3.63c.38-1,.07-2.8.88-3.93,1.17-.65,5.91-.39,5.81-1.44-.39-1.4-4.51,0-5.67.22A19.53,19.53,0,0,1,84,288c-.4.57,1.81,2.33,2.45,2.78C83.05,292.31,81.11,293.75,86.28,292Z"/><path class="cls-12" d="M99.8,293.79s-3.54-3.76-4.64-4,.15,2.77.15,2.77-4.94-2-5-.16,4.7,1.94,4.7,1.94-2.05.41-1.33,1.65S99.8,293.79,99.8,293.79Z"/><path class="cls-12" d="M100.38,294.12s-5.69,3.42-6.27,4.74,3.51.6,3.51.6-3.84,5.7-1.58,6.24,3.72-5.4,3.72-5.4-.06,2.71,1.7,2.15S100.38,294.12,100.38,294.12Z"/><path class="cls-12" d="M101,294.42s1,5.06,1.84,5.82,1.33-2.48,1.33-2.48,3.16,4.24,4.13,2.69-3-4.08-3-4.08,2,.7,2-.75S101,294.42,101,294.42Z"/><path class="cls-13" d="M100.35,294.35a4.29,4.29,0,0,0,3.05,2c-.58-.91-2.19-1.74-2.61-3.07.18-1.33,3.24-4.95,2.34-5.5-1.35-.53-2.68,3.62-3.24,4.66a19.19,19.19,0,0,1-4.07,1.4c.21.67,3,0,3.69-.28C98.68,297.14,98.67,299.56,100.35,294.35Z"/><path class="cls-12" d="M91.44,273.91s-1.64-4.9-2.54-5.56-1,2.58-1,2.58-3.66-3.86-4.45-2.23,3.46,3.73,3.46,3.73-2-.49-1.9.94S91.44,273.91,91.44,273.91Z"/><path class="cls-12" d="M91.82,274.45s-6.59.72-7.68,1.68,2.94,2,2.94,2-5.87,3.56-4,5,5.65-3.34,5.65-3.34-1.2,2.43.63,2.66S91.82,274.45,91.82,274.45Z"/><path class="cls-12" d="M92.24,275s-1.18,5-.76,6.06,2.24-1.69,2.24-1.69,1.09,5.17,2.62,4.17-1-5-1-5,1.48,1.46,2.13.17S92.24,275,92.24,275Z"/><path class="cls-13" d="M91.7,274.64a4.28,4.28,0,0,0,1.94,3.09c-.15-1.07-1.27-2.5-1.09-3.88.73-1.13,5-3.13,4.44-4-1-1-4,2.16-4.89,2.87a19.4,19.4,0,0,1-4.29-.43c-.09.7,2.69,1.19,3.47,1.29C89,276.48,88,278.67,91.7,274.64Z"/><path class="cls-12" d="M58.12,224.68s5-1.26,5.74-2.11-2.49-1.22-2.49-1.22,4.13-3.36,2.55-4.26-4,3.16-4,3.16.65-2-.79-2S58.12,224.68,58.12,224.68Z"/><path class="cls-12" d="M57.55,225s-.21-6.62-1.08-7.78S54.24,220,54.24,220s-3.11-6.13-4.69-4.42,2.91,5.88,2.91,5.88-2.34-1.37-2.71.43S57.55,225,57.55,225Z"/><path class="cls-12" d="M57,225.4s-4.92-1.56-6-1.22,1.52,2.36,1.52,2.36-5.24.7-4.36,2.3,5-.61,5-.61-1.56,1.37-.32,2.11S57,225.4,57,225.4Z"/><path class="cls-13" d="M57.37,224.89a4.29,4.29,0,0,0-3.23,1.69c1.08-.06,2.59-1.06,4-.78,1.07.8,2.74,5.24,3.66,4.73,1.12-.93-1.86-4.11-2.49-5.1a18.7,18.7,0,0,1,.76-4.24c-.69-.14-1.4,2.59-1.55,3.36C55.74,222.08,53.64,220.89,57.37,224.89Z"/><path class="cls-12" d="M63.76,248.31s5-1.25,5.74-2.1S67,245,67,245s4.14-3.36,2.56-4.26-4,3.17-4,3.17.65-2-.79-2S63.76,248.31,63.76,248.31Z"/><path class="cls-12" d="M63.19,248.66S63,242,62.11,240.87s-2.23,2.78-2.23,2.78-3.11-6.13-4.69-4.42,2.91,5.88,2.91,5.88-2.34-1.37-2.71.43S63.19,248.66,63.19,248.66Z"/><path class="cls-12" d="M62.64,249s-4.92-1.57-6-1.23,1.52,2.36,1.52,2.36-5.24.7-4.36,2.31,5-.62,5-.62-1.56,1.37-.32,2.11S62.64,249,62.64,249Z"/><path class="cls-13" d="M63,248.52a4.3,4.3,0,0,0-3.23,1.7c1.08-.07,2.59-1.07,4-.79,1.07.81,2.74,5.25,3.66,4.73,1.12-.93-1.86-4.11-2.49-5.1a19.25,19.25,0,0,1,.75-4.24c-.68-.14-1.39,2.59-1.54,3.36C61.38,245.71,59.28,244.52,63,248.52Z"/><path class="cls-12" d="M76.67,266.82s3.34-4.49,3.23-5.63-3.3.92-3.3.92.69-5.38-1.52-4.9-.72,5.13-.72,5.13-1.2-1.89-2.45-.85S76.67,266.82,76.67,266.82Z"/><path class="cls-12" d="M76.47,267.48s-6.07-4.6-7.88-4.81.49,3.59.49,3.59-8.2-2.17-8.09.18,7.81,2.14,7.81,2.14-3.3.69-2,2.25S76.47,267.48,76.47,267.48Z"/><path class="cls-12" d="M76.32,268.14s-5.76,2.41-6.4,3.41,3.45.61,3.45.61-4,4.25-1.83,4.77,3.91-4,3.91-4-.18,2.1,1.58,1.74S76.32,268.14,76.32,268.14Z"/><path class="cls-13" d="M76.19,267.51A3.8,3.8,0,0,0,74.83,271c.89-.81,1.35-2.62,2.81-3.39,1.67-.19,7.1,1.79,7.46.76.17-1.46-5.3-1.61-6.74-1.87a19.72,19.72,0,0,1-3.1-3.58c-.73.39,1.06,2.86,1.61,3.52C72.25,266.66,69.32,267.31,76.19,267.51Z"/><path class="cls-12" d="M211.93,305.29c-26-21.9-48.73,8.22-75.19,8.59,0,0,26,18.53,49.41,13.43S213.81,306.9,211.93,305.29Z"/><path class="cls-13" d="M220.6,304.47c-23.15-2.18-34.2,17.78-71.88,10.88-.84.06-6-1.74-4.5-.08,20.51,7,40.73,1.44,59.87-6.76a46.22,46.22,0,0,1,8.1-2.05,30.89,30.89,0,0,1,8.15,0C221.44,306.55,221.7,304.67,220.6,304.47Z"/><path class="cls-23" d="M184.2,212l-38.3,15.2L107.59,212c1.06,43.16,33.35,45.31,38,45.39h.57C150.86,257.29,183.15,255.14,184.2,212Z"/><path class="cls-24" d="M185.19,212c0,2.4-1.39,4.67-3.87,6.7-6.26,5.1-19.45,8.62-34.71,8.62s-28.46-3.52-34.71-8.62c-2.49-2-3.88-4.3-3.88-6.7,0-8.47,17.27-15.32,38.59-15.32S185.19,203.51,185.19,212Z"/><path class="cls-19" d="M181.32,218.68c-6.26,5.1-19.45,8.62-34.71,8.62s-28.46-3.52-34.71-8.62c3.37-7.72,17.63-13.51,34.71-13.51S177.94,211,181.32,218.68Z"/><path class="cls-25" d="M146.18,228.23c-22.16,0-39.52-7.14-39.52-16.25s17.36-16.26,39.52-16.26S185.7,202.86,185.7,212,168.34,228.23,146.18,228.23Zm0-30.64c-20.41,0-37.65,6.59-37.65,14.39s17.24,14.38,37.65,14.38,37.65-6.59,37.65-14.38S166.59,197.59,146.18,197.59Z"/><path class="cls-20" d="M124.05,221s-15.32-5.75,3.12-11.5C127.17,209.46,116.67,215.21,124.05,221Z"/><path class="cls-20" d="M145.9,208.86s26.67-.3,28.09,5.75-10.22,7.86-10.22,7.86S182.5,211.58,145.9,208.86Z"/><path class="cls-20" d="M135.5,213.49s-5.89,6.21,9.17,4.79C144.67,218.28,132.8,218.23,135.5,213.49Z"/><path class="cls-23" d="M371.06,205.24l-38.3,15.21-38.3-15.21c1.05,43.16,33.34,45.31,38,45.4H333C337.72,250.55,370,248.4,371.06,205.24Z"/><path class="cls-24" d="M372.05,205.24c0,2.41-1.39,4.68-3.87,6.7-6.26,5.11-19.45,8.62-34.71,8.62s-28.45-3.51-34.71-8.62c-2.48-2-3.88-4.29-3.88-6.7,0-8.46,17.28-15.32,38.59-15.32S372.05,196.78,372.05,205.24Z"/><path class="cls-12" d="M368.18,211.94c-6.26,5.11-19.45,8.62-34.71,8.62s-28.45-3.51-34.71-8.62c3.37-7.71,17.63-13.51,34.71-13.51S364.81,204.23,368.18,211.94Z"/><path class="cls-25" d="M333,221.5c-22.16,0-39.52-7.14-39.52-16.26S310.88,189,333,189s39.53,7.14,39.53,16.25S355.21,221.5,333,221.5Zm0-30.64c-20.41,0-37.65,6.58-37.65,14.38s17.24,14.39,37.65,14.39,37.65-6.59,37.65-14.39S353.45,190.86,333,190.86Z"/><path class="cls-13" d="M310.91,214.23s-15.32-5.75,3.12-11.5C314,202.73,303.54,208.48,310.91,214.23Z"/><path class="cls-13" d="M332.76,202.12s26.67-.3,28.09,5.75-10.22,7.87-10.22,7.87S369.36,204.85,332.76,202.12Z"/><path class="cls-13" d="M322.37,206.76s-5.9,6.2,9.16,4.79C331.53,211.55,319.66,211.5,322.37,206.76Z"/><path class="cls-12" d="M386.5,222.39s3,6,4.36,6.75,1-3.49,1-3.49,5.62,4.38,6.42,2.14-5.32-4.24-5.32-4.24,2.85.3,2.43-1.52S386.5,222.39,386.5,222.39Z"/><path class="cls-12" d="M385.88,221.75s8.85-2,10.18-3.41-4.33-2.11-4.33-2.11,7.41-5.55,4.69-7.11-7.13,5.23-7.13,5.23S390.51,211,388,211,385.88,221.75,385.88,221.75Z"/><path class="cls-12" d="M385.23,221.15s.78-6.67,0-7.93-2.77,2.55-2.77,2.55-2.34-6.49-4.26-5,2.17,6.22,2.17,6.22-2.26-1.63-2.92.14S385.23,221.15,385.23,221.15Z"/><path class="cls-13" d="M386,221.48a5.59,5.59,0,0,0-3.13-3.66c.37,1.35,2.12,3,2.11,4.83-.8,1.57-6.32,4.86-5.38,5.89,1.54,1.19,5-3.43,6.19-4.5a27.68,27.68,0,0,1,5.9-.14c0-.91-3.86-1.1-4.93-1.1C389.36,218.68,390.4,215.69,386,221.48Z"/><path class="cls-12" d="M294,267.19s-2.17,6.4-1.73,7.85,3.17-1.76,3.17-1.76.84,7.08,3,6.08-.73-6.77-.73-6.77,1.79,2.24,2.8.66S294,267.19,294,267.19Z"/><path class="cls-12" d="M294.05,266.3s7.64,4.9,9.57,4.84-1.54-4.56-1.54-4.56,9.16,1.37,8.36-1.66-8.74-1.4-8.74-1.4,3.23-1.47,1.46-3.27S294.05,266.3,294.05,266.3Z"/><path class="cls-13" d="M294.33,266.21a5.59,5.59,0,0,0,.4-4.8c-.7,1.21-.65,3.63-2,4.89-1.68.54-7.9-1.08-8,.32.24,1.93,6,1.16,7.55,1.24a28.32,28.32,0,0,1,4.25,4.09c.65-.63-1.93-3.51-2.69-4.27C298.67,266.62,301.53,265.26,294.33,266.21Z"/><path class="cls-12" d="M288.65,259.18s5.45,4,7,4-.72-3.56-.72-3.56,7,1.34,6.69-1-6.67-1.35-6.67-1.35,2.67-1,1.48-2.47S288.65,259.18,288.65,259.18Z"/><path class="cls-12" d="M287.81,258.89s7-5.81,7.5-7.67-4.81.09-4.81.09,4.07-8.31.94-8.46-4,7.9-4,7.9-.43-3.52-2.68-2.37S287.81,258.89,287.81,258.89Z"/><path class="cls-12" d="M287,258.66s-2.33-6.3-3.57-7.08-1.31,3.53-1.31,3.53-5-4.71-6-2.47,4.76,4.56,4.76,4.56-2.75-.43-2.54,1.45S287,258.66,287,258.66Z"/><path class="cls-13" d="M287.81,258.6a5.59,5.59,0,0,0-4.47-1.83c1,1,3.27,1.71,4.08,3.33,0,1.76-3.41,7.2-2.1,7.7,1.91.35,2.91-5.35,3.46-6.83a27.64,27.64,0,0,1,5.19-2.81c-.41-.82-3.94.77-4.89,1.27C289.51,254.58,289.07,251.44,287.81,258.6Z"/><path class="cls-23" d="M278.29,228.89l-44.67,17.74-44.68-17.74c1.23,50.34,38.89,52.85,44.35,52.95H234C239.4,281.74,277.06,279.23,278.29,228.89Z"/><path class="cls-24" d="M279.45,228.89c0,2.8-1.63,5.45-4.52,7.82-7.3,5.95-22.68,10-40.48,10s-33.19-4.1-40.49-10c-2.89-2.37-4.52-5-4.52-7.82,0-9.87,20.15-17.87,45-17.87S279.45,219,279.45,228.89Z"/><path class="cls-7" d="M274.93,236.71c-7.3,5.95-22.68,10-40.48,10s-33.19-4.1-40.49-10c3.94-9,20.57-15.76,40.49-15.76S271,227.71,274.93,236.71Z"/><path class="cls-25" d="M234,247.85c-25.85,0-46.1-8.33-46.1-19s20.25-19,46.1-19,46.09,8.33,46.09,19S259.8,247.85,234,247.85Zm0-35.74c-23.8,0-43.91,7.69-43.91,16.78s20.11,16.78,43.91,16.78,43.91-7.68,43.91-16.78S257.75,212.11,234,212.11Z"/><path class="cls-11" d="M208.14,239.37s-17.87-6.7,3.64-13.41C211.78,226,199.53,232.67,208.14,239.37Z"/><path class="cls-11" d="M233.62,225.25s31.1-.35,32.76,6.71-11.91,9.17-11.91,9.17S276.31,228.43,233.62,225.25Z"/><path class="cls-11" d="M221.5,230.66s-6.88,7.24,10.69,5.58C232.19,236.24,218.34,236.19,221.5,230.66Z"/><path class="cls-12" d="M236.29,232.76s2.69,6.21,4,7,1.17-3.43,1.17-3.43,5.37,4.68,6.29,2.49-5.08-4.52-5.08-4.52,2.83.45,2.52-1.39S236.29,232.76,236.29,232.76Z"/><path class="cls-12" d="M235.71,232.09s8.95-1.5,10.35-2.84-4.21-2.35-4.21-2.35,7.71-5.13,5.08-6.84-7.41,4.83-7.41,4.83,1.4-3.26-1.12-3.4S235.71,232.09,235.71,232.09Z"/><path class="cls-12" d="M235.09,231.46s1.16-6.62.48-7.91-2.9,2.38-2.9,2.38-2-6.61-4-5.18,1.81,6.34,1.81,6.34-2.16-1.76-2.92,0S235.09,231.46,235.09,231.46Z"/><path class="cls-13" d="M235.86,231.83a5.63,5.63,0,0,0-2.93-3.83c.3,1.37,1.95,3.13,1.84,4.94-.89,1.53-6.58,4.5-5.7,5.58,1.47,1.27,5.21-3.14,6.43-4.14a27.74,27.74,0,0,1,5.9.18c.06-.91-3.79-1.31-4.86-1.37C239.35,229.22,240.56,226.29,235.86,231.83Z"/><path class="cls-19" d="M327.81,257.75a3.23,3.23,0,1,1-3.23-3.22A3.23,3.23,0,0,1,327.81,257.75Z"/><path d="M218.78,285.62a3.22,3.22,0,1,1-3.23,3.22,3.22,3.22,0,0,1,3.23-3.22"/><path d="M33.3,208.27a1.84,1.84,0,1,1-1.84,1.83,1.83,1.83,0,0,1,1.84-1.83"/><path d="M314.87,252.58a1.84,1.84,0,1,1-1.83,1.84,1.83,1.83,0,0,1,1.83-1.84"/><path d="M374.89,234.46a1.83,1.83,0,1,1-1.83,1.83,1.83,1.83,0,0,1,1.83-1.83"/><path d="M250.06,283.53a1.84,1.84,0,1,1-1.83,1.84,1.83,1.83,0,0,1,1.83-1.84"/><path class="cls-19" d="M239.19,294.41a3.23,3.23,0,1,1-3.23-3.22A3.23,3.23,0,0,1,239.19,294.41Z"/><path class="cls-19" d="M115.92,311.73a3.22,3.22,0,1,1-3.22-3.22A3.22,3.22,0,0,1,115.92,311.73Z"/><path class="cls-19" d="M46.64,205.79a3.23,3.23,0,1,1-3.23-3.22A3.23,3.23,0,0,1,46.64,205.79Z"/><polygon class="cls-26" points="336.16 102.19 338.14 106.21 342.57 106.86 339.37 109.98 340.12 114.4 336.16 112.31 332.19 114.4 332.95 109.98 329.74 106.86 334.17 106.21 336.16 102.19"/><polygon class="cls-26" points="69.88 123.92 71.87 127.94 76.3 128.58 73.09 131.71 73.85 136.13 69.88 134.04 65.92 136.13 66.67 131.71 63.47 128.58 67.9 127.94 69.88 123.92"/><polygon class="cls-26" points="200.78 77.45 202.77 81.47 207.2 82.12 203.99 85.24 204.75 89.66 200.78 87.58 196.82 89.66 197.57 85.24 194.37 82.12 198.8 81.47 200.78 77.45"/><polygon class="cls-26" points="214.86 21.53 215.97 29.68 223.6 30.98 216.24 32.79 214.48 39.88 213.34 32.44 206.32 31.52 213.58 29.66 214.86 21.53"/></g></g></svg>