<svg width="250" height="250" viewBox="0 0 250 250" fill="none" xmlns="http://www.w3.org/2000/svg">
<g clip-path="url(#clip0_64_14)">
<path fill-rule="evenodd" clip-rule="evenodd" d="M180.488 49.0625L120.789 65.0586C120.789 65.0586 133.133 110.152 141.566 140.973C145.832 156.547 161.871 165.75 177.465 161.57C177.469 161.57 177.469 161.57 177.473 161.57C185.812 159.336 192.918 153.867 197.211 146.379C201.508 138.891 202.645 130 200.363 121.672C191.98 91.0391 180.488 49.0625 180.488 49.0625Z" stroke="#CCCCCC" stroke-width="5" stroke-miterlimit="2" stroke-linecap="round" stroke-linejoin="round"/>
<path d="M179.23 161.52L194.098 217.008" stroke="#CCCCCC" stroke-width="5" stroke-miterlimit="2" stroke-linecap="round" stroke-linejoin="round"/>
<path d="M176.227 221.797L211.969 212.219" stroke="#CCCCCC" stroke-width="5" stroke-miterlimit="2" stroke-linecap="round" stroke-linejoin="round"/>
<path d="M118.219 62.8711L68.3906 49.5195C68.3906 49.5195 56.5312 94.7461 48.4297 125.652C44.332 141.27 53.625 157.262 69.2187 161.441H69.2266C77.5664 163.676 86.4492 162.496 93.9141 158.16C101.379 153.82 106.809 146.688 108.996 138.336C113.371 121.664 117.84 104.609 117.84 104.609" stroke="#CCCCCC" stroke-width="5" stroke-miterlimit="2" stroke-linecap="round" stroke-linejoin="round"/>
<path d="M70.7695 162.277L55.9023 217.766" stroke="#CCCCCC" stroke-width="5" stroke-miterlimit="2" stroke-linecap="round" stroke-linejoin="round"/>
<path d="M38.0312 212.977L73.7734 222.555" stroke="#CCCCCC" stroke-width="5" stroke-miterlimit="2" stroke-linecap="round" stroke-linejoin="round"/>
<path d="M130.859 44.9219L136.719 35.1562" stroke="#CCCCCC" stroke-width="5" stroke-miterlimit="2" stroke-linecap="round" stroke-linejoin="round"/>
</g>
<defs>
<clipPath id="clip0_64_14">
<rect width="250" height="250" fill="white"/>
</clipPath>
</defs>
</svg>
