<svg width="78" height="42" viewBox="0 0 78 42" fill="none" xmlns="http://www.w3.org/2000/svg">
<path d="M15.1812 28.0553L15.1809 28.0551C14.685 27.8116 14.4802 27.2126 14.7233 26.7164C17.0235 22.0285 20.4937 17.9448 24.7577 14.9089C25.2091 14.5888 25.8313 14.6942 26.1529 15.1437C26.4731 15.5941 26.3678 16.2183 25.918 16.5385C21.9233 19.382 18.6738 23.2059 16.519 27.598C16.3454 27.9508 15.9908 28.1573 15.6201 28.1573C15.4718 28.1573 15.3225 28.1248 15.1812 28.0553Z" fill="#CCCCCC" stroke="black"/>
<path d="M2.39941 39.2666H75.6006C76.1526 39.2666 76.6006 39.7146 76.6006 40.2666C76.6006 40.8186 76.1526 41.2666 75.6006 41.2666H2.39941C1.84705 41.2666 1.39941 40.8187 1.39941 40.2666C1.39941 39.7145 1.84705 39.2666 2.39941 39.2666Z" fill="#CCCCCC" stroke="black"/>
<mask id="path-3-inside-1_130_31" fill="white">
<path d="M7.21387 32.7607C7.21582 32.8154 7.22266 32.8691 7.23047 32.9229C7.23682 32.9687 7.24268 33.0137 7.25293 33.0586C7.26514 33.1074 7.28125 33.1553 7.29785 33.2031C7.31396 33.248 7.3291 33.293 7.34863 33.3359C7.36865 33.3799 7.39258 33.4199 7.41699 33.4619C7.44141 33.5039 7.46533 33.5459 7.49365 33.585C7.52148 33.623 7.55273 33.6582 7.58398 33.6943C7.61572 33.7305 7.64697 33.7676 7.68213 33.8008C7.7168 33.833 7.75439 33.8613 7.79199 33.8906C7.83057 33.9209 7.86816 33.9512 7.90967 33.9775C7.94922 34.002 7.99072 34.0225 8.03223 34.0439C8.07861 34.0674 8.12402 34.0898 8.17285 34.1084C8.21436 34.125 8.25732 34.1367 8.30078 34.1484C8.35352 34.1641 8.40674 34.1777 8.46191 34.1875C8.47852 34.1895 8.49316 34.1963 8.50928 34.1982C8.5752 34.208 8.64014 34.2109 8.70508 34.2119H8.70898H69.29C69.3203 34.2119 69.3496 34.2051 69.3799 34.2031C69.417 34.2002 69.4531 34.2041 69.4902 34.1982C69.5068 34.1963 69.5215 34.1895 69.5381 34.1865C69.5928 34.1777 69.6445 34.1641 69.6973 34.1484C69.7412 34.1367 69.7852 34.125 69.8271 34.1084C69.875 34.0898 69.9199 34.0674 69.9658 34.0439C70.0078 34.0225 70.0498 34.002 70.0898 33.9766C70.1309 33.9512 70.1689 33.9209 70.207 33.8906C70.2441 33.8613 70.2822 33.833 70.3164 33.8008C70.3525 33.7666 70.3838 33.7295 70.416 33.6924C70.4463 33.6582 70.4775 33.624 70.5039 33.5859C70.5342 33.5449 70.5586 33.502 70.584 33.458C70.6074 33.418 70.6299 33.3799 70.6494 33.3379C70.6699 33.293 70.6865 33.2451 70.7031 33.1973C70.7188 33.1523 70.7334 33.1074 70.7451 33.0615C70.7559 33.0137 70.7627 32.9648 70.7695 32.916C70.7764 32.8652 70.7832 32.8154 70.7852 32.7646C70.7852 32.7461 70.79 32.7295 70.79 32.7119C70.79 32.6758 70.7822 32.6426 70.7793 32.6074C70.7773 32.5752 70.7812 32.5439 70.7764 32.5117C68.9189 18.6899 58.2598 7.83789 44.9365 5.3125C44.4824 2.43945 41.9951 0.233398 38.9971 0.233398C35.998 0.233398 33.5117 2.43945 33.0576 5.3125C19.7378 7.83887 9.08105 18.6904 7.22217 32.5117C7.21729 32.5469 7.22119 32.5801 7.21875 32.6152C7.2168 32.6475 7.20898 32.6787 7.20898 32.7119C7.20898 32.7285 7.21338 32.7441 7.21387 32.7607ZM38.9971 3.2334C40.1611 3.2334 41.1621 3.90283 41.666 4.87109C40.7852 4.79687 39.8955 4.75391 38.9971 4.75391C38.0986 4.75391 37.2095 4.79688 36.3276 4.87109C36.8315 3.90283 37.8325 3.2334 38.9971 3.2334ZM38.9971 7.75391C52.9121 7.75391 64.877 17.7241 67.5166 31.2119H10.4824C13.1235 17.7241 25.0854 7.75391 38.9971 7.75391Z"/>
</mask>
<path d="M7.21387 32.7607C7.21582 32.8154 7.22266 32.8691 7.23047 32.9229C7.23682 32.9687 7.24268 33.0137 7.25293 33.0586C7.26514 33.1074 7.28125 33.1553 7.29785 33.2031C7.31396 33.248 7.3291 33.293 7.34863 33.3359C7.36865 33.3799 7.39258 33.4199 7.41699 33.4619C7.44141 33.5039 7.46533 33.5459 7.49365 33.585C7.52148 33.623 7.55273 33.6582 7.58398 33.6943C7.61572 33.7305 7.64697 33.7676 7.68213 33.8008C7.7168 33.833 7.75439 33.8613 7.79199 33.8906C7.83057 33.9209 7.86816 33.9512 7.90967 33.9775C7.94922 34.002 7.99072 34.0225 8.03223 34.0439C8.07861 34.0674 8.12402 34.0898 8.17285 34.1084C8.21436 34.125 8.25732 34.1367 8.30078 34.1484C8.35352 34.1641 8.40674 34.1777 8.46191 34.1875C8.47852 34.1895 8.49316 34.1963 8.50928 34.1982C8.5752 34.208 8.64014 34.2109 8.70508 34.2119H8.70898H69.29C69.3203 34.2119 69.3496 34.2051 69.3799 34.2031C69.417 34.2002 69.4531 34.2041 69.4902 34.1982C69.5068 34.1963 69.5215 34.1895 69.5381 34.1865C69.5928 34.1777 69.6445 34.1641 69.6973 34.1484C69.7412 34.1367 69.7852 34.125 69.8271 34.1084C69.875 34.0898 69.9199 34.0674 69.9658 34.0439C70.0078 34.0225 70.0498 34.002 70.0898 33.9766C70.1309 33.9512 70.1689 33.9209 70.207 33.8906C70.2441 33.8613 70.2822 33.833 70.3164 33.8008C70.3525 33.7666 70.3838 33.7295 70.416 33.6924C70.4463 33.6582 70.4775 33.624 70.5039 33.5859C70.5342 33.5449 70.5586 33.502 70.584 33.458C70.6074 33.418 70.6299 33.3799 70.6494 33.3379C70.6699 33.293 70.6865 33.2451 70.7031 33.1973C70.7188 33.1523 70.7334 33.1074 70.7451 33.0615C70.7559 33.0137 70.7627 32.9648 70.7695 32.916C70.7764 32.8652 70.7832 32.8154 70.7852 32.7646C70.7852 32.7461 70.79 32.7295 70.79 32.7119C70.79 32.6758 70.7822 32.6426 70.7793 32.6074C70.7773 32.5752 70.7812 32.5439 70.7764 32.5117C68.9189 18.6899 58.2598 7.83789 44.9365 5.3125C44.4824 2.43945 41.9951 0.233398 38.9971 0.233398C35.998 0.233398 33.5117 2.43945 33.0576 5.3125C19.7378 7.83887 9.08105 18.6904 7.22217 32.5117C7.21729 32.5469 7.22119 32.5801 7.21875 32.6152C7.2168 32.6475 7.20898 32.6787 7.20898 32.7119C7.20898 32.7285 7.21338 32.7441 7.21387 32.7607ZM38.9971 3.2334C40.1611 3.2334 41.1621 3.90283 41.666 4.87109C40.7852 4.79687 39.8955 4.75391 38.9971 4.75391C38.0986 4.75391 37.2095 4.79688 36.3276 4.87109C36.8315 3.90283 37.8325 3.2334 38.9971 3.2334ZM38.9971 7.75391C52.9121 7.75391 64.877 17.7241 67.5166 31.2119H10.4824C13.1235 17.7241 25.0854 7.75391 38.9971 7.75391Z" fill="#CCCCCC"/>
<path d="M7.21387 32.7607L6.21428 32.7901L6.2145 32.7964L7.21387 32.7607ZM7.23047 32.9229L8.22106 32.7859L8.22006 32.7789L7.23047 32.9229ZM7.25293 33.0586L6.27801 33.2811L6.28029 33.2912L6.28279 33.3011L7.25293 33.0586ZM7.29785 33.2031L6.35304 33.5309L6.35657 33.5408L7.29785 33.2031ZM7.34863 33.3359L6.43827 33.7497L6.43861 33.7505L7.34863 33.3359ZM7.49365 33.585L6.68404 34.1719L6.68626 34.175L7.49365 33.585ZM7.58398 33.6943L6.8276 34.3485L6.83267 34.3543L7.58398 33.6943ZM7.68213 33.8008L6.99548 34.5278L7.00128 34.5332L7.68213 33.8008ZM7.79199 33.8906L8.40938 33.104L8.40664 33.1018L7.79199 33.8906ZM7.90967 33.9775L7.37339 34.8217L7.3844 34.8285L7.90967 33.9775ZM8.03223 34.0439L7.5725 34.9321L7.58126 34.9365L8.03223 34.0439ZM8.17285 34.1084L8.54424 33.1799L8.53618 33.1767L8.52807 33.1736L8.17285 34.1084ZM8.30078 34.1484L8.58487 33.1896L8.57305 33.1861L8.56114 33.1829L8.30078 34.1484ZM8.46191 34.1875L8.28763 35.1722L8.31623 35.1773L8.34507 35.1807L8.46191 34.1875ZM8.50928 34.1982L8.65583 33.209L8.64274 33.2071L8.62961 33.2055L8.50928 34.1982ZM8.70508 34.2119L8.69004 35.2118L8.69756 35.2119H8.70508V34.2119ZM69.3799 34.2031L69.4443 35.2011L69.4514 35.2006L69.4586 35.2L69.3799 34.2031ZM69.4902 34.1982L69.3734 33.2051L69.3538 33.2074L69.3343 33.2105L69.4902 34.1982ZM69.5381 34.1865L69.3794 33.1992L69.3718 33.2004L69.3643 33.2017L69.5381 34.1865ZM69.6973 34.1484L69.4396 33.1822L69.4263 33.1857L69.4132 33.1896L69.6973 34.1484ZM69.8271 34.1084L69.4656 33.176L69.4595 33.1784L69.8271 34.1084ZM69.9658 34.0439L70.4206 34.9346L70.4213 34.9342L69.9658 34.0439ZM70.0898 33.9766L69.5635 33.1262L69.5543 33.1321L70.0898 33.9766ZM70.207 33.8906L69.5874 33.1057L69.5848 33.1078L70.207 33.8906ZM70.3164 33.8008L71.0024 34.5284L71.0036 34.5272L70.3164 33.8008ZM70.416 33.6924L69.6674 33.0293L69.661 33.0367L70.416 33.6924ZM70.5039 33.5859L69.6993 32.9921L69.6903 33.0043L69.6817 33.0167L70.5039 33.5859ZM70.584 33.458L69.721 32.9528L69.7181 32.9577L70.584 33.458ZM70.6494 33.3379L71.5562 33.7596L71.5591 33.7532L70.6494 33.3379ZM70.7031 33.1973L69.7586 32.8687L69.7584 32.8695L70.7031 33.1973ZM70.7451 33.0615L71.714 33.3089L71.7176 33.2948L71.7208 33.2806L70.7451 33.0615ZM70.7695 32.916L71.7599 33.0547L71.7606 33.0494L70.7695 32.916ZM70.7852 32.7646L71.7844 32.8031L71.7852 32.7839V32.7646H70.7852ZM70.7793 32.6074L69.7811 32.6679L69.7818 32.6792L69.7828 32.6905L70.7793 32.6074ZM70.7764 32.5117L69.7853 32.6449L69.7864 32.6532L69.7877 32.6615L70.7764 32.5117ZM44.9365 5.3125L43.9488 5.46862L44.0587 6.16391L44.7503 6.29501L44.9365 5.3125ZM33.0576 5.3125L33.244 6.29498L33.9355 6.16383L34.0454 5.46862L33.0576 5.3125ZM7.22217 32.5117L8.21267 32.6493L8.21324 32.645L7.22217 32.5117ZM7.21875 32.6152L6.22111 32.546L6.22058 32.5547L7.21875 32.6152ZM41.666 4.87109L41.5821 5.86756L43.3912 6.02L42.5531 4.40945L41.666 4.87109ZM36.3276 4.87109L35.4406 4.40945L34.6025 6.01982L36.4115 5.86757L36.3276 4.87109ZM67.5166 31.2119V32.2119H68.7313L68.498 31.0199L67.5166 31.2119ZM10.4824 31.2119L9.50106 31.0197L9.26762 32.2119H10.4824V31.2119ZM6.2145 32.7964C6.21847 32.9075 6.23191 33.0051 6.24088 33.0668L8.22006 32.7789C8.21689 32.7572 8.21517 32.7438 8.21413 32.7342C8.21313 32.725 8.21315 32.7227 8.21323 32.7251L6.2145 32.7964ZM6.2399 33.0598C6.24421 33.091 6.25595 33.1845 6.27801 33.2811L8.22785 32.8361C8.22951 32.8433 8.22954 32.845 8.22817 32.8362C8.2275 32.8319 8.22664 32.8262 8.22543 32.8175C8.22406 32.8078 8.22298 32.7999 8.22104 32.7859L6.2399 33.0598ZM6.28279 33.3011C6.30679 33.3971 6.33609 33.4819 6.3531 33.5309L8.24261 32.8754C8.23498 32.8534 8.23037 32.8397 8.22692 32.8288C8.22364 32.8185 8.22281 32.815 8.22307 32.8161L6.28279 33.3011ZM6.35657 33.5408C6.36322 33.5593 6.39682 33.6585 6.43827 33.7497L8.259 32.9221C8.26285 32.9306 8.26342 32.933 8.25955 32.9225C8.25768 32.9175 8.25536 32.9111 8.25184 32.9012C8.24918 32.8937 8.24351 32.8777 8.23913 32.8655L6.35657 33.5408ZM6.43861 33.7505C6.48399 33.8501 6.53799 33.9396 6.55249 33.9645L8.2815 32.9593C8.27812 32.9535 8.2746 32.9474 8.27187 32.9428C8.26894 32.9377 8.26652 32.9336 8.26427 32.9297C8.25973 32.9219 8.25702 32.9171 8.2552 32.9138C8.25157 32.9073 8.25403 32.9112 8.25865 32.9214L6.43861 33.7505ZM6.55249 33.9645C6.56806 33.9913 6.61963 34.0831 6.68404 34.1719L8.30326 32.998C8.31001 33.0073 8.31208 33.0112 8.30776 33.0041C8.3057 33.0007 8.3028 32.9959 8.29829 32.9882C8.29315 32.9794 8.28909 32.9723 8.2815 32.9593L6.55249 33.9645ZM6.68626 34.175C6.74456 34.2548 6.81026 34.3284 6.82762 34.3485L8.34035 33.0402C8.3358 33.0349 8.33135 33.0298 8.32754 33.0254C8.32355 33.0208 8.32022 33.017 8.31699 33.0132C8.31053 33.0058 8.30617 33.0007 8.30278 32.9966C8.29584 32.9884 8.29672 32.989 8.30104 32.9949L6.68626 34.175ZM6.83267 34.3543C6.84438 34.3676 6.91685 34.4535 6.99551 34.5278L8.36875 33.0738C8.37801 33.0825 8.38115 33.0864 8.37457 33.0791C8.37141 33.0756 8.36721 33.0709 8.36042 33.0631C8.35693 33.0591 8.35366 33.0554 8.34925 33.0503C8.34515 33.0456 8.34035 33.0401 8.3353 33.0344L6.83267 34.3543ZM7.00128 34.5332C7.07636 34.603 7.15913 34.6652 7.17734 34.6794L8.40664 33.1018C8.40098 33.0974 8.3955 33.0932 8.39082 33.0895C8.38588 33.0857 8.38189 33.0826 8.37796 33.0795C8.37013 33.0735 8.36509 33.0695 8.36129 33.0664C8.35347 33.0602 8.3559 33.0618 8.36298 33.0684L7.00128 34.5332ZM7.17461 34.6773C7.19687 34.6948 7.27998 34.7622 7.37343 34.8216L8.4459 33.1335C8.45544 33.1395 8.4588 33.1424 8.45214 33.1374C8.44888 33.1349 8.44427 33.1314 8.43692 33.1256C8.43327 33.1227 8.42938 33.1197 8.4247 33.116C8.42032 33.1126 8.41479 33.1082 8.40937 33.104L7.17461 34.6773ZM7.3844 34.8285C7.46536 34.8785 7.55456 34.9227 7.57252 34.932L8.49193 33.1559C8.48039 33.1499 8.46616 33.1426 8.4588 33.1388C8.44954 33.1341 8.44335 33.1308 8.43834 33.1282C8.42811 33.1228 8.42893 33.1229 8.43494 33.1266L7.3844 34.8285ZM7.58126 34.9365C7.62783 34.96 7.7148 35.0041 7.81763 35.0432L8.52807 33.1736C8.53253 33.1753 8.53231 33.1755 8.5249 33.172C8.5165 33.1681 8.50515 33.1625 8.48319 33.1514L7.58126 34.9365ZM7.80146 35.0369C7.90557 35.0785 8.00375 35.1041 8.04042 35.1139L8.56114 33.1829C8.55026 33.18 8.54305 33.178 8.53671 33.1763C8.53066 33.1746 8.52744 33.1736 8.52594 33.1732C8.52266 33.1722 8.53039 33.1744 8.54424 33.1799L7.80146 35.0369ZM8.01669 35.1072C8.09217 35.1296 8.18384 35.1538 8.28763 35.1722L8.6362 33.2028C8.62964 33.2016 8.61487 33.1985 8.58487 33.1896L8.01669 35.1072ZM8.34507 35.1807C8.29939 35.1753 8.2633 35.1675 8.24167 35.1624C8.23079 35.1598 8.22237 35.1575 8.21783 35.1563C8.21376 35.1552 8.21074 35.1543 8.21306 35.155C8.21376 35.1552 8.22038 35.157 8.22755 35.159C8.23534 35.1611 8.24722 35.1643 8.2616 35.1678C8.29008 35.1747 8.33437 35.1844 8.38895 35.191L8.62961 33.2055C8.67613 33.2111 8.71254 33.2192 8.73323 33.2242C8.74371 33.2268 8.75171 33.2289 8.75563 33.23C8.75892 33.2309 8.76167 33.2317 8.7585 33.2308C8.75694 33.2303 8.75003 33.2284 8.74207 33.2262C8.73362 33.2239 8.72127 33.2206 8.70643 33.2171C8.67688 33.21 8.63274 33.2007 8.57875 33.1943L8.34507 35.1807ZM8.36273 35.1874C8.49224 35.2066 8.6075 35.2106 8.69004 35.2118L8.72011 33.212C8.67277 33.2113 8.65815 33.2094 8.65583 33.209L8.36273 35.1874ZM8.70508 35.2119H8.70898V33.2119H8.70508V35.2119ZM8.70898 35.2119H69.29V33.2119H8.70898V35.2119ZM69.29 35.2119C69.3751 35.2119 69.4453 35.2023 69.465 35.1998C69.4697 35.1991 69.4774 35.1981 69.478 35.198C69.4806 35.1977 69.4803 35.1977 69.4789 35.1979C69.4762 35.1982 69.463 35.1998 69.4443 35.2011L69.3155 33.2052C69.2816 33.2074 69.2534 33.2106 69.2358 33.2127C69.2269 33.2138 69.2191 33.2149 69.2142 33.2155C69.212 33.2158 69.2093 33.2162 69.2081 33.2163C69.2064 33.2165 69.2055 33.2167 69.2049 33.2167C69.2036 33.2169 69.2051 33.2167 69.2079 33.2164C69.2108 33.216 69.2161 33.2155 69.2232 33.2148C69.237 33.2136 69.2603 33.2119 69.29 33.2119V35.2119ZM69.4586 35.2C69.4386 35.2016 69.4246 35.2018 69.4225 35.2018C69.4214 35.2019 69.4215 35.2018 69.4251 35.2018C69.4268 35.2018 69.4352 35.2018 69.4417 35.2018C69.4677 35.2016 69.5491 35.2013 69.6462 35.186L69.3343 33.2105C69.3664 33.2054 69.3921 33.2034 69.4078 33.2026C69.4226 33.2018 69.4322 33.2018 69.4284 33.2018C69.4277 33.2018 69.4266 33.2018 69.4248 33.2018C69.4238 33.2018 69.4197 33.2018 69.4176 33.2018C69.412 33.2019 69.4029 33.2019 69.3926 33.2021C69.3721 33.2024 69.3397 33.2032 69.3012 33.2062L69.4586 35.2ZM69.6071 35.1914C69.6613 35.185 69.7061 35.1756 69.7379 35.1679C69.768 35.1606 69.7923 35.1533 69.7988 35.1514C69.8006 35.1509 69.8026 35.1503 69.8029 35.1502C69.8037 35.1499 69.8034 35.15 69.8027 35.1502C69.8015 35.1506 69.7964 35.1521 69.7894 35.154C69.7754 35.1578 69.7478 35.165 69.7119 35.1713L69.3643 33.2017C69.32 33.2096 69.2844 33.2187 69.2625 33.2246C69.2515 33.2276 69.2425 33.2303 69.2373 33.2318C69.2347 33.2326 69.2324 33.2333 69.2312 33.2336C69.2303 33.2339 69.2305 33.2338 69.2299 33.234C69.2296 33.2341 69.2295 33.2341 69.2296 33.2341C69.2297 33.2341 69.2307 33.2338 69.2323 33.2333C69.2339 33.2328 69.2363 33.2321 69.2394 33.2313C69.2454 33.2296 69.255 33.227 69.2669 33.2241C69.2907 33.2184 69.3275 33.2105 69.3734 33.2051L69.6071 35.1914ZM69.6968 35.1739C69.8132 35.1551 69.912 35.1278 69.9814 35.1072L69.4132 33.1896C69.3956 33.1949 69.3858 33.1975 69.3801 33.1989C69.3749 33.2001 69.3753 33.1999 69.3794 33.1992L69.6968 35.1739ZM69.9549 35.1147C69.9891 35.1055 70.0898 35.0799 70.1948 35.0384L69.4595 33.1784C69.467 33.1755 69.4725 33.1735 69.4754 33.1725C69.4784 33.1716 69.4793 33.1713 69.4776 33.1718C69.4757 33.1724 69.4721 33.1734 69.4656 33.1752C69.4587 33.1771 69.4512 33.1791 69.4396 33.1822L69.9549 35.1147ZM70.1887 35.0408C70.2892 35.0018 70.3747 34.958 70.4206 34.9346L69.511 33.1533C69.4894 33.1644 69.4779 33.1701 69.4693 33.1742C69.4617 33.1778 69.4613 33.1777 69.4656 33.176L70.1887 35.0408ZM70.4213 34.9342C70.4392 34.925 70.5358 34.8779 70.6254 34.8211L69.5543 33.1321C69.5643 33.1257 69.5685 33.1238 69.5607 33.1279C69.5568 33.13 69.5515 33.1327 69.5428 33.1372C69.5384 33.1394 69.534 33.1416 69.5284 33.1445C69.5231 33.1472 69.5168 33.1504 69.5103 33.1537L70.4213 34.9342ZM70.6162 34.8268C70.7156 34.7653 70.7992 34.6973 70.8293 34.6734L69.5848 33.1078C69.5748 33.1157 69.5681 33.1211 69.5619 33.1259C69.556 33.1306 69.5524 33.1333 69.5503 33.1348C69.5458 33.1382 69.5512 33.1339 69.5635 33.1263L70.6162 34.8268ZM70.8267 34.6755C70.8324 34.671 70.9263 34.6002 71.0024 34.5284L69.6304 33.0732C69.6408 33.0634 69.6457 33.0598 69.6375 33.0664C69.6335 33.0696 69.6284 33.0736 69.6196 33.0805C69.6122 33.0863 69.5995 33.0962 69.5874 33.1057L70.8267 34.6755ZM71.0036 34.5272C71.0843 34.4509 71.1541 34.3676 71.171 34.3481L69.661 33.0367C69.6563 33.0421 69.6516 33.0475 69.6478 33.0519C69.6437 33.0566 69.6404 33.0604 69.6373 33.0641C69.6309 33.0713 69.627 33.0758 69.6241 33.079C69.6184 33.0854 69.621 33.082 69.6292 33.0743L71.0036 34.5272ZM71.1646 34.3554C71.1774 34.341 71.2575 34.2543 71.3261 34.1551L69.6817 33.0167C69.6878 33.0079 69.6927 33.0015 69.6955 32.9979C69.6983 32.9943 69.6996 32.9929 69.6984 32.9942C69.6972 32.9957 69.6946 32.9987 69.6892 33.0048C69.6865 33.0078 69.6836 33.0111 69.6799 33.0153C69.6764 33.0192 69.6719 33.0243 69.6674 33.0293L71.1646 34.3554ZM71.3085 34.1798C71.3787 34.0846 71.4323 33.9886 71.4498 33.9583L69.7181 32.9577C69.7106 32.9708 69.7062 32.9784 69.7014 32.9867C69.697 32.9942 69.6943 32.9986 69.6926 33.0014C69.6892 33.0071 69.6919 33.0021 69.6993 32.9921L71.3085 34.1798ZM71.447 33.9632C71.4654 33.9318 71.5131 33.8521 71.5561 33.7596L69.7427 32.9162C69.7459 32.9092 69.7473 32.9071 69.744 32.913C69.7423 32.9161 69.7398 32.9204 69.7359 32.9272C69.7317 32.9345 69.7275 32.9417 69.721 32.9528L71.447 33.9632ZM71.5591 33.7532C71.6026 33.6579 71.6342 33.5646 71.6479 33.525L69.7584 32.8695C69.7494 32.8953 69.7449 32.9082 69.7408 32.9191C69.7371 32.929 69.737 32.9286 69.7397 32.9226L71.5591 33.7532ZM71.6476 33.5258C71.6668 33.4706 71.6921 33.395 71.714 33.3089L69.7762 32.8141C69.7747 32.8199 69.7707 32.8341 69.7586 32.8687L71.6476 33.5258ZM71.7208 33.2806C71.742 33.1861 71.754 33.0965 71.7599 33.0547L69.7792 32.7774C69.7755 32.8035 69.7735 32.8178 69.7715 32.8304C69.7696 32.8418 69.7689 32.8447 69.7694 32.8425L71.7208 33.2806ZM71.7606 33.0494C71.766 33.009 71.7803 32.9103 71.7844 32.8031L69.7859 32.7262C69.7861 32.7199 69.7864 32.7195 69.7854 32.7294C69.7848 32.7342 69.784 32.7406 69.7829 32.7496C69.7816 32.7591 69.7803 32.7688 69.7785 32.7826L71.7606 33.0494ZM71.7852 32.7646C71.7852 32.8036 71.7826 32.8347 71.7806 32.8536C71.7797 32.863 71.7788 32.8703 71.7783 32.8741C71.7778 32.8775 71.7775 32.8799 71.7778 32.8774C71.778 32.8764 71.7789 32.8699 71.7798 32.8629C71.7808 32.8553 71.7823 32.844 71.7837 32.8304C71.7866 32.8033 71.79 32.762 71.79 32.7119H69.79C69.79 32.6706 69.7929 32.6379 69.7948 32.6195C69.7958 32.6103 69.7967 32.6032 69.7972 32.6C69.7975 32.5973 69.7978 32.5951 69.7974 32.5984C69.7971 32.6003 69.7962 32.607 69.7951 32.6148C69.7941 32.6229 69.7926 32.6346 69.7912 32.6485C69.7883 32.6763 69.7852 32.7164 69.7852 32.7646H71.7852ZM71.79 32.7119C71.79 32.6248 71.7806 32.5537 71.7768 32.5258C71.7758 32.5184 71.7748 32.5113 71.7744 32.5079C71.7737 32.5036 71.7736 32.5024 71.7735 32.5019C71.7734 32.501 71.7747 32.5102 71.7758 32.5244L69.7828 32.6905C69.7854 32.7222 69.7887 32.7488 69.7909 32.7651C69.792 32.7732 69.793 32.7807 69.7936 32.7849C69.7943 32.7901 69.7946 32.7916 69.7947 32.7928C69.7948 32.7937 69.7946 32.7921 69.7943 32.7891C69.7939 32.786 69.7933 32.7808 69.7927 32.7739C69.7915 32.7603 69.79 32.7388 69.79 32.7119H71.79ZM71.7775 32.5469C71.7787 32.5678 71.7787 32.5827 71.7787 32.5853C71.7787 32.5867 71.7787 32.5869 71.7787 32.5835C71.7788 32.5815 71.7788 32.5741 71.7789 32.5673C71.7791 32.5415 71.7799 32.46 71.7651 32.3619L69.7877 32.6615C69.7824 32.6266 69.7804 32.5981 69.7796 32.5798C69.7792 32.5705 69.779 32.5633 69.779 32.5587C69.7789 32.5543 69.779 32.5515 69.779 32.5519C69.779 32.552 69.779 32.5525 69.7789 32.5539C69.7789 32.5559 69.7789 32.5562 69.7789 32.5595C69.7788 32.564 69.7787 32.5722 69.7787 32.5815C69.7787 32.5911 69.7787 32.6035 69.7791 32.6178C69.7794 32.6321 69.78 32.649 69.7811 32.6679L71.7775 32.5469ZM71.7675 32.3785C69.8513 18.12 58.8594 6.93374 45.1228 4.32999L44.7503 6.29501C57.6601 8.74204 67.9865 19.2599 69.7853 32.6449L71.7675 32.3785ZM45.9243 5.15638C45.395 1.80752 42.4974 -0.766602 38.9971 -0.766602V1.2334C41.4929 1.2334 43.5699 3.07139 43.9488 5.46862L45.9243 5.15638ZM38.9971 -0.766602C35.4957 -0.766602 32.5992 1.80762 32.0699 5.15638L34.0454 5.46862C34.4243 3.07129 36.5004 1.2334 38.9971 1.2334V-0.766602ZM32.8713 4.33002C19.138 6.9348 8.14869 18.1206 6.23109 32.3784L8.21324 32.645C10.0134 19.2602 20.3376 8.74294 33.244 6.29498L32.8713 4.33002ZM6.23168 32.3742C6.21889 32.4662 6.21946 32.5431 6.21955 32.567C6.21957 32.5723 6.21963 32.5812 6.21963 32.5819C6.21965 32.5848 6.21964 32.5845 6.21965 32.583C6.21967 32.5799 6.21978 32.5658 6.22115 32.546L8.21635 32.6845C8.21894 32.6471 8.21948 32.6157 8.21961 32.5954C8.21967 32.5852 8.21963 32.5763 8.2196 32.5707C8.21959 32.5681 8.21957 32.565 8.21956 32.5636C8.21955 32.5617 8.21954 32.5606 8.21954 32.5599C8.21952 32.556 8.21964 32.5653 8.21905 32.5794C8.21842 32.5946 8.21687 32.6189 8.21266 32.6493L6.23168 32.3742ZM6.22058 32.5547C6.22189 32.5332 6.22379 32.5178 6.22427 32.5141C6.22452 32.5121 6.22463 32.5114 6.22428 32.5139C6.2241 32.5152 6.22393 32.5164 6.22359 32.5188C6.2233 32.5209 6.22289 32.5239 6.22244 32.5271C6.21958 32.5479 6.20898 32.622 6.20898 32.7119H8.20898C8.20898 32.7425 8.20719 32.7667 8.20583 32.7811C8.20456 32.7946 8.20327 32.8034 8.20383 32.7993C8.20393 32.7986 8.20408 32.7975 8.20434 32.7956C8.20456 32.7941 8.20495 32.7913 8.20532 32.7886C8.20608 32.7831 8.20727 32.7745 8.20853 32.7645C8.21102 32.7447 8.21464 32.7134 8.21692 32.6757L6.22058 32.5547ZM6.20898 32.7119C6.20898 32.7597 6.21214 32.7996 6.21498 32.827C6.21766 32.8529 6.22082 32.8745 6.22144 32.8788C6.22209 32.8833 6.22181 32.8814 6.22169 32.8805C6.22142 32.8786 6.22069 32.8733 6.21984 32.866C6.21815 32.8518 6.21532 32.8248 6.2143 32.7901L8.21343 32.7313C8.21217 32.6884 8.2086 32.6532 8.20596 32.6308C8.20462 32.6196 8.20335 32.6102 8.20253 32.6043C8.20211 32.6013 8.20174 32.5987 8.2015 32.5971C8.20138 32.5962 8.20127 32.5955 8.2012 32.595C8.20112 32.5944 8.20108 32.5941 8.20104 32.5939C8.20086 32.5926 8.20128 32.5954 8.20182 32.5996C8.2024 32.604 8.20337 32.6116 8.20438 32.6214C8.20638 32.6407 8.20898 32.6724 8.20898 32.7119H6.20898ZM38.9971 4.2334C39.7639 4.2334 40.4357 4.67322 40.779 5.33274L42.5531 4.40945C41.8885 3.13244 40.5583 2.2334 38.9971 2.2334V4.2334ZM41.75 3.87462C40.8452 3.79839 39.9273 3.75391 38.9971 3.75391V5.75391C39.8637 5.75391 40.7251 5.79536 41.5821 5.86756L41.75 3.87462ZM38.9971 3.75391C38.0668 3.75391 37.1494 3.7984 36.2438 3.87462L36.4115 5.86757C37.2696 5.79535 38.1305 5.75391 38.9971 5.75391V3.75391ZM37.2147 5.33274C37.5579 4.67331 38.2296 4.2334 38.9971 4.2334V2.2334C37.4354 2.2334 36.1052 3.13235 35.4406 4.40945L37.2147 5.33274ZM38.9971 8.75391C52.4314 8.75391 63.9869 18.383 66.5352 31.404L68.498 31.0199C65.767 17.0652 53.3929 6.75391 38.9971 6.75391V8.75391ZM67.5166 30.2119H10.4824V32.2119H67.5166V30.2119ZM11.4638 31.4041C14.0135 18.3829 25.5664 8.75391 38.9971 8.75391V6.75391C24.6045 6.75391 12.2335 17.0654 9.50106 31.0197L11.4638 31.4041Z" fill="black" mask="url(#path-3-inside-1_130_31)"/>
</svg>
