<svg width="128" height="128" viewBox="0 0 128 128" fill="none" xmlns="http://www.w3.org/2000/svg">
<mask id="path-1-inside-1_78_43" fill="white">
<path d="M118.14 113.08H116.15V37.01C116.878 37.0848 117.609 36.8944 118.208 36.4737C118.807 36.053 119.233 35.4302 119.41 34.72C119.568 34.0669 119.502 33.3798 119.222 32.7688C118.943 32.1578 118.467 31.6581 117.87 31.35L67.22 5.06995C66.2255 4.55259 65.121 4.28247 64 4.28247C62.879 4.28247 61.7745 4.55259 60.78 5.06995L10.13 31.35C9.58389 31.6338 9.13825 32.0787 8.85357 32.6244C8.5689 33.1701 8.45895 33.7901 8.53865 34.4004C8.61835 35.0107 8.88384 35.5818 9.2991 36.0361C9.71437 36.4903 10.2593 36.8059 10.86 36.94V113.08C10.0888 112.978 9.30479 113.038 8.55794 113.255C7.81109 113.473 7.11779 113.844 6.52225 114.345C5.92671 114.845 5.44198 115.464 5.09897 116.162C4.75597 116.861 4.5622 117.623 4.53003 118.4C4.53347 119.812 5.09645 121.164 6.09556 122.161C7.09467 123.159 8.4484 123.719 9.86003 123.72H118.14C119.551 123.72 120.904 123.159 121.902 122.162C122.9 121.164 123.46 119.811 123.46 118.4C123.46 116.989 122.9 115.636 121.902 114.638C120.904 113.64 119.551 113.08 118.14 113.08ZM62.62 8.61995C63.0462 8.39821 63.5196 8.28244 64 8.28244C64.4805 8.28244 64.9538 8.39821 65.38 8.61995L112.39 33.01H15.61L62.62 8.61995ZM100.95 43.85L94.2 49.93L86.77 43.74L93.52 37.66L100.95 43.85ZM98.98 37.01H108.55L103.95 41.15L98.98 37.01ZM88.66 57.17C88.8573 56.667 89.1524 56.2083 89.5284 55.8203C89.9043 55.4324 90.3535 55.1229 90.85 54.91C91.3426 54.6879 91.8756 54.5697 92.4159 54.5628C92.9561 54.5559 93.492 54.6605 93.99 54.87C94.492 55.0676 94.95 55.3626 95.3375 55.7379C95.7251 56.1131 96.0347 56.5613 96.2484 57.0567C96.4622 57.552 96.5759 58.0847 96.583 58.6242C96.5902 59.1636 96.4906 59.6991 96.29 60.2L95.148 63.089C95.0997 63.2113 95.0278 63.323 94.9362 63.4175C94.8447 63.512 94.7354 63.5875 94.6147 63.6397C94.4939 63.692 94.364 63.7198 94.2325 63.7217C94.1009 63.7237 93.9703 63.6996 93.848 63.651L88.07 61.359C87.9477 61.3106 87.8362 61.2385 87.7418 61.1469C87.6474 61.0554 87.572 60.9461 87.5198 60.8253C87.4677 60.7046 87.44 60.5747 87.4381 60.4432C87.4362 60.3117 87.4603 60.1811 87.509 60.059L88.66 57.17ZM79.16 50.58L83.76 46.44L88.74 50.58H79.16ZM83.66 41.15L78.69 37.01H88.26L83.66 41.15ZM80.66 43.85L73.91 49.93L66.48 43.74L73.23 37.66L80.66 43.85ZM68.45 50.58H58.88L63.48 46.44L68.45 50.58ZM63.37 41.15L58.4 37.01H67.97L63.37 41.15ZM60.37 43.85L53.62 49.93L46.19 43.74L52.94 37.67L60.37 43.85ZM38.59 50.58L43.19 46.44L48.16 50.58H38.59ZM39.93 61.35L34.151 63.65C34.0289 63.6986 33.8983 63.7227 33.7668 63.7209C33.6353 63.719 33.5054 63.6913 33.3846 63.6391C33.2639 63.587 33.1546 63.5116 33.063 63.4172C32.9715 63.3228 32.8994 63.2112 32.851 63.089L31.71 60.2C31.5111 59.699 31.4127 59.1637 31.4207 58.6247C31.4286 58.0857 31.5426 57.5535 31.7561 57.0586C31.9697 56.5637 32.2787 56.1156 32.6654 55.7401C33.0521 55.3646 33.509 55.0689 34.01 54.87C35.0218 54.4682 36.1518 54.4847 37.1514 54.9161C37.6463 55.1297 38.0943 55.4386 38.4699 55.8253C38.8454 56.2121 39.1411 56.669 39.34 57.17L40.489 60.05C40.5378 60.172 40.562 60.3025 40.5602 60.4339C40.5585 60.5653 40.5309 60.6951 40.479 60.8158C40.4271 60.9366 40.3519 61.0459 40.2577 61.1375C40.1635 61.2292 40.0521 61.3014 39.93 61.35ZM43.08 41.15L38.11 37.01H47.68L43.08 41.15ZM40.08 43.85L33.33 49.93L25.9 43.74L32.65 37.67L40.08 43.85ZM22.79 41.15L17.82 37.01H27.39L22.79 41.15ZM22.9 46.44L27.87 50.58H18.3L22.9 46.44ZM24.61 54.58H28.55C27.9824 55.6644 27.6402 56.8525 27.544 58.0727C27.4477 59.2929 27.5995 60.5199 27.99 61.68L29.51 65.49C29.6999 65.9805 29.9863 66.4279 30.3521 66.8058C30.718 67.1836 31.1559 67.4843 31.64 67.69C32.1151 67.9226 32.6356 68.0477 33.1644 68.0563C33.6933 68.0649 34.2176 67.9569 34.7 67.74L42.33 64.7C43.3156 64.3088 44.1058 63.5428 44.5276 62.5699C44.9494 61.5971 44.9682 60.4967 44.58 59.51C44.58 59.51 42.895 55.191 42.52 54.58H85.48C84.6862 56.1765 83.9981 57.8233 83.42 59.51C83.0318 60.4967 83.0507 61.5971 83.4725 62.5699C83.8942 63.5428 84.6845 64.3088 85.67 64.7L93.3 67.74C93.787 67.9389 94.3092 68.037 94.8352 68.0284C95.3611 68.0198 95.8798 67.9047 96.36 67.69C96.8428 67.4848 97.2798 67.1855 97.6456 66.8094C98.0113 66.4334 98.2984 65.9882 98.49 65.5L100.01 61.68C100.479 60.5357 100.673 59.2976 100.578 58.0647C100.482 56.8318 100.099 55.6384 99.46 54.58H102.4V113.08H24.61V54.58ZM99.45 50.58L104.05 46.44L109.03 50.58H99.45ZM106.4 54.58H112.15V113.08H106.4V54.58ZM107.06 43.74L112.15 39.15V47.98L107.06 43.74ZM14.86 39.75L19.79 43.85L14.86 48.29V39.75ZM14.86 54.58H20.61V113.08H14.86V54.58ZM118.14 119.72H9.86003C9.50994 119.72 9.1742 119.581 8.92665 119.333C8.6791 119.086 8.54003 118.75 8.54003 118.4C8.54003 118.05 8.6791 117.714 8.92665 117.467C9.1742 117.219 9.50994 117.08 9.86003 117.08H118.14C118.49 117.08 118.826 117.219 119.073 117.467C119.321 117.714 119.46 118.05 119.46 118.4C119.46 118.75 119.321 119.086 119.073 119.333C118.826 119.581 118.49 119.72 118.14 119.72Z"/>
</mask>
<path d="M118.14 113.08H116.15V37.01C116.878 37.0848 117.609 36.8944 118.208 36.4737C118.807 36.053 119.233 35.4302 119.41 34.72C119.568 34.0669 119.502 33.3798 119.222 32.7688C118.943 32.1578 118.467 31.6581 117.87 31.35L67.22 5.06995C66.2255 4.55259 65.121 4.28247 64 4.28247C62.879 4.28247 61.7745 4.55259 60.78 5.06995L10.13 31.35C9.58389 31.6338 9.13825 32.0787 8.85357 32.6244C8.5689 33.1701 8.45895 33.7901 8.53865 34.4004C8.61835 35.0107 8.88384 35.5818 9.2991 36.0361C9.71437 36.4903 10.2593 36.8059 10.86 36.94V113.08C10.0888 112.978 9.30479 113.038 8.55794 113.255C7.81109 113.473 7.11779 113.844 6.52225 114.345C5.92671 114.845 5.44198 115.464 5.09897 116.162C4.75597 116.861 4.5622 117.623 4.53003 118.4C4.53347 119.812 5.09645 121.164 6.09556 122.161C7.09467 123.159 8.4484 123.719 9.86003 123.72H118.14C119.551 123.72 120.904 123.159 121.902 122.162C122.9 121.164 123.46 119.811 123.46 118.4C123.46 116.989 122.9 115.636 121.902 114.638C120.904 113.64 119.551 113.08 118.14 113.08ZM62.62 8.61995C63.0462 8.39821 63.5196 8.28244 64 8.28244C64.4805 8.28244 64.9538 8.39821 65.38 8.61995L112.39 33.01H15.61L62.62 8.61995ZM100.95 43.85L94.2 49.93L86.77 43.74L93.52 37.66L100.95 43.85ZM98.98 37.01H108.55L103.95 41.15L98.98 37.01ZM88.66 57.17C88.8573 56.667 89.1524 56.2083 89.5284 55.8203C89.9043 55.4324 90.3535 55.1229 90.85 54.91C91.3426 54.6879 91.8756 54.5697 92.4159 54.5628C92.9561 54.5559 93.492 54.6605 93.99 54.87C94.492 55.0676 94.95 55.3626 95.3375 55.7379C95.7251 56.1131 96.0347 56.5613 96.2484 57.0567C96.4622 57.552 96.5759 58.0847 96.583 58.6242C96.5902 59.1636 96.4906 59.6991 96.29 60.2L95.148 63.089C95.0997 63.2113 95.0278 63.323 94.9362 63.4175C94.8447 63.512 94.7354 63.5875 94.6147 63.6397C94.4939 63.692 94.364 63.7198 94.2325 63.7217C94.1009 63.7237 93.9703 63.6996 93.848 63.651L88.07 61.359C87.9477 61.3106 87.8362 61.2385 87.7418 61.1469C87.6474 61.0554 87.572 60.9461 87.5198 60.8253C87.4677 60.7046 87.44 60.5747 87.4381 60.4432C87.4362 60.3117 87.4603 60.1811 87.509 60.059L88.66 57.17ZM79.16 50.58L83.76 46.44L88.74 50.58H79.16ZM83.66 41.15L78.69 37.01H88.26L83.66 41.15ZM80.66 43.85L73.91 49.93L66.48 43.74L73.23 37.66L80.66 43.85ZM68.45 50.58H58.88L63.48 46.44L68.45 50.58ZM63.37 41.15L58.4 37.01H67.97L63.37 41.15ZM60.37 43.85L53.62 49.93L46.19 43.74L52.94 37.67L60.37 43.85ZM38.59 50.58L43.19 46.44L48.16 50.58H38.59ZM39.93 61.35L34.151 63.65C34.0289 63.6986 33.8983 63.7227 33.7668 63.7209C33.6353 63.719 33.5054 63.6913 33.3846 63.6391C33.2639 63.587 33.1546 63.5116 33.063 63.4172C32.9715 63.3228 32.8994 63.2112 32.851 63.089L31.71 60.2C31.5111 59.699 31.4127 59.1637 31.4207 58.6247C31.4286 58.0857 31.5426 57.5535 31.7561 57.0586C31.9697 56.5637 32.2787 56.1156 32.6654 55.7401C33.0521 55.3646 33.509 55.0689 34.01 54.87C35.0218 54.4682 36.1518 54.4847 37.1514 54.9161C37.6463 55.1297 38.0943 55.4386 38.4699 55.8253C38.8454 56.2121 39.1411 56.669 39.34 57.17L40.489 60.05C40.5378 60.172 40.562 60.3025 40.5602 60.4339C40.5585 60.5653 40.5309 60.6951 40.479 60.8158C40.4271 60.9366 40.3519 61.0459 40.2577 61.1375C40.1635 61.2292 40.0521 61.3014 39.93 61.35ZM43.08 41.15L38.11 37.01H47.68L43.08 41.15ZM40.08 43.85L33.33 49.93L25.9 43.74L32.65 37.67L40.08 43.85ZM22.79 41.15L17.82 37.01H27.39L22.79 41.15ZM22.9 46.44L27.87 50.58H18.3L22.9 46.44ZM24.61 54.58H28.55C27.9824 55.6644 27.6402 56.8525 27.544 58.0727C27.4477 59.2929 27.5995 60.5199 27.99 61.68L29.51 65.49C29.6999 65.9805 29.9863 66.4279 30.3521 66.8058C30.718 67.1836 31.1559 67.4843 31.64 67.69C32.1151 67.9226 32.6356 68.0477 33.1644 68.0563C33.6933 68.0649 34.2176 67.9569 34.7 67.74L42.33 64.7C43.3156 64.3088 44.1058 63.5428 44.5276 62.5699C44.9494 61.5971 44.9682 60.4967 44.58 59.51C44.58 59.51 42.895 55.191 42.52 54.58H85.48C84.6862 56.1765 83.9981 57.8233 83.42 59.51C83.0318 60.4967 83.0507 61.5971 83.4725 62.5699C83.8942 63.5428 84.6845 64.3088 85.67 64.7L93.3 67.74C93.787 67.9389 94.3092 68.037 94.8352 68.0284C95.3611 68.0198 95.8798 67.9047 96.36 67.69C96.8428 67.4848 97.2798 67.1855 97.6456 66.8094C98.0113 66.4334 98.2984 65.9882 98.49 65.5L100.01 61.68C100.479 60.5357 100.673 59.2976 100.578 58.0647C100.482 56.8318 100.099 55.6384 99.46 54.58H102.4V113.08H24.61V54.58ZM99.45 50.58L104.05 46.44L109.03 50.58H99.45ZM106.4 54.58H112.15V113.08H106.4V54.58ZM107.06 43.74L112.15 39.15V47.98L107.06 43.74ZM14.86 39.75L19.79 43.85L14.86 48.29V39.75ZM14.86 54.58H20.61V113.08H14.86V54.58ZM118.14 119.72H9.86003C9.50994 119.72 9.1742 119.581 8.92665 119.333C8.6791 119.086 8.54003 118.75 8.54003 118.4C8.54003 118.05 8.6791 117.714 8.92665 117.467C9.1742 117.219 9.50994 117.08 9.86003 117.08H118.14C118.49 117.08 118.826 117.219 119.073 117.467C119.321 117.714 119.46 118.05 119.46 118.4C119.46 118.75 119.321 119.086 119.073 119.333C118.826 119.581 118.49 119.72 118.14 119.72Z" fill="#CCCCCC" stroke="black" stroke-width="2" mask="url(#path-1-inside-1_78_43)"/>
<path d="M34.549 91.412C34.0286 91.4122 33.5286 91.2096 33.1552 90.8472C32.7818 90.4848 32.5643 89.9911 32.549 89.471L32.049 72.548C32.0334 72.0175 32.2293 71.5027 32.5934 71.1166C32.9575 70.7306 33.46 70.505 33.9905 70.4895C34.5209 70.4739 35.0358 70.6698 35.4218 71.0339C35.8078 71.398 36.0334 71.9005 36.049 72.431L36.549 89.354C36.5643 89.8841 36.3684 90.3986 36.0044 90.7844C35.6404 91.1702 35.1381 91.3955 34.608 91.411L34.549 91.412ZM56.09 81.591L44.839 68.94C44.4994 68.5419 44.3293 68.0266 44.3653 67.5046C44.4012 66.9825 44.6403 66.4954 45.0313 66.1476C45.4222 65.7999 45.9339 65.6192 46.4565 65.6443C46.9792 65.6694 47.4711 65.8983 47.827 66.282L59.078 78.933C59.4303 79.3292 59.6109 79.8492 59.5799 80.3786C59.549 80.908 59.3091 81.4034 58.913 81.756C58.7197 81.9364 58.4918 82.0757 58.2431 82.1655C57.9944 82.2553 57.7301 82.2936 57.4661 82.2782C57.2022 82.2627 56.9441 82.1939 56.7075 82.0758C56.471 81.9576 56.2609 81.7927 56.09 81.591ZM93.4509 91.412H93.3919C92.8618 91.3965 92.3595 91.1712 91.9955 90.7854C91.6315 90.3996 91.4356 89.8851 91.4509 89.355L91.9509 72.432C91.9665 71.9015 92.1921 71.399 92.5781 71.0349C92.9641 70.6708 93.479 70.4749 94.0094 70.4905C94.5399 70.506 95.0424 70.7316 95.4065 71.1176C95.7706 71.5037 95.9665 72.0185 95.9509 72.549L95.4509 89.472C95.4353 89.9919 95.2178 90.4853 94.8444 90.8475C94.471 91.2097 93.9711 91.4122 93.4509 91.412ZM69.0869 81.756C68.6922 81.4026 68.4533 80.9074 68.4224 80.3785C68.3915 79.8496 68.5711 79.3299 68.9219 78.933L80.1729 66.282C80.5288 65.8983 81.0208 65.6694 81.5434 65.6443C82.066 65.6192 82.5777 65.7999 82.9686 66.1476C83.3596 66.4954 83.5987 66.9825 83.6346 67.5046C83.6706 68.0266 83.5005 68.5419 83.161 68.94L71.91 81.591C71.7386 81.7921 71.5284 81.9565 71.2918 82.0742C71.0553 82.1919 70.7974 82.2605 70.5337 82.2759C70.2699 82.2914 70.0058 82.2532 69.7571 82.1639C69.5085 82.0745 69.2805 81.9357 69.0869 81.756Z" fill="#CCCCCC"/>
</svg>
