<svg width="121" height="125" viewBox="0 0 121 125" fill="none" xmlns="http://www.w3.org/2000/svg">
<mask id="path-1-inside-1_78_41" fill="white">
<path d="M114.97 113.5H113.15V61.5201C115.115 60.3332 116.74 58.6593 117.868 56.6604C118.996 54.6616 119.589 52.4053 119.59 50.1101V42.3901C119.588 40.5342 118.85 38.7549 117.537 37.4427C116.225 36.1304 114.446 35.3922 112.59 35.3901H108.86L108.94 35.2801L65.26 1.81006C64.0362 0.87598 62.5394 0.369995 61 0.369995C59.4605 0.369995 57.9637 0.87598 56.74 1.81006L12.93 35.3901H9.40996C7.5541 35.3922 5.77485 36.1304 4.46255 37.4427C3.15026 38.7549 2.41208 40.5342 2.40996 42.3901V50.1101C2.41033 52.2026 2.90401 54.2656 3.85093 56.1316C4.79785 57.9977 6.17134 59.6142 7.85996 60.8501V113.5H6.02996C4.61901 113.5 3.26585 114.061 2.26815 115.058C1.27046 116.056 0.709961 117.409 0.709961 118.82C0.709961 120.231 1.27046 121.584 2.26815 122.582C3.26585 123.58 4.61901 124.14 6.02996 124.14H23.44C24.8509 124.14 26.2041 123.58 27.2018 122.582C28.1995 121.584 28.76 120.231 28.76 118.82C28.76 117.409 28.1995 116.056 27.2018 115.058C26.2041 114.061 24.8509 113.5 23.44 113.5H21.61V62.0601C23.8498 60.9501 25.7342 59.2355 27.05 57.1101C28.2403 59.0419 29.9051 60.6371 31.886 61.7438C33.8669 62.8506 36.0981 63.4321 38.3672 63.4331C40.6363 63.4341 42.8679 62.8546 44.8498 61.7495C46.8317 60.6445 48.4979 59.0508 49.69 57.1201C50.8815 59.05 52.5469 60.643 54.5279 61.7476C56.509 62.8521 58.7396 63.4314 61.0078 63.4304C63.2759 63.4294 65.506 62.8481 67.4861 61.7419C69.4661 60.6356 71.1302 59.0411 72.32 57.1101C73.5112 59.0414 75.1767 60.6358 77.1581 61.7417C79.1395 62.8476 81.3708 63.4281 83.64 63.4281C85.9091 63.4281 88.1405 62.8476 90.1219 61.7417C92.1033 60.6358 93.7688 59.0414 94.96 57.1101C96.0703 58.9106 97.592 60.4219 99.4 61.5201V113.5H97.57C96.159 113.5 94.8058 114.061 93.8082 115.058C92.8105 116.056 92.25 117.409 92.25 118.82C92.25 120.231 92.8105 121.584 93.8082 122.582C94.8058 123.58 96.159 124.14 97.57 124.14H114.97C116.381 124.14 117.734 123.58 118.732 122.582C119.729 121.584 120.29 120.231 120.29 118.82C120.29 117.409 119.729 116.056 118.732 115.058C117.734 114.061 116.381 113.5 114.97 113.5ZM23.44 117.5C23.79 117.5 24.1258 117.639 24.3733 117.887C24.6209 118.134 24.76 118.47 24.76 118.82C24.76 119.17 24.6209 119.506 24.3733 119.753C24.1258 120.001 23.79 120.14 23.44 120.14H6.02996C5.67987 120.14 5.34413 120.001 5.09658 119.753C4.84903 119.506 4.70996 119.17 4.70996 118.82C4.70996 118.47 4.84903 118.134 5.09658 117.887C5.34413 117.639 5.67987 117.5 6.02996 117.5H23.44ZM11.86 113.5V62.8601C13.1152 63.2381 14.419 63.4301 15.73 63.4301C16.3588 63.4276 16.9868 63.3842 17.61 63.3001V113.5H11.86ZM25.04 50.1101C25.04 52.5806 24.0586 54.9499 22.3117 56.6968C20.5648 58.4437 18.1955 59.4251 15.725 59.4251C13.2545 59.4251 10.8852 58.4437 9.13826 56.6968C7.39136 54.9499 6.40996 52.5806 6.40996 50.1101V42.3901C6.40996 41.5944 6.72603 40.8314 7.28864 40.2687C7.85125 39.7061 8.61431 39.3901 9.40996 39.3901H25.04V50.1101ZM47.68 50.1101C47.68 52.5819 46.698 54.9525 44.9502 56.7003C43.2024 58.4481 40.8318 59.4301 38.36 59.4301C35.8881 59.4301 33.5176 58.4481 31.7697 56.7003C30.0219 54.9525 29.04 52.5819 29.04 50.1101V39.3901H47.68V50.1101ZM70.32 50.1101C70.32 52.5819 69.338 54.9525 67.5902 56.7003C65.8424 58.4481 63.4718 59.4301 61 59.4301C58.5281 59.4301 56.1576 58.4481 54.4097 56.7003C52.6619 54.9525 51.68 52.5819 51.68 50.1101V39.3901H70.32V50.1101ZM92.96 50.1101C92.96 52.5819 91.978 54.9525 90.2302 56.7003C88.4824 58.4481 86.1118 59.4301 83.64 59.4301C81.1681 59.4301 78.7976 58.4481 77.0497 56.7003C75.3019 54.9525 74.32 52.5819 74.32 50.1101V39.3901H92.96V50.1101ZM19.5 35.3901L59.18 4.99006C59.7028 4.59106 60.3423 4.37493 61 4.37493C61.6577 4.37493 62.2971 4.59106 62.82 4.99006L102.49 35.3901H19.5ZM96.96 50.1101V39.3901H112.59C113.386 39.3901 114.149 39.7061 114.711 40.2687C115.274 40.8314 115.59 41.5944 115.59 42.3901V50.1101C115.59 52.5806 114.609 54.9499 112.862 56.6968C111.115 58.4437 108.745 59.4251 106.275 59.4251C103.804 59.4251 101.435 58.4437 99.6883 56.6968C97.9414 54.9499 96.96 52.5806 96.96 50.1101ZM103.4 63.1201C104.343 63.3257 105.305 63.4296 106.27 63.4301C107.239 63.4307 108.205 63.3234 109.15 63.1101V113.5H103.4V63.1201ZM114.97 120.14H97.57C97.2199 120.14 96.8841 120.001 96.6366 119.753C96.389 119.506 96.25 119.17 96.25 118.82C96.25 118.47 96.389 118.134 96.6366 117.887C96.8841 117.639 97.2199 117.5 97.57 117.5H114.97C115.32 117.5 115.656 117.639 115.903 117.887C116.151 118.134 116.29 118.47 116.29 118.82C116.29 119.17 116.151 119.506 115.903 119.753C115.656 120.001 115.32 120.14 114.97 120.14Z"/>
</mask>
<path d="M114.97 113.5H113.15V61.5201C115.115 60.3332 116.74 58.6593 117.868 56.6604C118.996 54.6616 119.589 52.4053 119.59 50.1101V42.3901C119.588 40.5342 118.85 38.7549 117.537 37.4427C116.225 36.1304 114.446 35.3922 112.59 35.3901H108.86L108.94 35.2801L65.26 1.81006C64.0362 0.87598 62.5394 0.369995 61 0.369995C59.4605 0.369995 57.9637 0.87598 56.74 1.81006L12.93 35.3901H9.40996C7.5541 35.3922 5.77485 36.1304 4.46255 37.4427C3.15026 38.7549 2.41208 40.5342 2.40996 42.3901V50.1101C2.41033 52.2026 2.90401 54.2656 3.85093 56.1316C4.79785 57.9977 6.17134 59.6142 7.85996 60.8501V113.5H6.02996C4.61901 113.5 3.26585 114.061 2.26815 115.058C1.27046 116.056 0.709961 117.409 0.709961 118.82C0.709961 120.231 1.27046 121.584 2.26815 122.582C3.26585 123.58 4.61901 124.14 6.02996 124.14H23.44C24.8509 124.14 26.2041 123.58 27.2018 122.582C28.1995 121.584 28.76 120.231 28.76 118.82C28.76 117.409 28.1995 116.056 27.2018 115.058C26.2041 114.061 24.8509 113.5 23.44 113.5H21.61V62.0601C23.8498 60.9501 25.7342 59.2355 27.05 57.1101C28.2403 59.0419 29.9051 60.6371 31.886 61.7438C33.8669 62.8506 36.0981 63.4321 38.3672 63.4331C40.6363 63.4341 42.8679 62.8546 44.8498 61.7495C46.8317 60.6445 48.4979 59.0508 49.69 57.1201C50.8815 59.05 52.5469 60.643 54.5279 61.7476C56.509 62.8521 58.7396 63.4314 61.0078 63.4304C63.2759 63.4294 65.506 62.8481 67.4861 61.7419C69.4661 60.6356 71.1302 59.0411 72.32 57.1101C73.5112 59.0414 75.1767 60.6358 77.1581 61.7417C79.1395 62.8476 81.3708 63.4281 83.64 63.4281C85.9091 63.4281 88.1405 62.8476 90.1219 61.7417C92.1033 60.6358 93.7688 59.0414 94.96 57.1101C96.0703 58.9106 97.592 60.4219 99.4 61.5201V113.5H97.57C96.159 113.5 94.8058 114.061 93.8082 115.058C92.8105 116.056 92.25 117.409 92.25 118.82C92.25 120.231 92.8105 121.584 93.8082 122.582C94.8058 123.58 96.159 124.14 97.57 124.14H114.97C116.381 124.14 117.734 123.58 118.732 122.582C119.729 121.584 120.29 120.231 120.29 118.82C120.29 117.409 119.729 116.056 118.732 115.058C117.734 114.061 116.381 113.5 114.97 113.5ZM23.44 117.5C23.79 117.5 24.1258 117.639 24.3733 117.887C24.6209 118.134 24.76 118.47 24.76 118.82C24.76 119.17 24.6209 119.506 24.3733 119.753C24.1258 120.001 23.79 120.14 23.44 120.14H6.02996C5.67987 120.14 5.34413 120.001 5.09658 119.753C4.84903 119.506 4.70996 119.17 4.70996 118.82C4.70996 118.47 4.84903 118.134 5.09658 117.887C5.34413 117.639 5.67987 117.5 6.02996 117.5H23.44ZM11.86 113.5V62.8601C13.1152 63.2381 14.419 63.4301 15.73 63.4301C16.3588 63.4276 16.9868 63.3842 17.61 63.3001V113.5H11.86ZM25.04 50.1101C25.04 52.5806 24.0586 54.9499 22.3117 56.6968C20.5648 58.4437 18.1955 59.4251 15.725 59.4251C13.2545 59.4251 10.8852 58.4437 9.13826 56.6968C7.39136 54.9499 6.40996 52.5806 6.40996 50.1101V42.3901C6.40996 41.5944 6.72603 40.8314 7.28864 40.2687C7.85125 39.7061 8.61431 39.3901 9.40996 39.3901H25.04V50.1101ZM47.68 50.1101C47.68 52.5819 46.698 54.9525 44.9502 56.7003C43.2024 58.4481 40.8318 59.4301 38.36 59.4301C35.8881 59.4301 33.5176 58.4481 31.7697 56.7003C30.0219 54.9525 29.04 52.5819 29.04 50.1101V39.3901H47.68V50.1101ZM70.32 50.1101C70.32 52.5819 69.338 54.9525 67.5902 56.7003C65.8424 58.4481 63.4718 59.4301 61 59.4301C58.5281 59.4301 56.1576 58.4481 54.4097 56.7003C52.6619 54.9525 51.68 52.5819 51.68 50.1101V39.3901H70.32V50.1101ZM92.96 50.1101C92.96 52.5819 91.978 54.9525 90.2302 56.7003C88.4824 58.4481 86.1118 59.4301 83.64 59.4301C81.1681 59.4301 78.7976 58.4481 77.0497 56.7003C75.3019 54.9525 74.32 52.5819 74.32 50.1101V39.3901H92.96V50.1101ZM19.5 35.3901L59.18 4.99006C59.7028 4.59106 60.3423 4.37493 61 4.37493C61.6577 4.37493 62.2971 4.59106 62.82 4.99006L102.49 35.3901H19.5ZM96.96 50.1101V39.3901H112.59C113.386 39.3901 114.149 39.7061 114.711 40.2687C115.274 40.8314 115.59 41.5944 115.59 42.3901V50.1101C115.59 52.5806 114.609 54.9499 112.862 56.6968C111.115 58.4437 108.745 59.4251 106.275 59.4251C103.804 59.4251 101.435 58.4437 99.6883 56.6968C97.9414 54.9499 96.96 52.5806 96.96 50.1101ZM103.4 63.1201C104.343 63.3257 105.305 63.4296 106.27 63.4301C107.239 63.4307 108.205 63.3234 109.15 63.1101V113.5H103.4V63.1201ZM114.97 120.14H97.57C97.2199 120.14 96.8841 120.001 96.6366 119.753C96.389 119.506 96.25 119.17 96.25 118.82C96.25 118.47 96.389 118.134 96.6366 117.887C96.8841 117.639 97.2199 117.5 97.57 117.5H114.97C115.32 117.5 115.656 117.639 115.903 117.887C116.151 118.134 116.29 118.47 116.29 118.82C116.29 119.17 116.151 119.506 115.903 119.753C115.656 120.001 115.32 120.14 114.97 120.14Z" fill="#CCCCCC" stroke="black" mask="url(#path-1-inside-1_78_41)"/>
</svg>
