<svg width="69" height="64" viewBox="0 0 69 64" fill="none" xmlns="http://www.w3.org/2000/svg">
<circle cx="37" cy="32" r="32" fill="#E07A5F"/>
<circle cx="32" cy="32" r="31.5" fill="#DAE2D5" stroke="#003638"/>
<path d="M32 26.3125C30.4916 26.3125 29.0449 26.9117 27.9783 27.9783C26.9117 29.0449 26.3125 30.4916 26.3125 32C26.3125 33.5084 26.9117 34.9551 27.9783 36.0217C29.0449 37.0883 30.4916 37.6875 32 37.6875C33.5084 37.6875 34.9551 37.0883 36.0217 36.0217C37.0883 34.9551 37.6875 33.5084 37.6875 32C37.6875 30.4916 37.0883 29.0449 36.0217 27.9783C34.9551 26.9117 33.5084 26.3125 32 26.3125Z" fill="#003638"/>
<path fill-rule="evenodd" clip-rule="evenodd" d="M22.8475 16.3935C28.9305 15.7192 35.0695 15.7192 41.1525 16.3935C44.4757 16.7645 47.155 19.3808 47.5452 22.7163C48.2666 28.8844 48.2666 35.1156 47.5452 41.2838C47.155 44.6193 44.4757 47.2355 41.1542 47.6083C35.0706 48.2827 28.9311 48.2827 22.8475 47.6083C19.5242 47.2355 16.845 44.6193 16.4547 41.2855C15.7333 35.1168 15.7333 28.885 16.4547 22.7163C16.845 19.3808 19.5242 16.7645 22.8475 16.3935ZM40.75 21.5C40.2859 21.5 39.8407 21.6844 39.5126 22.0126C39.1844 22.3408 39 22.7859 39 23.25C39 23.7142 39.1844 24.1593 39.5126 24.4875C39.8407 24.8156 40.2859 25 40.75 25C41.2141 25 41.6592 24.8156 41.9874 24.4875C42.3156 24.1593 42.5 23.7142 42.5 23.25C42.5 22.7859 42.3156 22.3408 41.9874 22.0126C41.6592 21.6844 41.2141 21.5 40.75 21.5ZM23.6875 32C23.6875 29.7954 24.5633 27.6811 26.1222 26.1222C27.6811 24.5633 29.7954 23.6875 32 23.6875C34.2046 23.6875 36.3189 24.5633 37.8778 26.1222C39.4367 27.6811 40.3125 29.7954 40.3125 32C40.3125 34.2046 39.4367 36.319 37.8778 37.8778C36.3189 39.4367 34.2046 40.3125 32 40.3125C29.7954 40.3125 27.6811 39.4367 26.1222 37.8778C24.5633 36.319 23.6875 34.2046 23.6875 32Z" fill="#003638"/>
</svg>
