<svg width="69" height="64" viewBox="0 0 69 64" fill="none" xmlns="http://www.w3.org/2000/svg">
<circle cx="37" cy="32" r="32" fill="#E07A5F"/>
<circle cx="32" cy="32" r="31.5" fill="#DAE2D5" stroke="#003638"/>
<path d="M46.1103 22.7072C41.0703 14.9372 30.7803 12.6272 22.8003 17.4572C15.0303 22.2872 12.5103 32.7872 17.5503 40.5572L17.9703 41.1872L16.2903 47.4872L22.5903 45.8072L23.2203 46.2272C25.9503 47.6972 28.8903 48.5372 31.8303 48.5372C34.9803 48.5372 38.1303 47.6972 40.8603 46.0172C48.6303 40.9772 50.9403 30.6872 46.1103 22.7072ZM41.7003 38.8772C40.8603 40.1372 39.8103 40.9772 38.3403 41.1872C37.5003 41.1872 36.4503 41.6072 32.2503 39.9272C28.6803 38.2472 25.7403 35.5172 23.6403 32.3672C22.3803 30.8972 21.7503 29.0072 21.5403 27.1172C21.5403 25.4372 22.1703 23.9672 23.2203 22.9172C23.6403 22.4972 24.0603 22.2872 24.4803 22.2872H25.5303C25.9503 22.2872 26.3703 22.2872 26.5803 23.1272C27.0003 24.1772 28.0503 26.6972 28.0503 26.9072C28.2603 27.1172 28.2603 27.5372 28.0503 27.7472C28.2603 28.1672 28.0503 28.5872 27.8403 28.7972C27.6303 29.0072 27.4203 29.4272 27.2103 29.6372C26.7903 29.8472 26.5803 30.2672 26.7903 30.6872C27.6303 31.9472 28.6803 33.2072 29.7303 34.2572C30.9903 35.3072 32.2503 36.1472 33.7203 36.7772C34.1403 36.9872 34.5603 36.9872 34.7703 36.5672C34.9803 36.1472 36.0303 35.0972 36.4503 34.6772C36.8703 34.2572 37.0803 34.2572 37.5003 34.4672L40.8603 36.1472C41.2803 36.3572 41.7003 36.5672 41.9103 36.7772C42.1203 37.4072 42.1203 38.2472 41.7003 38.8772Z" fill="#003638"/>
</svg>
