<svg width="2000" height="1000" xmlns="http://www.w3.org/2000/svg"><defs><linearGradient id="a" gradientTransform="rotate(90)"><stop offset="5%" stop-color="#070707"/><stop offset="95%" stop-color="#454545"/></linearGradient><linearGradient id="b" gradientTransform="rotate(90)"><stop offset="5%" stop-color="#050505"/><stop offset="95%" stop-color="#434343"/></linearGradient><linearGradient id="c" gradientTransform="rotate(90)"><stop offset="5%" stop-color="#020202"/><stop offset="95%" stop-color="#414141"/></linearGradient><linearGradient id="d" gradientTransform="rotate(90)"><stop offset="5%"/><stop offset="95%" stop-color="#3f3f3f"/></linearGradient><linearGradient id="e" gradientTransform="rotate(90)"><stop offset="5%" stop-color="#2c2b2c"/><stop offset="95%" stop-color="#606060"/></linearGradient><linearGradient id="f" gradientTransform="rotate(90)"><stop offset="5%" stop-color="#575757"/><stop offset="95%" stop-color="#818181"/></linearGradient><linearGradient id="g" gradientTransform="rotate(90)"><stop offset="5%" stop-color="#838283"/><stop offset="95%" stop-color="#a2a1a2"/></linearGradient><linearGradient id="h" gradientTransform="rotate(90)"><stop offset="5%" stop-color="#aeadae"/><stop offset="95%" stop-color="#c2c1c2"/></linearGradient></defs><path fill="#090909" d="M0 0h2000v1000H0z"/><path d="M0 111c101.992-8.346 203.984-16.693 316-12 112.016 4.693 234.056 22.424 347 26 112.944 3.576 216.792-7.003 325-10s220.778 1.588 333-1c112.222-2.588 224.098-12.35 346-13 121.902-.65 253.829 7.814 311 11 57.171 3.186 39.585 1.093 62-1l-40 889H0Z" fill="url(#a)"/><path d="M0 222c105.237 9.134 210.474 18.267 329 13 118.526-5.267 250.342-24.935 355-26 104.658-1.065 182.16 16.474 293 19s255.019-9.962 365-14 185.764.374 310 0c124.236-.374 296.925-5.536 363-5 66.075.536 25.538 6.768 25 13l-40 778H0Z" fill="url(#b)"/><path d="M0 333c110.745-5.588 221.49-11.177 331-10 109.51 1.177 217.785 9.12 323 15 105.215 5.88 207.37 9.7 327 9 119.63-.7 256.736-5.92 372-12 115.264-6.08 208.686-13.022 325-10 116.314 3.022 255.518 16.006 313 19 57.482 2.994 33.24-4.003 49-11l-40 667H0Z" fill="url(#c)"/><path d="M0 444c102.16 5.602 204.32 11.204 310 9 105.68-2.204 214.883-12.215 332-18 117.117-5.785 242.15-7.343 364-1s240.516 20.587 342 25c101.484 4.413 185.784-1.004 309-5 123.216-3.996 285.347-6.57 349-8 63.653-1.43 28.826-1.715 34-2l-40 556H0Z" fill="url(#d)"/><path d="M0 555c101.202-9.9 202.404-19.8 318-15 115.596 4.8 245.587 24.303 361 29 115.413 4.697 216.249-5.41 326-7 109.751-1.59 228.418 5.337 331 3 102.582-2.337 189.08-13.937 307-16 117.92-2.063 267.263 5.41 332 8 64.737 2.59 44.869.295 65-2l-40 445H0Z" fill="url(#e)"/><path d="M0 666c111.312-8.475 222.625-16.95 332-16 109.375.95 216.813 11.328 331 16 114.187 4.672 235.125 3.639 355 5 119.875 1.361 238.688 5.117 339-1 100.312-6.117 182.122-22.109 306-20 123.878 2.109 289.822 22.317 353 28s23.589-3.158 24-12l-40 334H0Z" fill="url(#f)"/><path d="M0 777c107.242 1.905 214.485 3.81 323 7 108.515 3.19 218.303 7.664 325 5 106.697-2.664 210.303-12.465 330-18s255.486-6.803 370-8c114.514-1.197 207.754-2.322 333-1 125.246 1.322 282.499 5.092 341 8 58.501 2.908 18.25 4.954 18 7l-40 223H0Z" fill="url(#g)"/><path d="M0 888c113.151 6.371 226.302 12.742 335 13 108.698.258 212.943-5.597 326-12 113.057-6.403 234.927-13.354 342-13 107.073.354 199.35 8.012 310 14 110.65 5.988 239.675 10.304 371 8 131.325-2.304 264.95-11.23 318-14 53.05-2.77 25.525.615 38 4l-40 112H0Z" fill="url(#h)"/><path d="M0 999c104.547 5.865 209.094 11.73 318 9 108.906-2.73 222.17-14.057 331-17 108.83-2.943 213.225 2.499 332 1s251.93-9.938 367-9c115.07.938 212.057 11.252 332 17 119.943 5.748 262.84 6.928 320 6 57.16-.928 28.58-3.964 40-7l-40 1H0Z" fill="url(#gradient_9)"/></svg>