<svg width="92" height="80" viewBox="0 0 92 80" fill="none" xmlns="http://www.w3.org/2000/svg">
<path d="M3.00049 0C1.34359 0 0.000488281 1.34315 0.000488281 3C0.000488281 4.65685 1.34359 6 3.00049 6H14.9693C19.9345 18.2975 24.8252 30.6175 29.7505 42.9375L25.2193 53.8437C24.8397 54.753 24.9465 55.8494 25.4944 56.6683C26.0424 57.4872 27.0152 58.0041 28.0005 58H78.0005C79.5854 58.022 81.0432 56.5851 81.0432 55C81.0432 53.4149 79.5854 51.9776 78.0005 52H32.5005L35.0943 45.8125L83.2505 41.9688C84.511 41.8698 85.652 40.8878 85.938 39.6563L91.938 13.6562C92.3304 11.905 90.7951 9.99415 89.0005 10H23.0317L19.7817 1.875C19.3367 0.77518 18.1869 3e-05 17.0005 0H3.00049ZM25.438 16H85.2193L80.563 36.1875L34.9693 39.8125L25.438 16ZM38.0005 60C32.5132 60 28.0005 64.5126 28.0005 70C28.0005 75.4873 32.5132 80 38.0005 80C43.4878 80 48.0005 75.4873 48.0005 70C48.0005 64.5127 43.4878 60 38.0005 60ZM68.0005 60C62.5132 60 58.0005 64.5127 58.0005 70C58.0005 75.4873 62.5132 80 68.0005 80C73.4878 80 78.0005 75.4873 78.0005 70C78.0005 64.5126 73.4878 60 68.0005 60ZM38.0005 66C40.2452 66 42.0005 67.7553 42.0005 70C42.0005 72.2447 40.2452 74 38.0005 74C35.756 74 34.0005 72.2446 34.0005 70C34.0005 67.7554 35.756 66 38.0005 66ZM68.0005 66C70.245 66 72.0005 67.7554 72.0005 70C72.0005 72.2446 70.245 74 68.0005 74C65.7558 74 64.0005 72.2447 64.0005 70C64.0005 67.7553 65.7558 66 68.0005 66Z" fill="white"/>
</svg>
