<svg width="326" height="242" viewBox="0 0 326 242" fill="none" xmlns="http://www.w3.org/2000/svg">
<g filter="url(#filter0_d_99_3)">
<mask id="path-1-outside-1_99_3" maskUnits="userSpaceOnUse" x="-1" y="-1" width="271" height="199" fill="black">
<rect fill="white" x="-1" y="-1" width="271" height="199"/>
<path d="M0.399998 196.2C5.19998 175.933 10.2666 154.067 15.6 130.6C20.9333 107.133 25.7333 84.2 30 61.8C34.2667 39.4 37.7333 18.8667 40.4 0.200009L116.4 0.200009L122 9.00002C117.2 27.6667 111.067 47.6667 103.6 69C96.1333 90.8667 87.8667 112.733 78.8 134.6C69.7333 156.467 60.9333 177 52.4 196.2H0.399998ZM148.4 196.2C153.2 175.933 158.267 154.067 163.6 130.6C168.933 107.133 173.733 84.2 178 61.8C182.267 39.4 185.733 18.8667 188.4 0.200009H263.6L268.4 9.00002C263.6 27.6667 257.467 47.6667 250 69C242.533 90.8667 234.533 112.733 226 134.6C216.933 156.467 208.133 177 199.6 196.2L148.4 196.2Z"/>
</mask>
<path d="M0.399998 196.2C5.19998 175.933 10.2666 154.067 15.6 130.6C20.9333 107.133 25.7333 84.2 30 61.8C34.2667 39.4 37.7333 18.8667 40.4 0.200009L116.4 0.200009L122 9.00002C117.2 27.6667 111.067 47.6667 103.6 69C96.1333 90.8667 87.8667 112.733 78.8 134.6C69.7333 156.467 60.9333 177 52.4 196.2H0.399998ZM148.4 196.2C153.2 175.933 158.267 154.067 163.6 130.6C168.933 107.133 173.733 84.2 178 61.8C182.267 39.4 185.733 18.8667 188.4 0.200009H263.6L268.4 9.00002C263.6 27.6667 257.467 47.6667 250 69C242.533 90.8667 234.533 112.733 226 134.6C216.933 156.467 208.133 177 199.6 196.2L148.4 196.2Z" fill="#F2A183"/>
<path d="M0.399998 196.2L-0.573083 195.97L-0.864508 197.2H0.399998V196.2ZM15.6 130.6L16.5751 130.822L16.5751 130.822L15.6 130.6ZM30 61.8L30.9823 61.9871L30.9823 61.9871L30 61.8ZM40.4 0.200009V-0.799991H39.5327L39.41 0.0585881L40.4 0.200009ZM116.4 0.200009L117.244 -0.336866L116.949 -0.799991H116.4V0.200009ZM122 9.00002L122.968 9.24906L123.076 8.82903L122.844 8.46314L122 9.00002ZM103.6 69L102.656 68.6696L102.654 68.6769L103.6 69ZM78.8 134.6L77.8762 134.217L77.8762 134.217L78.8 134.6ZM52.4 196.2V197.2H53.0499L53.3138 196.606L52.4 196.2ZM148.4 196.2L147.427 195.97L147.135 197.2H148.4V196.2ZM178 61.8L178.982 61.9871L178.982 61.9871L178 61.8ZM188.4 0.200009V-0.799991H187.533L187.41 0.0585879L188.4 0.200009ZM263.6 0.200009L264.478 -0.278843L264.194 -0.799991H263.6V0.200009ZM268.4 9.00002L269.368 9.24906L269.467 8.86725L269.278 8.52116L268.4 9.00002ZM250 69L249.056 68.6696L249.054 68.6769L250 69ZM226 134.6L226.924 134.983L226.928 134.973L226.932 134.964L226 134.6ZM199.6 196.2V197.2H200.25L200.514 196.606L199.6 196.2ZM1.37308 196.431C6.17386 176.16 11.2412 154.291 16.5751 130.822L14.6249 130.378C9.29209 153.843 4.22611 175.706 -0.573083 195.97L1.37308 196.431ZM16.5751 130.822C21.9109 107.344 26.7133 84.3993 30.9823 61.9871L29.0177 61.6129C24.7533 84.0007 19.9557 106.923 14.6249 130.378L16.5751 130.822ZM30.9823 61.9871C35.2513 39.575 38.7207 19.0261 41.3899 0.341431L39.41 0.0585881C36.7459 18.7072 33.282 39.2251 29.0177 61.6129L30.9823 61.9871ZM40.4 1.20001L116.4 1.20001V-0.799991L40.4 -0.799991V1.20001ZM115.556 0.736885L121.156 9.53689L122.844 8.46314L117.244 -0.336866L115.556 0.736885ZM121.032 8.75097C116.24 27.386 110.115 47.3587 102.656 68.6697L104.544 69.3304C112.018 47.9747 118.16 27.9474 122.968 9.24906L121.032 8.75097ZM102.654 68.6769C95.194 90.5229 86.9349 112.37 77.8762 134.217L79.7237 134.983C88.7984 113.097 97.0726 91.2105 104.546 69.3231L102.654 68.6769ZM77.8762 134.217C68.8124 156.077 60.0157 176.602 51.4862 195.794L53.3138 196.606C61.8509 177.398 70.6543 156.857 79.7237 134.983L77.8762 134.217ZM52.4 195.2H0.399998V197.2H52.4V195.2ZM149.373 196.431C154.174 176.16 159.241 154.291 164.575 130.822L162.625 130.378C157.292 153.843 152.226 175.706 147.427 195.97L149.373 196.431ZM164.575 130.822C169.911 107.344 174.713 84.3993 178.982 61.9871L177.018 61.6129C172.753 84.0007 167.956 106.923 162.625 130.378L164.575 130.822ZM178.982 61.9871C183.251 39.575 186.721 19.0261 189.39 0.341431L187.41 0.0585879C184.746 18.7072 181.282 39.2251 177.018 61.6129L178.982 61.9871ZM188.4 1.20001H263.6V-0.799991H188.4V1.20001ZM262.722 0.678861L267.522 9.47887L269.278 8.52116L264.478 -0.278843L262.722 0.678861ZM267.432 8.75097C262.64 27.386 256.515 47.3587 249.056 68.6697L250.944 69.3304C258.418 47.9747 264.56 27.9474 269.368 9.24906L267.432 8.75097ZM249.054 68.6769C241.592 90.5297 233.597 112.383 225.068 134.236L226.932 134.964C235.47 113.084 243.475 91.2036 250.946 69.3231L249.054 68.6769ZM225.076 134.217C216.012 156.077 207.216 176.602 198.686 195.794L200.514 196.606C209.051 177.398 217.854 156.857 226.924 134.983L225.076 134.217ZM199.6 195.2L148.4 195.2V197.2L199.6 197.2V195.2Z" fill="black" mask="url(#path-1-outside-1_99_3)"/>
</g>
<defs>
<filter id="filter0_d_99_3" x="0.400024" y="0.199951" width="325" height="241" filterUnits="userSpaceOnUse" color-interpolation-filters="sRGB">
<feFlood flood-opacity="0" result="BackgroundImageFix"/>
<feColorMatrix in="SourceAlpha" type="matrix" values="0 0 0 0 0 0 0 0 0 0 0 0 0 0 0 0 0 0 127 0" result="hardAlpha"/>
<feOffset dx="53" dy="41"/>
<feGaussianBlur stdDeviation="2"/>
<feComposite in2="hardAlpha" operator="out"/>
<feColorMatrix type="matrix" values="0 0 0 0 0.854902 0 0 0 0 0.886275 0 0 0 0 0.835294 0 0 0 1 0"/>
<feBlend mode="normal" in2="BackgroundImageFix" result="effect1_dropShadow_99_3"/>
<feBlend mode="normal" in="SourceGraphic" in2="effect1_dropShadow_99_3" result="shape"/>
</filter>
</defs>
</svg>
