<svg width="56" height="44" viewBox="0 0 56 44" fill="none" xmlns="http://www.w3.org/2000/svg">
<path d="M28 41.0897C31.1724 41.069 34.315 40.4755 37.2764 39.3377C38.6567 38.8247 39.9998 38.2164 41.2958 37.5172L46.7393 42.9607C46.8785 43.1 47.0439 43.2105 47.2258 43.2859C47.4078 43.3612 47.6028 43.4 47.7998 43.4C47.9968 43.4 48.1918 43.3612 48.3738 43.2859C48.5557 43.2105 48.7211 43.1 48.8604 42.9607C48.9996 42.8215 49.1101 42.6561 49.1855 42.4741C49.2609 42.2922 49.2996 42.0971 49.2996 41.9002C49.2996 41.7032 49.2608 41.5082 49.1855 41.3262C49.1101 41.1442 48.9996 40.9789 48.8604 40.8396L34.7258 26.7048L34.7246 26.703L34.7227 26.7017L9.06055 1.0389C8.92128 0.89963 8.75593 0.789153 8.57397 0.713778C8.392 0.638404 8.19696 0.599609 8 0.599609C7.80304 0.599609 7.608 0.638404 7.42603 0.713778C7.24407 0.789153 7.07872 0.89963 6.93945 1.0389C6.80018 1.17818 6.6897 1.34352 6.61432 1.52549C6.53895 1.70746 6.50016 1.90249 6.50016 2.09945C6.50016 2.29642 6.53895 2.49145 6.61432 2.67342C6.6897 2.85539 6.80018 3.02073 6.93945 3.16L12.0076 8.22829C11.0757 8.82479 10.1494 9.45529 9.24316 10.1532C4.05957 14.1571 0 19.4041 0 22.0995C0 26.6141 12.915 41.0897 28 41.0897ZM22.4705 18.6914L31.3989 27.6201C30.5892 28.1295 29.6752 28.4499 28.7246 28.5575C28.484 28.5843 28.2421 28.5984 28 28.5995C26.843 28.6007 25.7067 28.2927 24.7087 27.7074C23.7106 27.1222 22.8871 26.2809 22.3232 25.2706C21.7594 24.2603 21.4757 23.1176 21.5016 21.9609C21.5275 20.8042 21.862 19.6754 22.4705 18.6914ZM11.0752 12.5282C12.0742 11.7668 13.1129 11.0589 14.1868 10.4075L20.3118 16.5327C19.2828 17.9493 18.6658 19.623 18.529 21.3685C18.3922 23.1141 18.741 24.8635 19.5369 26.423C20.3327 27.9826 21.5445 29.2917 23.0381 30.2052C24.5318 31.1188 26.2491 31.6014 28 31.5995C28.3475 31.5981 28.6946 31.5786 29.04 31.5409C30.676 31.3597 32.2368 30.7567 33.5697 29.791L39.068 35.2894C38.1459 35.7532 37.199 36.1658 36.2314 36.5252C33.6043 37.5384 30.8156 38.0684 28 38.0897C14.082 38.0897 3.02734 24.5819 3 22.0995C3 21.1815 5.4834 16.8485 11.0752 12.5282Z" fill="white"/>
<path d="M27.9998 3.10938C24.8208 3.12939 21.6709 3.71638 18.6981 4.84278C18.3251 4.98109 18.0224 5.26189 17.8564 5.62341C17.6905 5.98494 17.675 6.39756 17.8133 6.77052C17.9516 7.14349 18.2324 7.44623 18.5939 7.61215C18.9555 7.77807 19.3681 7.79359 19.7411 7.65528C22.3803 6.65345 25.1769 6.12996 27.9998 6.10938C42.0164 6.10937 52.9998 19.6152 52.9998 22.0928C52.951 23.0108 50.3738 27.334 44.8592 31.625C44.7038 31.7459 44.5737 31.8963 44.4764 32.0675C44.379 32.2387 44.3164 32.4274 44.292 32.6228C44.2676 32.8183 44.2819 33.0166 44.3342 33.2064C44.3864 33.3963 44.4756 33.5741 44.5965 33.7295C44.7174 33.8849 44.8678 34.015 45.039 34.1123C45.2102 34.2097 45.3989 34.2723 45.5943 34.2967C45.7898 34.3211 45.9881 34.3067 46.178 34.2545C46.3678 34.2023 46.5456 34.1131 46.701 33.9922C51.8289 30.0029 55.9998 24.668 55.9998 22.0986C55.9998 17.584 43.0848 3.10938 27.9998 3.10938Z" fill="white"/>
</svg>
