<svg width="549" height="80" viewBox="0 0 549 80" fill="none" xmlns="http://www.w3.org/2000/svg">
<path fill-rule="evenodd" clip-rule="evenodd" d="M73.5113 7.11572C76.8142 7.11572 79.5243 10.079 79.5243 13.7008C79.5243 17.3226 76.8142 20.2859 73.5113 20.2859C70.2084 20.2859 67.4983 17.3226 67.4983 13.7008C67.4983 10.079 70.2084 7.11572 73.5113 7.11572Z" fill="url(#paint0_linear_166_51)"/>
<path fill-rule="evenodd" clip-rule="evenodd" d="M75.0357 30.7397C73.4266 30.7397 72.0715 32.0568 72.0715 33.6207C72.0715 35.1847 73.4266 36.5017 75.0357 36.5017V30.6574V30.7397Z" fill="url(#paint1_linear_166_51)"/>
<path fill-rule="evenodd" clip-rule="evenodd" d="M81.1335 21.6852C82.1498 21.6852 83.166 22.1791 83.6742 23.0846L89.4331 31.9744C90.7882 34.1146 89.6025 36.6663 87.0618 36.6663H85.0292V29.8343C81.7263 29.8343 78.3387 29.8343 75.0358 29.8343C72.8338 29.8343 71.0553 31.5629 71.0553 33.703C71.0553 35.8432 72.8338 37.5718 75.0358 37.5718V47.2847H82.4038V53.7052H81.811V74.119C81.811 75.6829 80.4559 77 78.8468 77H77.0683C75.4592 77 74.1042 75.6829 74.1042 74.119V53.7052H72.9185V74.119C72.9185 75.6829 71.5635 77 69.9543 77H68.1758C66.5667 77 65.2117 75.6829 65.2117 74.119V53.7052H64.6188V28.435L57.1661 30.4105C56.1498 30.6574 55.0488 30.4105 54.2866 29.6696C51.4071 26.9533 48.6124 24.1546 45.7329 21.356C44.5472 20.2036 44.5472 18.3927 45.7329 17.2403C46.9185 16.0879 48.7817 16.0879 49.9674 17.2403L57.2508 24.3192L67.1596 21.7676C67.4136 21.6852 67.6677 21.6852 68.0065 21.6852H81.2182H81.1335Z" fill="url(#paint2_linear_166_51)"/>
<path fill-rule="evenodd" clip-rule="evenodd" d="M39.5504 13.9477H59.1986C59.574 13.9477 59.8762 14.2231 59.8762 14.5651C59.8762 14.9071 59.574 15.1825 59.1986 15.1825H39.5504C39.1751 15.1825 38.8729 14.9071 38.8729 14.5651C38.8729 14.2231 39.1751 13.9477 39.5504 13.9477Z" fill="url(#paint3_linear_166_51)"/>
<path fill-rule="evenodd" clip-rule="evenodd" d="M49.3745 5.2225C54.3713 5.2225 58.3517 8.59732 58.3517 12.713H40.3973C40.3973 8.59732 44.4625 5.2225 49.3745 5.2225Z" fill="url(#paint4_linear_166_51)"/>
<path fill-rule="evenodd" clip-rule="evenodd" d="M50.1367 3.74082C50.1367 4.14997 49.7955 4.48165 49.3745 4.48165C48.9536 4.48165 48.6123 4.14997 48.6123 3.74082C48.6123 3.33168 48.9536 3 49.3745 3C49.7955 3 50.1367 3.33168 50.1367 3.74082Z" fill="url(#paint5_linear_166_51)"/>
<path fill-rule="evenodd" clip-rule="evenodd" d="M52.4234 49.0956L54.9641 73.3781H0L2.54071 49.0956H52.4234Z" fill="url(#paint6_linear_166_51)"/>
<path fill-rule="evenodd" clip-rule="evenodd" d="M6.26709 74.5305H11.2638V76.9175H6.26709V74.5305Z" fill="url(#paint7_linear_166_51)"/>
<path fill-rule="evenodd" clip-rule="evenodd" d="M43.7003 74.5305H48.6971V76.9175H43.7003V74.5305Z" fill="url(#paint8_linear_166_51)"/>
<path fill-rule="evenodd" clip-rule="evenodd" d="M28.2019 34.7731L28.9641 33.2914H27.4397H25.9153L26.6775 34.7731L26.254 40.4527L24.3908 33.3738C21.0879 33.3738 18.3778 36.0078 18.3778 39.2181V47.9433H36.3322V39.2181C36.3322 36.0078 33.6221 33.3738 30.3192 33.3738L28.456 40.4527L28.0325 34.7731H28.2019Z" fill="url(#paint9_linear_166_51)"/>
<path fill-rule="evenodd" clip-rule="evenodd" d="M27.4397 18.7219C30.7426 18.7219 33.4527 21.6852 33.4527 25.307C33.4527 28.9288 30.7426 31.8921 27.4397 31.8921C24.1367 31.8921 21.4266 28.9288 21.4266 25.307C21.4266 21.6852 24.1367 18.7219 27.4397 18.7219Z" fill="url(#paint10_linear_166_51)"/>
<path fill-rule="evenodd" clip-rule="evenodd" d="M11.5179 37.7363C10.1628 39.9588 11.0944 43.5807 13.6351 43.9099V46.2969C13.6351 47.367 11.6026 47.4493 11.6026 47.861H13.6351H14.3973H16.4299C16.4299 47.4493 14.3973 47.4494 14.3973 46.2969V43.9099C16.9381 43.5807 17.9543 39.9588 16.5146 37.7363H11.4332H11.5179ZM11.7719 38.1479H16.4299C16.684 38.6418 16.8534 39.3004 16.8534 39.8765C16.9381 41.5228 16.0065 43.5807 14.0586 43.5807C13.6351 43.5807 13.127 43.4981 12.7882 43.2514C11.6873 42.5929 11.2638 41.1112 11.2638 39.8765C11.2638 39.3004 11.4332 38.7241 11.6872 38.1479H11.7719Z" fill="url(#paint11_linear_166_51)"/>
<path fill-rule="evenodd" clip-rule="evenodd" d="M16.4299 39.7119C16.4299 39.7945 16.4299 39.7945 16.4299 39.8765C16.5146 41.2758 15.7524 43.169 14.0586 43.169C13.6351 43.169 13.2963 43.0864 12.9576 42.8398C12.026 42.2636 11.6025 40.8643 11.6872 39.7942V39.7116C13.381 40.9463 14.6514 39.0531 16.4299 39.629V39.7119Z" fill="url(#paint12_linear_166_51)"/>
<path fill-rule="evenodd" clip-rule="evenodd" d="M8.29961 31.1513H6.26704C6.18235 31.1513 6.09766 31.0689 6.09766 30.9866V29.4227C6.09766 29.3404 6.18235 29.2581 6.26704 29.2581H8.29961C8.3843 29.2581 8.46899 29.3404 8.46899 29.4227V30.9866C8.46899 31.069 8.3843 31.1513 8.29961 31.1513Z" fill="url(#paint13_linear_166_51)"/>
<path fill-rule="evenodd" clip-rule="evenodd" d="M4.48865 38.971V42.8398H8.4691V38.971H4.48865Z" fill="url(#paint14_linear_166_51)"/>
<path fill-rule="evenodd" clip-rule="evenodd" d="M6.26715 34.0322C5.25086 34.4438 4.48865 35.4316 4.48865 36.584V38.5595H8.89255V43.2514H4.48865V47.1202C4.48865 47.5317 4.82741 47.861 5.25086 47.861H9.23131C9.65476 47.861 9.99353 47.5317 9.99353 47.1202V36.6663C9.99353 35.5139 9.23131 34.5262 8.21503 34.1146V31.6452H6.18246V34.1146L6.26715 34.0322Z" fill="url(#paint15_linear_166_51)"/>
<path fill-rule="evenodd" clip-rule="evenodd" d="M84.0976 30.7397V46.297H76.052V30.7397H84.0976Z" fill="url(#paint16_linear_166_51)"/>
<line x1="116" y1="3.74601e-08" x2="116" y2="80" stroke="url(#paint17_linear_166_51)" stroke-width="2"/>
<path d="M149.035 37.82C147.258 36.52 145.785 35.025 144.615 33.335C143.488 31.6017 142.925 29.4783 142.925 26.965C142.925 23.6283 144.095 20.9417 146.435 18.905C148.775 16.8683 152.415 15.8283 157.355 15.785C161.905 15.785 165.892 16.7817 169.315 18.775V34.05C169.012 31.84 168.167 29.435 166.78 26.835C165.393 24.235 163.573 21.96 161.32 20.01C159.11 18.06 156.597 17.085 153.78 17.085C150.27 17.085 148.515 18.905 148.515 22.545C148.515 24.7117 149.078 26.6183 150.205 28.265C151.332 29.8683 152.762 31.3417 154.495 32.685C156.228 33.985 158.092 35.2417 160.085 36.455C162.078 37.6683 163.985 38.9683 165.805 40.355C167.625 41.6983 169.12 43.2367 170.29 44.97C171.46 46.7033 172.045 48.74 172.045 51.08C172.045 54.85 170.485 57.7317 167.365 59.725C164.245 61.675 160.237 62.65 155.34 62.65C150.27 62.65 146.002 61.5667 142.535 59.4V40.81C142.882 44.5367 143.792 47.9383 145.265 51.015C146.738 54.0483 148.645 56.4967 150.985 58.36C153.325 60.2233 155.882 61.155 158.655 61.155C159.392 61.155 160.323 61.025 161.45 60.765C162.577 60.4617 163.573 59.8333 164.44 58.88C165.307 57.8833 165.74 56.345 165.74 54.265C165.74 52.055 165.198 50.1917 164.115 48.675C163.075 47.1583 161.71 45.815 160.02 44.645C158.373 43.475 156.618 42.37 154.755 41.33C152.762 40.2467 150.855 39.0767 149.035 37.82ZM195.159 30.67C197.066 31.84 198.431 33.465 199.254 35.545C200.077 37.5817 200.489 39.9217 200.489 42.565V51.405C200.446 53.1817 200.467 54.8717 200.554 56.475C200.684 58.0783 200.987 59.4 201.464 60.44C201.941 61.48 202.764 62 203.934 62C198.344 62 195.029 60.245 193.989 56.735C193.382 58.2517 192.342 59.6167 190.869 60.83C189.439 62 187.272 62.585 184.369 62.585C181.466 62.585 179.147 61.8917 177.414 60.505C175.724 59.075 174.879 57.1033 174.879 54.59C174.879 52.4667 175.421 50.69 176.504 49.26C177.631 47.7867 179.017 46.5083 180.664 45.425C182.311 44.3417 184.001 43.3667 185.734 42.5C187.381 41.6333 188.876 40.7667 190.219 39.9C191.562 39.0333 192.559 38.0583 193.209 36.975C192.819 32.425 191.541 30.15 189.374 30.15C187.727 30.15 186.059 31.32 184.369 33.66C182.679 36 181.834 38.3183 181.834 40.615L176.439 31.775C180.252 29.825 184.001 28.85 187.684 28.85C190.804 28.85 193.296 29.4567 195.159 30.67ZM190.349 59.4C191.259 58.6633 191.974 57.8183 192.494 56.865C193.014 55.8683 193.317 54.9367 193.404 54.07C193.361 53.42 193.339 52.77 193.339 52.12V38.99C192.559 39.9433 191.389 40.8967 189.829 41.85C188.659 42.63 187.467 43.5183 186.254 44.515C185.084 45.5117 184.087 46.725 183.264 48.155C182.441 49.585 182.029 51.3183 182.029 53.355C182.029 55.4783 182.506 57.19 183.459 58.49C184.412 59.79 185.647 60.44 187.164 60.44C188.377 60.44 189.439 60.0933 190.349 59.4ZM211.073 32.1L220.498 52.9L223.618 45.88C224.701 43.3233 225.135 40.4417 224.918 37.235C224.745 33.985 223.965 31.4067 222.578 29.5H232.328L217.313 63.235L203.208 32.1C202.818 31.19 202.385 30.54 201.908 30.15C201.431 29.76 200.695 29.5433 199.698 29.5H214.453C213.326 29.5 212.373 29.695 211.593 30.085C210.856 30.475 210.683 31.1467 211.073 32.1ZM246.693 28.915C250.853 28.915 254.233 30.4967 256.833 33.66C259.477 36.78 260.798 40.81 260.798 45.75C260.798 50.69 259.498 54.72 256.898 57.84C254.298 60.9167 250.897 62.455 246.693 62.455C242.49 62.455 239.067 60.9167 236.423 57.84C233.823 54.72 232.523 50.69 232.523 45.75C232.523 40.81 233.845 36.78 236.488 33.66C239.132 30.4967 242.533 28.915 246.693 28.915ZM239.868 49.39C241.125 52.4233 242.642 54.915 244.418 56.865C246.238 58.7717 248.037 59.855 249.813 60.115C251.547 60.3317 252.933 59.6817 253.973 58.165C255.013 56.6483 255.533 54.5033 255.533 51.73C255.533 48.4367 254.84 45.2083 253.453 42.045C252.067 38.8817 250.377 36.3033 248.383 34.31C246.433 32.2733 244.505 31.2333 242.598 31.19C239.565 31.32 238.048 34.0933 238.048 39.51C238.048 43.02 238.655 46.3133 239.868 49.39ZM271.914 59.4C271.914 60.4833 272.239 61.1983 272.889 61.545C273.582 61.8483 274.406 62 275.359 62H261.319C262.272 62 263.074 61.8483 263.724 61.545C264.417 61.1983 264.764 60.4833 264.764 59.4V33.53C264.764 32.1433 264.439 31.385 263.789 31.255C263.182 31.0817 262.424 31.125 261.514 31.385H261.319L271.914 29.045V34.115C273.387 31.9917 275.554 30.6483 278.414 30.085C281.274 29.5217 283.896 29.24 286.279 29.24L283.679 39.77C282.249 37.1267 281.036 35.3067 280.039 34.31C279.086 33.3133 277.981 32.815 276.724 32.815C275.467 32.815 274.406 33.1833 273.539 33.92C272.672 34.6567 272.131 35.675 271.914 36.975V59.4ZM296.576 32.1L306.001 52.9L309.121 45.88C310.031 43.4967 310.378 40.5933 310.161 37.17C309.944 33.7467 309.251 31.19 308.081 29.5H317.831L303.336 62.13C300.736 68.3267 298.223 72.6383 295.796 75.065C293.369 77.535 290.683 78.77 287.736 78.77V66.875C288.559 68.0017 289.729 68.9767 291.246 69.8C292.806 70.6233 294.518 70.5583 296.381 69.605C298.288 68.6517 300.216 66.0517 302.166 61.805L288.711 32.1C288.321 31.19 287.888 30.54 287.411 30.15C286.934 29.76 286.198 29.5433 285.201 29.5H299.956C298.829 29.5 297.876 29.695 297.096 30.085C296.359 30.475 296.186 31.1467 296.576 32.1ZM347.78 37.82C346.003 36.52 344.53 35.025 343.36 33.335C342.233 31.6017 341.67 29.4783 341.67 26.965C341.67 23.6283 342.84 20.9417 345.18 18.905C347.52 16.8683 351.16 15.8283 356.1 15.785C360.65 15.785 364.637 16.7817 368.06 18.775V34.05C367.757 31.84 366.912 29.435 365.525 26.835C364.138 24.235 362.318 21.96 360.065 20.01C357.855 18.06 355.342 17.085 352.525 17.085C349.015 17.085 347.26 18.905 347.26 22.545C347.26 24.7117 347.823 26.6183 348.95 28.265C350.077 29.8683 351.507 31.3417 353.24 32.685C354.973 33.985 356.837 35.2417 358.83 36.455C360.823 37.6683 362.73 38.9683 364.55 40.355C366.37 41.6983 367.865 43.2367 369.035 44.97C370.205 46.7033 370.79 48.74 370.79 51.08C370.79 54.85 369.23 57.7317 366.11 59.725C362.99 61.675 358.982 62.65 354.085 62.65C349.015 62.65 344.747 61.5667 341.28 59.4V40.81C341.627 44.5367 342.537 47.9383 344.01 51.015C345.483 54.0483 347.39 56.4967 349.73 58.36C352.07 60.2233 354.627 61.155 357.4 61.155C358.137 61.155 359.068 61.025 360.195 60.765C361.322 60.4617 362.318 59.8333 363.185 58.88C364.052 57.8833 364.485 56.345 364.485 54.265C364.485 52.055 363.943 50.1917 362.86 48.675C361.82 47.1583 360.455 45.815 358.765 44.645C357.118 43.475 355.363 42.37 353.5 41.33C351.507 40.2467 349.6 39.0767 347.78 37.82ZM387.079 61.35C389.203 61.35 391.391 60.2017 393.644 57.905C395.898 55.565 397.523 52.575 398.519 48.935L398.779 60.765C395.139 62.0217 391.911 62.65 389.094 62.65C384.501 62.65 380.839 61.1983 378.109 58.295C375.379 55.3483 374.014 51.3183 374.014 46.205C374.014 41.135 375.314 36.9967 377.914 33.79C380.514 30.54 383.894 28.915 388.054 28.915C391.131 28.915 393.688 29.7817 395.724 31.515C397.761 33.2483 398.779 35.4367 398.779 38.08C398.779 40.3333 397.999 42.4783 396.439 44.515C394.923 46.5083 392.843 47.9167 390.199 48.74C387.556 49.5633 384.544 49.4117 381.164 48.285C381.294 56.995 383.266 61.35 387.079 61.35ZM387.924 30.215C385.844 30.215 384.198 31.6883 382.984 34.635C381.814 37.5383 381.208 41.6333 381.164 46.92C384.804 48.3933 387.556 48.155 389.419 46.205C391.283 44.2117 392.214 41.3733 392.214 37.69C392.214 32.9233 390.784 30.4317 387.924 30.215ZM422.723 30.67C424.629 31.84 425.994 33.465 426.818 35.545C427.641 37.5817 428.053 39.9217 428.053 42.565V51.405C428.009 53.1817 428.031 54.8717 428.118 56.475C428.248 58.0783 428.551 59.4 429.028 60.44C429.504 61.48 430.328 62 431.498 62C425.908 62 422.593 60.245 421.553 56.735C420.946 58.2517 419.906 59.6167 418.433 60.83C417.003 62 414.836 62.585 411.933 62.585C409.029 62.585 406.711 61.8917 404.978 60.505C403.288 59.075 402.443 57.1033 402.443 54.59C402.443 52.4667 402.984 50.69 404.068 49.26C405.194 47.7867 406.581 46.5083 408.228 45.425C409.874 44.3417 411.564 43.3667 413.298 42.5C414.944 41.6333 416.439 40.7667 417.783 39.9C419.126 39.0333 420.123 38.0583 420.773 36.975C420.383 32.425 419.104 30.15 416.938 30.15C415.291 30.15 413.623 31.32 411.933 33.66C410.243 36 409.398 38.3183 409.398 40.615L404.003 31.775C407.816 29.825 411.564 28.85 415.248 28.85C418.368 28.85 420.859 29.4567 422.723 30.67ZM417.913 59.4C418.823 58.6633 419.538 57.8183 420.058 56.865C420.578 55.8683 420.881 54.9367 420.968 54.07C420.924 53.42 420.903 52.77 420.903 52.12V38.99C420.123 39.9433 418.953 40.8967 417.393 41.85C416.223 42.63 415.031 43.5183 413.818 44.515C412.648 45.5117 411.651 46.725 410.828 48.155C410.004 49.585 409.593 51.3183 409.593 53.355C409.593 55.4783 410.069 57.19 411.023 58.49C411.976 59.79 413.211 60.44 414.728 60.44C415.941 60.44 417.003 60.0933 417.913 59.4ZM437.271 61.61C436.014 61.22 434.931 61.025 434.021 61.025V50.495C434.628 51.405 435.603 52.705 436.946 54.395C438.333 56.085 439.936 57.6667 441.756 59.14C443.576 60.6133 445.396 61.35 447.216 61.35C448.429 61.35 449.469 61.0033 450.336 60.31C451.246 59.5733 451.701 58.5983 451.701 57.385C451.701 55.7817 450.943 54.4167 449.426 53.29C447.953 52.1633 446.176 51.0583 444.096 49.975C442.406 49.065 440.759 48.09 439.156 47.05C437.553 45.9667 436.209 44.71 435.126 43.28C434.086 41.85 433.566 40.1167 433.566 38.08C433.566 35.48 434.606 33.4 436.686 31.84C438.766 30.28 442.016 29.5 446.436 29.5C448.083 29.5 449.708 29.6083 451.311 29.825C452.914 29.9983 454.171 30.2367 455.081 30.54L451.116 39.575C450.509 37.2783 449.188 35.285 447.151 33.595C445.114 31.905 443.316 31.06 441.756 31.06C440.803 31.06 439.958 31.4067 439.221 32.1C438.528 32.75 438.181 33.7033 438.181 34.96C438.181 36.2167 438.571 37.3433 439.351 38.34C440.174 39.2933 441.214 40.1817 442.471 41.005C443.771 41.785 445.158 42.565 446.631 43.345C448.278 44.1683 449.838 45.0783 451.311 46.075C452.828 47.0283 454.084 48.1333 455.081 49.39C456.078 50.6467 456.576 52.1633 456.576 53.94C456.576 56.4533 455.471 58.5333 453.261 60.18C451.094 61.8267 448.191 62.65 444.551 62.65C443.078 62.65 441.734 62.5417 440.521 62.325C439.351 62.1083 438.268 61.87 437.271 61.61ZM473.686 28.915C477.846 28.915 481.226 30.4967 483.826 33.66C486.469 36.78 487.791 40.81 487.791 45.75C487.791 50.69 486.491 54.72 483.891 57.84C481.291 60.9167 477.889 62.455 473.686 62.455C469.482 62.455 466.059 60.9167 463.416 57.84C460.816 54.72 459.516 50.69 459.516 45.75C459.516 40.81 460.837 36.78 463.481 33.66C466.124 30.4967 469.526 28.915 473.686 28.915ZM466.861 49.39C468.117 52.4233 469.634 54.915 471.411 56.865C473.231 58.7717 475.029 59.855 476.806 60.115C478.539 60.3317 479.926 59.6817 480.966 58.165C482.006 56.6483 482.526 54.5033 482.526 51.73C482.526 48.4367 481.832 45.2083 480.446 42.045C479.059 38.8817 477.369 36.3033 475.376 34.31C473.426 32.2733 471.497 31.2333 469.591 31.19C466.557 31.32 465.041 34.0933 465.041 39.51C465.041 43.02 465.647 46.3133 466.861 49.39ZM506.257 30.28C503.484 30.28 501.036 32.5767 498.912 37.17V59.4C498.912 60.4833 499.237 61.1983 499.887 61.545C500.581 61.8483 501.404 62 502.357 62H488.317C489.271 62 490.072 61.8483 490.722 61.545C491.416 61.1983 491.762 60.4833 491.762 59.4V33.53C491.762 32.1433 491.437 31.385 490.787 31.255C490.181 31.0817 489.422 31.125 488.512 31.385H488.317L498.912 29.045V34.245C500.082 32.295 501.317 30.93 502.617 30.15C503.917 29.3267 505.369 28.915 506.972 28.915C510.136 28.915 512.692 30.1067 514.642 32.49C516.636 34.83 517.632 37.82 517.632 41.46V59.4C517.632 60.4833 517.957 61.1983 518.607 61.545C519.301 61.8483 520.124 62 521.077 62H507.037C507.991 62 508.792 61.8483 509.442 61.545C510.136 61.1983 510.482 60.4833 510.482 59.4V41.265C510.482 37.2783 510.157 34.4617 509.507 32.815C508.857 31.125 507.774 30.28 506.257 30.28ZM527.535 61.61C526.278 61.22 525.195 61.025 524.285 61.025V50.495C524.891 51.405 525.866 52.705 527.21 54.395C528.596 56.085 530.2 57.6667 532.02 59.14C533.84 60.6133 535.66 61.35 537.48 61.35C538.693 61.35 539.733 61.0033 540.6 60.31C541.51 59.5733 541.965 58.5983 541.965 57.385C541.965 55.7817 541.206 54.4167 539.69 53.29C538.216 52.1633 536.44 51.0583 534.36 49.975C532.67 49.065 531.023 48.09 529.42 47.05C527.816 45.9667 526.473 44.71 525.39 43.28C524.35 41.85 523.83 40.1167 523.83 38.08C523.83 35.48 524.87 33.4 526.95 31.84C529.03 30.28 532.28 29.5 536.7 29.5C538.346 29.5 539.971 29.6083 541.575 29.825C543.178 29.9983 544.435 30.2367 545.345 30.54L541.38 39.575C540.773 37.2783 539.451 35.285 537.415 33.595C535.378 31.905 533.58 31.06 532.02 31.06C531.066 31.06 530.221 31.4067 529.485 32.1C528.791 32.75 528.445 33.7033 528.445 34.96C528.445 36.2167 528.835 37.3433 529.615 38.34C530.438 39.2933 531.478 40.1817 532.735 41.005C534.035 41.785 535.421 42.565 536.895 43.345C538.541 44.1683 540.101 45.0783 541.575 46.075C543.091 47.0283 544.348 48.1333 545.345 49.39C546.341 50.6467 546.84 52.1633 546.84 53.94C546.84 56.4533 545.735 58.5333 543.525 60.18C541.358 61.8267 538.455 62.65 534.815 62.65C533.341 62.65 531.998 62.5417 530.785 62.325C529.615 62.1083 528.531 61.87 527.535 61.61Z" fill="url(#paint18_linear_166_51)"/>
<defs>
<linearGradient id="paint0_linear_166_51" x1="73.5113" y1="7.11572" x2="73.5113" y2="20.2859" gradientUnits="userSpaceOnUse">
<stop stop-color="#FAFAFA"/>
<stop offset="1" stop-color="#A3A3A3"/>
</linearGradient>
<linearGradient id="paint1_linear_166_51" x1="73.5536" y1="30.6574" x2="73.5536" y2="36.5017" gradientUnits="userSpaceOnUse">
<stop stop-color="#FAFAFA"/>
<stop offset="1" stop-color="#A3A3A3"/>
</linearGradient>
<linearGradient id="paint2_linear_166_51" x1="67.4218" y1="16.376" x2="67.4218" y2="77" gradientUnits="userSpaceOnUse">
<stop stop-color="#FAFAFA"/>
<stop offset="1" stop-color="#A3A3A3"/>
</linearGradient>
<linearGradient id="paint3_linear_166_51" x1="49.3745" y1="13.9477" x2="49.3745" y2="15.1825" gradientUnits="userSpaceOnUse">
<stop stop-color="#FAFAFA"/>
<stop offset="1" stop-color="#A3A3A3"/>
</linearGradient>
<linearGradient id="paint4_linear_166_51" x1="49.3745" y1="5.2225" x2="49.3745" y2="12.713" gradientUnits="userSpaceOnUse">
<stop stop-color="#FAFAFA"/>
<stop offset="1" stop-color="#A3A3A3"/>
</linearGradient>
<linearGradient id="paint5_linear_166_51" x1="49.3745" y1="3" x2="49.3745" y2="4.48165" gradientUnits="userSpaceOnUse">
<stop stop-color="#FAFAFA"/>
<stop offset="1" stop-color="#A3A3A3"/>
</linearGradient>
<linearGradient id="paint6_linear_166_51" x1="27.482" y1="49.0956" x2="27.482" y2="73.3781" gradientUnits="userSpaceOnUse">
<stop stop-color="#FAFAFA"/>
<stop offset="1" stop-color="#A3A3A3"/>
</linearGradient>
<linearGradient id="paint7_linear_166_51" x1="8.76546" y1="74.5305" x2="8.76546" y2="76.9175" gradientUnits="userSpaceOnUse">
<stop stop-color="#FAFAFA"/>
<stop offset="1" stop-color="#A3A3A3"/>
</linearGradient>
<linearGradient id="paint8_linear_166_51" x1="46.1987" y1="74.5305" x2="46.1987" y2="76.9175" gradientUnits="userSpaceOnUse">
<stop stop-color="#FAFAFA"/>
<stop offset="1" stop-color="#A3A3A3"/>
</linearGradient>
<linearGradient id="paint9_linear_166_51" x1="27.355" y1="33.2914" x2="27.355" y2="47.9433" gradientUnits="userSpaceOnUse">
<stop stop-color="#FAFAFA"/>
<stop offset="1" stop-color="#A3A3A3"/>
</linearGradient>
<linearGradient id="paint10_linear_166_51" x1="27.4397" y1="18.7219" x2="27.4397" y2="31.8921" gradientUnits="userSpaceOnUse">
<stop stop-color="#FAFAFA"/>
<stop offset="1" stop-color="#A3A3A3"/>
</linearGradient>
<linearGradient id="paint11_linear_166_51" x1="14.035" y1="37.7363" x2="14.035" y2="47.861" gradientUnits="userSpaceOnUse">
<stop stop-color="#FAFAFA"/>
<stop offset="1" stop-color="#A3A3A3"/>
</linearGradient>
<linearGradient id="paint12_linear_166_51" x1="14.0564" y1="39.5169" x2="14.0564" y2="43.169" gradientUnits="userSpaceOnUse">
<stop stop-color="#FAFAFA"/>
<stop offset="1" stop-color="#A3A3A3"/>
</linearGradient>
<linearGradient id="paint13_linear_166_51" x1="7.28332" y1="29.2581" x2="7.28332" y2="31.1513" gradientUnits="userSpaceOnUse">
<stop stop-color="#FAFAFA"/>
<stop offset="1" stop-color="#A3A3A3"/>
</linearGradient>
<linearGradient id="paint14_linear_166_51" x1="6.47887" y1="38.971" x2="6.47887" y2="42.8398" gradientUnits="userSpaceOnUse">
<stop stop-color="#FAFAFA"/>
<stop offset="1" stop-color="#A3A3A3"/>
</linearGradient>
<linearGradient id="paint15_linear_166_51" x1="7.24109" y1="31.6452" x2="7.24109" y2="47.861" gradientUnits="userSpaceOnUse">
<stop stop-color="#FAFAFA"/>
<stop offset="1" stop-color="#A3A3A3"/>
</linearGradient>
<linearGradient id="paint16_linear_166_51" x1="80.0748" y1="30.7397" x2="80.0748" y2="46.297" gradientUnits="userSpaceOnUse">
<stop stop-color="#FAFAFA"/>
<stop offset="1" stop-color="#A3A3A3"/>
</linearGradient>
<linearGradient id="paint17_linear_166_51" x1="114.5" y1="-1.873e-08" x2="114.5" y2="80" gradientUnits="userSpaceOnUse">
<stop stop-color="#FAFAFA"/>
<stop offset="1" stop-color="#A3A3A3"/>
</linearGradient>
<linearGradient id="paint18_linear_166_51" x1="344.136" y1="16" x2="344.864" y2="61" gradientUnits="userSpaceOnUse">
<stop stop-color="#FAFAFA"/>
<stop offset="1" stop-color="#A3A3A3"/>
</linearGradient>
</defs>
</svg>
