<svg width="326" height="242" viewBox="0 0 326 242" fill="none" xmlns="http://www.w3.org/2000/svg">
<g filter="url(#filter0_d_98_21)">
<mask id="path-1-outside-1_98_21" maskUnits="userSpaceOnUse" x="-1" y="-1" width="271" height="199" fill="black">
<rect fill="white" x="-1" y="-1" width="271" height="199"/>
<path d="M268.6 0.799963C263.8 21.0666 258.733 42.9333 253.4 66.4C248.067 89.8667 243.267 112.8 239 135.2C234.733 157.6 231.267 178.133 228.6 196.8H152.6L147 188C151.8 169.333 157.933 149.333 165.4 128C172.867 106.133 181.133 84.2667 190.2 62.4C199.267 40.5333 208.067 20 216.6 0.799963H268.6ZM120.6 0.799963C115.8 21.0666 110.733 42.9333 105.4 66.4C100.067 89.8667 95.2667 112.8 91 135.2C86.7333 157.6 83.2667 178.133 80.6 196.8H5.4L0.6 188C5.4 169.333 11.5333 149.333 19 128C26.4667 106.133 34.4667 84.2667 43 62.4C52.0667 40.5333 60.8667 20 69.4 0.799963H120.6Z"/>
</mask>
<path d="M268.6 0.799963C263.8 21.0666 258.733 42.9333 253.4 66.4C248.067 89.8667 243.267 112.8 239 135.2C234.733 157.6 231.267 178.133 228.6 196.8H152.6L147 188C151.8 169.333 157.933 149.333 165.4 128C172.867 106.133 181.133 84.2667 190.2 62.4C199.267 40.5333 208.067 20 216.6 0.799963H268.6ZM120.6 0.799963C115.8 21.0666 110.733 42.9333 105.4 66.4C100.067 89.8667 95.2667 112.8 91 135.2C86.7333 157.6 83.2667 178.133 80.6 196.8H5.4L0.6 188C5.4 169.333 11.5333 149.333 19 128C26.4667 106.133 34.4667 84.2667 43 62.4C52.0667 40.5333 60.8667 20 69.4 0.799963H120.6Z" fill="#F2A183"/>
<path d="M268.6 0.799963L269.573 1.03043L269.865 -0.200037H268.6V0.799963ZM253.4 66.4L252.425 66.1784L252.425 66.1784L253.4 66.4ZM239 135.2L238.018 135.013L238.018 135.013L239 135.2ZM228.6 196.8V197.8H229.467L229.59 196.941L228.6 196.8ZM152.6 196.8L151.756 197.337L152.051 197.8H152.6V196.8ZM147 188L146.032 187.751L145.924 188.171L146.156 188.537L147 188ZM165.4 128L166.344 128.33L166.346 128.323L165.4 128ZM190.2 62.4L191.124 62.783L191.124 62.783L190.2 62.4ZM216.6 0.799963V-0.200037H215.95L215.686 0.393825L216.6 0.799963ZM120.6 0.799963L121.573 1.03043L121.865 -0.200037H120.6V0.799963ZM91 135.2L90.0177 135.013L90.0177 135.013L91 135.2ZM80.6 196.8V197.8H81.4673L81.59 196.941L80.6 196.8ZM5.4 196.8L4.52211 197.279L4.80637 197.8H5.4V196.8ZM0.6 188L-0.368493 187.751L-0.466671 188.133L-0.277896 188.479L0.6 188ZM19 128L19.9439 128.33L19.9463 128.323L19 128ZM43 62.4L42.0763 62.017L42.0722 62.0267L42.0684 62.0364L43 62.4ZM69.4 0.799963V-0.200037H68.7501L68.4862 0.393825L69.4 0.799963ZM267.627 0.569497C262.826 20.8395 257.759 42.7092 252.425 66.1784L254.375 66.6216C259.708 43.1574 264.774 21.2937 269.573 1.03043L267.627 0.569497ZM252.425 66.1784C247.089 89.6559 242.287 112.601 238.018 135.013L239.982 135.387C244.247 112.999 249.044 90.0774 254.375 66.6216L252.425 66.1784ZM238.018 135.013C233.749 157.425 230.279 177.974 227.61 196.659L229.59 196.941C232.254 178.293 235.718 157.775 239.982 135.387L238.018 135.013ZM228.6 195.8H152.6V197.8H228.6V195.8ZM153.444 196.263L147.844 187.463L146.156 188.537L151.756 197.337L153.444 196.263ZM147.968 188.249C152.76 169.614 158.885 149.641 166.344 128.33L164.456 127.67C156.982 149.025 150.84 169.053 146.032 187.751L147.968 188.249ZM166.346 128.323C173.806 106.477 182.065 84.6304 191.124 62.783L189.276 62.017C180.202 83.9029 171.927 105.79 164.454 127.677L166.346 128.323ZM191.124 62.783C200.188 40.9231 208.984 20.3976 217.514 1.2061L215.686 0.393825C207.149 19.6024 198.346 40.1435 189.276 62.017L191.124 62.783ZM216.6 1.79996H268.6V-0.200037H216.6V1.79996ZM119.627 0.569497C114.826 20.8395 109.759 42.7092 104.425 66.1784L106.375 66.6216C111.708 43.1574 116.774 21.2937 121.573 1.03043L119.627 0.569497ZM104.425 66.1784C99.0891 89.6559 94.2866 112.601 90.0177 135.013L91.9823 135.387C96.2467 112.999 101.044 90.0774 106.375 66.6216L104.425 66.1784ZM90.0177 135.013C85.7487 157.425 82.2793 177.974 79.6101 196.659L81.59 196.941C84.254 178.293 87.718 157.775 91.9823 135.387L90.0177 135.013ZM80.6 195.8H5.4V197.8H80.6V195.8ZM6.2779 196.321L1.4779 187.521L-0.277896 188.479L4.52211 197.279L6.2779 196.321ZM1.56849 188.249C6.36036 169.614 12.485 149.641 19.9439 128.33L18.0561 127.67C10.5817 149.025 4.43964 169.053 -0.368493 187.751L1.56849 188.249ZM19.9463 128.323C27.4083 106.47 35.4034 84.617 43.9316 62.7635L42.0684 62.0364C33.53 83.9163 25.525 105.796 18.0537 127.677L19.9463 128.323ZM43.9237 62.783C52.9876 40.9231 61.7843 20.3976 70.3138 1.2061L68.4862 0.393825C59.9491 19.6024 51.1457 40.1435 42.0763 62.017L43.9237 62.783ZM69.4 1.79996H120.6V-0.200037H69.4V1.79996Z" fill="black" mask="url(#path-1-outside-1_98_21)"/>
</g>
<defs>
<filter id="filter0_d_98_21" x="0.599976" y="0.800049" width="325" height="241" filterUnits="userSpaceOnUse" color-interpolation-filters="sRGB">
<feFlood flood-opacity="0" result="BackgroundImageFix"/>
<feColorMatrix in="SourceAlpha" type="matrix" values="0 0 0 0 0 0 0 0 0 0 0 0 0 0 0 0 0 0 127 0" result="hardAlpha"/>
<feOffset dx="53" dy="41"/>
<feGaussianBlur stdDeviation="2"/>
<feComposite in2="hardAlpha" operator="out"/>
<feColorMatrix type="matrix" values="0 0 0 0 0.854902 0 0 0 0 0.886275 0 0 0 0 0.835294 0 0 0 1 0"/>
<feBlend mode="normal" in2="BackgroundImageFix" result="effect1_dropShadow_98_21"/>
<feBlend mode="normal" in="SourceGraphic" in2="effect1_dropShadow_98_21" result="shape"/>
</filter>
</defs>
</svg>
