<svg width="44" height="30" viewBox="0 0 44 30" fill="none" xmlns="http://www.w3.org/2000/svg">
<path d="M22.0001 30C12.4591 30 4.04911 24.255 0.575105 15.364L0.433105 15L0.575105 14.636C4.04911 5.745 12.4591 0 22.0001 0C31.5411 0 39.9511 5.745 43.4251 14.636L43.5661 15L43.4241 15.364C39.9511 24.255 31.5411 30 22.0001 30ZM2.58411 15C5.84111 22.911 13.4191 28 22.0001 28C30.5811 28 38.1591 22.911 41.4161 15C38.1591 7.089 30.5811 2 22.0001 2C13.4191 2 5.84111 7.089 2.58411 15ZM22.0001 22C18.1401 22 15.0001 18.859 15.0001 15C15.0001 11.14 18.1401 8 22.0001 8C25.8591 8 29.0001 11.14 29.0001 15C29.0001 18.859 25.8591 22 22.0001 22ZM22.0001 10C19.2431 10 17.0001 12.243 17.0001 15C17.0001 17.757 19.2431 20 22.0001 20C24.7571 20 27.0001 17.757 27.0001 15C27.0001 12.243 24.7571 10 22.0001 10Z" fill="white"/>
</svg>
